<?xml version="1.0" encoding="UTF-8" standalone="no"?>
<svg
   xmlns:dc="http://purl.org/dc/elements/1.1/"
   xmlns:cc="http://creativecommons.org/ns#"
   xmlns:rdf="http://www.w3.org/1999/02/22-rdf-syntax-ns#"
   xmlns:svg="http://www.w3.org/2000/svg"
   xmlns="http://www.w3.org/2000/svg"
   xmlns:sodipodi="http://sodipodi.sourceforge.net/DTD/sodipodi-0.dtd"
   xmlns:inkscape="http://www.inkscape.org/namespaces/inkscape"
   style="isolation:isolate"
   viewBox="1136.5 52.377 24.273 24.273"
   width="24.273"
   height="24.273"
   version="1.1"
   id="svg4"
   sodipodi:docname="behance-logo.svg"
   inkscape:version="1.0 (4035a4fb49, 2020-05-01)">
  <metadata
     id="metadata10">
    <rdf:RDF>
      <cc:Work
         rdf:about="">
        <dc:format>image/svg+xml</dc:format>
        <dc:type
           rdf:resource="http://purl.org/dc/dcmitype/StillImage" />
        <dc:title></dc:title>
      </cc:Work>
    </rdf:RDF>
  </metadata>
  <defs
     id="defs8" />
  <sodipodi:namedview
     inkscape:document-rotation="0"
     pagecolor="#ffffff"
     bordercolor="#666666"
     borderopacity="1"
     objecttolerance="10"
     gridtolerance="10"
     guidetolerance="10"
     inkscape:pageopacity="0"
     inkscape:pageshadow="2"
     inkscape:window-width="1920"
     inkscape:window-height="986"
     id="namedview6"
     showgrid="false"
     inkscape:zoom="23.30513"
     inkscape:cx="13.290127"
     inkscape:cy="14.37625"
     inkscape:window-x="-11"
     inkscape:window-y="-11"
     inkscape:window-maximized="1"
     inkscape:current-layer="svg4" />
  <path
     id="path2-5"
     d="m 1139.0371,52.513719 c -1.32,0 -2.4004,1.080391 -2.4004,2.40039 v 19.199219 c 0,1.32 1.0804,2.400391 2.4004,2.400391 h 19.1992 c 1.32,0 2.4004,-1.080391 2.4004,-2.400391 V 54.914109 c 0,-1.319999 -1.0804,-2.40039 -2.4004,-2.40039 z"
     style="stroke-width:0.0470588" />
  <g
     transform="matrix(1.2520797,0,0,1.2520797,-288.64303,-7.7286401)"
     id="g868">
    <path
       id="path4"
       style="clip-rule:evenodd;fill:#ffffff;fill-rule:nonzero;stroke-linejoin:round;stroke-miterlimit:1.41421"
       d="m 1142.885,60.303217 v -2.213 h 2.044 c 0.357,0.004 0.633,0.05 0.83,0.141 0.352,0.161 0.529,0.457 0.529,0.889 0,0.511 -0.182,0.856 -0.546,1.037 -0.2,0.098 -0.481,0.146 -0.841,0.146 z m 0,-5.419 1.806,10e-4 c 0.398,0 0.725,0.043 0.982,0.129 0.297,0.124 0.446,0.379 0.446,0.766 0,0.35 -0.113,0.593 -0.338,0.73 -0.225,0.137 -0.518,0.205 -0.878,0.205 h -2.018 v -1.83 z m 3.259,6.747 c 0.36,-0.074 0.673,-0.213 0.938,-0.416 0.235,-0.177 0.431,-0.395 0.588,-0.653 0.246,-0.392 0.369,-0.832 0.369,-1.325 0,-0.476 -0.108,-0.882 -0.323,-1.216 -0.216,-0.334 -0.535,-0.578 -0.959,-0.733 0.279,-0.142 0.49,-0.3 0.633,-0.473 0.256,-0.307 0.385,-0.715 0.385,-1.222 0,-0.492 -0.127,-0.914 -0.381,-1.267 -0.422,-0.574 -1.14,-0.869 -2.152,-0.884 h -4.013 v 8.302 h 3.742 c 0.421,0 0.813,-0.038 1.173,-0.113 z" />
    <path
       id="path6"
       style="clip-rule:evenodd;fill:#ffffff;fill-rule:nonzero;stroke-linejoin:round;stroke-miterlimit:1.41421"
       d="m 1150.592,57.116217 c 0.227,-0.233 0.546,-0.35 0.958,-0.35 0.379,0 0.696,0.11 0.952,0.33 0.256,0.221 0.399,0.545 0.428,0.97 h -2.766 c 0.058,-0.399 0.201,-0.716 0.428,-0.95 z m -1.147,4.082 c 0.624,0.503 1.345,0.755 2.162,0.755 0.99,0 1.761,-0.298 2.31,-0.896 0.354,-0.375 0.552,-0.745 0.596,-1.109 h -1.639 c -0.095,0.18 -0.206,0.321 -0.331,0.422 -0.229,0.188 -0.525,0.282 -0.891,0.282 -0.345,0 -0.64,-0.077 -0.885,-0.231 -0.403,-0.248 -0.617,-0.68 -0.642,-1.296 h 4.471 c 0.01,-0.53 -0.01,-0.936 -0.052,-1.218 -0.075,-0.482 -0.238,-0.905 -0.49,-1.269 -0.278,-0.414 -0.633,-0.717 -1.061,-0.909 -0.427,-0.191 -0.909,-0.287 -1.444,-0.287 -0.899,0 -1.631,0.284 -2.195,0.851 -0.563,0.567 -0.845,1.383 -0.845,2.446 0,1.135 0.312,1.955 0.936,2.459 z" />
    <rect
       id="rect8"
       style="clip-rule:evenodd;fill:#ffffff;fill-rule:evenodd;stroke-linejoin:round;stroke-miterlimit:1.41421"
       height="0.838"
       width="3.608"
       y="53.920216"
       x="1149.641" />
  </g>
</svg>
