<?xml version="1.0" standalone="no"?><!-- Generator: Gravit.io --><svg xmlns="http://www.w3.org/2000/svg" xmlns:xlink="http://www.w3.org/1999/xlink" style="isolation:isolate" viewBox="1106 52.514 24 24" width="24" height="24"><path d=" M 1127.8 52.514 L 1108.2 52.514 C 1107 52.514 1106 53.514 1106 54.714 L 1106 74.314 C 1106 75.514 1107 76.514 1108.2 76.514 L 1118 76.514 L 1118 66.514 L 1115 66.514 L 1115 63.514 L 1118 63.514 L 1118 60.514 C 1118 58.014 1119 56.514 1122 56.514 L 1125 56.514 L 1125 59.514 L 1123.7 59.514 C 1122.8 59.514 1122 60.314 1122 61.214 L 1122 63.514 L 1126 63.514 L 1125.5 66.514 L 1122 66.514 L 1122 76.514 L 1127.8 76.514 C 1129 76.514 1130 75.514 1130 74.314 L 1130 54.714 C 1130 53.514 1129 52.514 1127.8 52.514 Z " fill="rgb(0,0,0)"/></svg>