<?xml version="1.0" encoding="UTF-8" standalone="no"?>
<svg
   xmlns:dc="http://purl.org/dc/elements/1.1/"
   xmlns:cc="http://creativecommons.org/ns#"
   xmlns:rdf="http://www.w3.org/1999/02/22-rdf-syntax-ns#"
   xmlns:svg="http://www.w3.org/2000/svg"
   xmlns="http://www.w3.org/2000/svg"
   xmlns:sodipodi="http://sodipodi.sourceforge.net/DTD/sodipodi-0.dtd"
   xmlns:inkscape="http://www.inkscape.org/namespaces/inkscape"
   inkscape:version="1.0 (4035a4fb49, 2020-05-01)"
   sodipodi:docname="favicon.svg"
   id="svg896"
   version="1.1"
   viewBox="0 0 5.2916665 5.2916668"
   height="20"
   width="20">
  <defs
     id="defs890" />
  <sodipodi:namedview
     inkscape:window-maximized="1"
     inkscape:window-y="-11"
     inkscape:window-x="-11"
     inkscape:window-height="986"
     inkscape:window-width="1920"
     units="px"
     showgrid="false"
     inkscape:document-rotation="0"
     inkscape:current-layer="layer1"
     inkscape:document-units="mm"
     inkscape:cy="13.722416"
     inkscape:cx="1.0087335"
     inkscape:zoom="15.839192"
     inkscape:pageshadow="2"
     inkscape:pageopacity="0.0"
     borderopacity="1.0"
     bordercolor="#666666"
     pagecolor="#ffffff"
     id="base" />
  <metadata
     id="metadata893">
    <rdf:RDF>
      <cc:Work
         rdf:about="">
        <dc:format>image/svg+xml</dc:format>
        <dc:type
           rdf:resource="http://purl.org/dc/dcmitype/StillImage" />
        <dc:title />
      </cc:Work>
    </rdf:RDF>
  </metadata>
  <g
     id="layer1"
     inkscape:groupmode="layer"
     inkscape:label="Warstwa 1">
    <path
       transform="scale(0.26458333)"
       d="M 9.8632812 0.2265625 A 9.7858529 9.7858529 0 0 0 0.19140625 10.011719 A 9.7858529 9.7858529 0 0 0 2.7128906 16.570312 L 2.7128906 11.375 L 6.6601562 11.375 C 6.6719862 11.405104 6.6828779 11.435023 6.6953125 11.464844 C 6.9037036 11.909383 7.1744121 12.304976 7.5078125 12.652344 C 7.8550997 12.985747 8.2563402 13.256453 8.7148438 13.464844 C 9.1733468 13.65938 9.6541957 13.757812 10.154297 13.757812 C 10.654398 13.757812 11.112484 13.65938 11.529297 13.464844 C 11.94611 13.256441 12.307593 12.985751 12.613281 12.652344 C 12.91894 12.304976 13.15381 11.909386 13.320312 11.464844 C 13.329648 11.434959 13.340274 11.405123 13.349609 11.375 L 17.175781 11.375 C 17.082521 11.881432 16.9399 12.36952 16.738281 12.839844 C 16.377046 13.715057 15.869743 14.479818 15.216797 15.132812 C 14.577707 15.771884 13.820566 16.279191 12.945312 16.654297 C 12.083977 17.015535 11.154592 17.195312 10.154297 17.195312 C 9.4319187 17.195313 8.7712588 17.125286 8.1738281 16.986328 C 7.5903152 16.833493 6.9997123 16.619619 6.4023438 16.341797 L 6.4023438 19.121094 A 9.7858529 9.7858529 0 0 0 9.9785156 19.798828 A 9.7858529 9.7858529 0 0 0 19.763672 10.011719 A 9.7858529 9.7858529 0 0 0 9.9785156 0.2265625 A 9.7858529 9.7858529 0 0 0 9.8632812 0.2265625 z M 10.154297 2.6074219 C 11.154561 2.6074219 12.083946 2.8100546 12.945312 3.2128906 C 13.820536 3.6158264 14.577675 4.1571845 15.216797 4.8378906 C 15.869742 5.5186588 16.377045 6.3098885 16.738281 7.2128906 C 17.075472 8.0125827 17.253247 8.8541171 17.287109 9.7324219 L 13.558594 9.7324219 C 13.531876 9.3407041 13.453896 8.9674428 13.320312 8.6113281 C 13.153613 8.1529179 12.917016 7.755373 12.611328 7.421875 C 12.305638 7.0884681 11.944032 6.8253954 11.527344 6.6308594 C 11.110531 6.4224827 10.654398 6.3183594 10.154297 6.3183594 C 9.6541961 6.3183594 9.1733158 6.4224676 8.7148438 6.6308594 C 8.2563402 6.8253947 7.8550679 7.0884678 7.5078125 7.421875 C 7.1744121 7.7552788 6.9018117 8.152828 6.6933594 8.6113281 C 6.5377184 8.9673944 6.4470833 9.340667 6.4160156 9.7324219 L 2.7285156 9.7324219 C 2.7649869 8.8540986 2.9559745 8.0125612 3.3183594 7.2128906 C 3.7213167 6.3098511 4.2550427 5.5186217 4.921875 4.8378906 C 5.6026246 4.1571191 6.3958321 3.6157645 7.2988281 3.2128906 C 8.2018861 2.8100652 9.1540331 2.6074219 10.154297 2.6074219 z "
       style="fill:#25717a;fill-opacity:1;stroke:none;stroke-width:0.86592;stroke-opacity:1"
       id="path877" />
  </g>
</svg>
