<?xml version="1.0" encoding="UTF-8" standalone="no"?>
<svg
   xmlns:dc="http://purl.org/dc/elements/1.1/"
   xmlns:cc="http://creativecommons.org/ns#"
   xmlns:rdf="http://www.w3.org/1999/02/22-rdf-syntax-ns#"
   xmlns:svg="http://www.w3.org/2000/svg"
   xmlns="http://www.w3.org/2000/svg"
   xmlns:sodipodi="http://sodipodi.sourceforge.net/DTD/sodipodi-0.dtd"
   xmlns:inkscape="http://www.inkscape.org/namespaces/inkscape"
   style="isolation:isolate"
   viewBox="1136.5 52.377 24.273 24.273"
   width="24.273"
   height="24.273"
   version="1.1"
   id="svg4"
   sodipodi:docname="github-logo.svg"
   inkscape:version="1.0 (4035a4fb49, 2020-05-01)">
  <metadata
     id="metadata10">
    <rdf:RDF>
      <cc:Work
         rdf:about="">
        <dc:format>image/svg+xml</dc:format>
        <dc:type
           rdf:resource="http://purl.org/dc/dcmitype/StillImage" />
        <dc:title></dc:title>
      </cc:Work>
    </rdf:RDF>
  </metadata>
  <defs
     id="defs8" />
  <sodipodi:namedview
     inkscape:document-rotation="0"
     pagecolor="#ffffff"
     bordercolor="#666666"
     borderopacity="1"
     objecttolerance="10"
     gridtolerance="10"
     guidetolerance="10"
     inkscape:pageopacity="0"
     inkscape:pageshadow="2"
     inkscape:window-width="1920"
     inkscape:window-height="986"
     id="namedview6"
     showgrid="false"
     inkscape:zoom="8.2396077"
     inkscape:cx="-31.814488"
     inkscape:cy="16.328063"
     inkscape:window-x="-11"
     inkscape:window-y="-11"
     inkscape:window-maximized="1"
     inkscape:current-layer="svg4" />
  <path
     transform="translate(1136.5,52.377)"
     d="M 2.5371094 0.13671875 C 1.2171094 0.13671875 0.13671875 1.2171104 0.13671875 2.5371094 L 0.13671875 21.736328 C 0.13671875 23.056328 1.2171094 24.136719 2.5371094 24.136719 L 21.736328 24.136719 C 23.056328 24.136719 24.136719 23.056328 24.136719 21.736328 L 24.136719 2.5371094 C 24.136719 1.2171104 23.056328 0.13671875 21.736328 0.13671875 L 2.5371094 0.13671875 z M 6.0292969 2.0976562 L 6.2167969 2.1269531 C 6.9712969 2.2498961 7.9587406 2.9784565 8.6816406 3.9453125 L 8.9453125 4.2988281 L 9.1777344 4.140625 C 9.7260344 3.770884 10.953837 3.5691905 12.648438 3.5703125 C 14.280837 3.5715125 15.497409 3.776711 16.037109 4.140625 L 16.267578 4.2949219 L 16.527344 3.9453125 C 17.032244 3.2671415 17.706212 2.6724501 18.320312 2.3613281 C 18.537313 2.2513931 19.004466 2.1015625 19.134766 2.1015625 C 19.163766 2.1015625 19.242494 2.2831162 19.308594 2.5039062 C 19.640494 3.6059323 19.648891 4.4098504 19.337891 5.3808594 L 19.205078 5.7910156 L 19.451172 6.0507812 C 20.255372 6.8955243 20.577591 8.0209898 20.650391 10.246094 C 20.699391 11.731965 20.549866 12.580691 20.072266 13.548828 C 19.195566 15.324153 17.580656 16.342644 14.972656 16.761719 L 14.794922 16.789062 L 14.888672 16.890625 C 15.028472 17.039588 15.243066 17.528902 15.384766 18.021484 L 15.511719 18.457031 L 15.527344 21.291016 L 15.542969 24.123047 L 12.609375 24.123047 L 9.6777344 24.123047 L 9.6777344 22.650391 L 9.6777344 21.177734 L 9.5742188 21.203125 C 8.9139187 21.362055 7.754425 21.355394 7.140625 21.189453 C 6.443825 21.001093 5.8606469 20.666208 5.3730469 20.177734 C 5.0389469 19.842976 4.8232656 19.522843 4.4472656 18.796875 C 3.8817656 17.705442 3.3267 16.959447 2.8125 16.597656 C 2.4921 16.372269 2.388375 16.221261 2.484375 16.125 C 2.571375 16.03773 3.1857406 16.032474 3.5566406 16.115234 C 4.2123406 16.261379 4.7414813 16.694182 5.3007812 17.541016 C 6.0332813 18.650731 6.8861344 19.178487 8.0527344 19.246094 C 8.5214344 19.273254 8.9297313 19.227788 9.3945312 19.09375 C 9.5280312 19.05512 9.6440438 18.999976 9.6523438 18.970703 C 9.6683438 18.941443 9.6982813 18.709902 9.7382812 18.457031 C 9.8242813 17.895772 10.048606 17.257823 10.253906 16.988281 L 10.40625 16.787109 L 10.236328 16.759766 C 8.5322281 16.487781 7.3292563 15.987066 6.3476562 15.140625 C 5.3921562 14.316674 4.7497563 13.044779 4.5976562 11.677734 C 4.4561563 10.406285 4.6345625 8.3696706 4.9765625 7.3691406 C 5.1636625 6.8214226 5.3557156 6.4970619 5.7285156 6.0917969 L 6.0136719 5.78125 L 5.8789062 5.375 C 5.7002063 4.836806 5.6279094 4.2974596 5.6621094 3.7753906 C 5.6941094 3.2931366 5.7374031 3.0691471 5.9082031 2.5019531 L 6.0292969 2.0976562 z "
     style="stroke-width:0.0470588"
     id="path2-5" />
</svg>
