<?xml version="1.0" encoding="UTF-8"?>
<!DOCTYPE svg PUBLIC "-//W3C//DTD SVG 1.1//EN" "http://www.w3.org/Graphics/SVG/1.1/DTD/svg11.dtd">
<!-- Creator: CorelDRAW -->
<svg xmlns="http://www.w3.org/2000/svg" xml:space="preserve" width="142px" height="60px" style="shape-rendering:geometricPrecision; text-rendering:geometricPrecision; image-rendering:optimizeQuality; fill-rule:evenodd; clip-rule:evenodd"
viewBox="0 0 16.0459 6.79808"
 xmlns:xlink="http://www.w3.org/1999/xlink">
 <defs>
  <style type="text/css">
   <![CDATA[
    .fil0 {fill:black}
    .fil1 {fill:black;fill-rule:nonzero}
   ]]>
  </style>
 </defs>
 <g id="Warstwa_x0020_1">
  <metadata id="CorelCorpID_0Corel-Layer"/>
  <path class="fil0" d="M2.75396 3.71247c-0.0219599,0.000128665 -0.0446733,0.000492959 -0.0671866,0.000359643l-0.501891 0.00269112 2.8023 2.67036 0.00311122 -0.0025113 0.0133595 0.0126836c1.1019,-0.59086 1.79443,-1.7388 1.79443,-2.99702 0,-1.87727 -1.52177,-3.39904 -3.39904,-3.39904 -0.743302,0 -1.45717,0.240127 -2.0449,0.683765l0.777311 0c0.39732,-0.185802 0.828751,-0.280717 1.26759,-0.280717 1.6546,0 2.99599,1.34139 2.99599,2.99599 0,0.977671 -0.47352,1.88691 -1.27047,2.44933l-0.0727518 0.0513422 -1.87762 -1.7838 0.285219 0c0.388337,0 0.754056,-0.13581 1.00597,-0.439331 0.200503,-0.241581 0.293421,-0.548639 0.293421,-0.860057 0,-0.717666 -0.581721,-1.29939 -1.29939,-1.29939 -0.0297682,0 -0.0595163,0.00279499 -0.0893853,0.00279499l-2.3184 0 0.00173001 -0.00181837 -0.485673 0c-0.371719,0.558312 -0.567692,1.20906 -0.567692,1.88092 0,1.87727 1.52177,3.39904 3.39904,3.39904 0.248391,0 0.495777,-0.0268399 0.737875,-0.0804593l-0.363049 -0.345955c-0.124305,0.0155763 -0.249533,0.023366 -0.374826,0.023366 -1.6546,0 -2.99599,-1.34139 -2.99599,-2.99599 0,-0.497404 0.121873,-0.98414 0.358322,-1.42185l0.0307572 -0.0569399 2.58147 0 0.0494587 0.000906859c0.011955,0.000218576 0.0242697,-0.000959565 0.0363581,-0.000959565 0.494998,0 0.896339,0.401342 0.896339,0.896339 0,0.543478 -0.346901,0.896339 -0.896339,0.896339 -0.222222,0 -0.444451,3.72045e-005 -0.666673,-0.00033484l-0.0387779 -6.51078e-005z"/>
  <path class="fil1" d="M7.79732 1.77287c0,-0.0386725 0.0132308,-0.0712404 0.0396925,-0.097192 0.0264601,-0.0259517 0.058518,-0.038674 0.0961736,-0.038674l0.453395 0c0.0753111,0 0.146043,0.0142493 0.211686,0.0427448 0.0656442,0.0284955 0.122635,0.0671696 0.171486,0.116529 0.048851,0.0493595 0.0875251,0.106861 0.116021,0.172503 0.0284955,0.0656442 0.0427448,0.136376 0.0427448,0.211687 0,0.0742927 -0.0137393,0.142481 -0.0417264,0.205071 -0.0279886,0.0625888 -0.0666611,0.116529 -0.115512,0.161818 -0.048851,0.0452887 -0.106352,0.0803989 -0.172503,0.105334 -0.0661526,0.0249347 -0.137393,0.0376556 -0.213723,0.0376556l-0.323635 0 0 0.251887c0,0.0376556 -0.0117039,0.0697134 -0.0356202,0.0961736 -0.0239163,0.0264617 -0.0549572,0.0396925 -0.0926128,0.0396925 -0.0376556,0 -0.0697134,-0.0132308 -0.0961736,-0.0396925 -0.0264617,-0.0264601 -0.0396925,-0.058518 -0.0396925,-0.0961736l0 -1.16936zm0.264099 0.1206l0 0.538883 0.319056 0c0.0417264,0 0.0798904,-0.00661464 0.114494,-0.0198455 0.0346033,-0.0132293 0.0646257,-0.0315494 0.0900689,-0.0549572 0.0254432,-0.0234063 0.0452887,-0.0508849 0.0595365,-0.0824343 0.0142478,-0.0315494 0.0213724,-0.0661526 0.0213724,-0.103808 0,-0.0366371 -0.00712466,-0.0717488 -0.0213724,-0.104825 -0.0142478,-0.0330763 -0.0340932,-0.0625903 -0.0595365,-0.088542 -0.0254432,-0.0259517 -0.0554657,-0.0463056 -0.0900689,-0.0615718 -0.0346033,-0.0152662 -0.0722588,-0.0228994 -0.112967,-0.0228994l-0.320583 0z"/>
  <path id="1" class="fil1" d="M9.35269 1.77134c0,-0.0386725 0.0122139,-0.0707303 0.0366387,-0.0961736 0.0244247,-0.0254432 0.0554657,-0.0381656 0.0931212,-0.0381656 0.0376556,0 0.069715,0.0127224 0.0956666,0.0381656 0.0259517,0.0254432 0.0386725,0.0575011 0.0386725,0.0961736l0 1.16936c0,0.0376556 -0.0132293,0.069205 -0.039691,0.0951566 -0.0264601,0.0259517 -0.058518,0.0391825 -0.0961751,0.0391825 -0.0376556,0 -0.0681865,-0.0132308 -0.0921028,-0.0391825 -0.0239163,-0.0259517 -0.0361302,-0.0575011 -0.0361302,-0.0951566l0 -1.16936z"/>
  <path id="12" class="fil1" d="M10.3539 2.36518c0,0.0630988 0.0122139,0.122635 0.0361302,0.178611 0.0239163,0.0559741 0.0569926,0.104825 0.0992274,0.14706 0.0422348,0.0422364 0.0915943,0.0758212 0.148078,0.100246 0.0564841,0.0244263 0.116529,0.0366387 0.180646,0.0366387 0.0651342,0 0.125688,-0.0122124 0.181663,-0.0366387 0.0559741,-0.0244247 0.104825,-0.0580095 0.146552,-0.100246 0.0417264,-0.0422348 0.0748027,-0.0910858 0.098719,-0.14706 0.0239163,-0.0559757 0.0356202,-0.115512 0.0356202,-0.178611 0,-0.0641157 -0.0117039,-0.124162 -0.0356202,-0.180136 -0.0239163,-0.0559741 -0.0569926,-0.105334 -0.098719,-0.14757 -0.0417264,-0.0422348 -0.0905774,-0.0753111 -0.146552,-0.0992274 -0.0559757,-0.0239163 -0.116529,-0.0356202 -0.181663,-0.0356202 -0.0641173,0 -0.124162,0.0117039 -0.180646,0.0356202 -0.0564841,0.0239163 -0.105844,0.0569926 -0.14757,0.0992274 -0.0417264,0.0422364 -0.0748027,0.0915959 -0.0992274,0.14757 -0.0244247,0.0559741 -0.0366387,0.116021 -0.0366387,0.180136zm-0.264097 0c0,-0.100754 0.0193355,-0.195403 0.0575011,-0.283945 0.038164,-0.0885404 0.0900674,-0.165889 0.15622,-0.231531 0.0661511,-0.0656426 0.143499,-0.117546 0.232041,-0.155712 0.0885404,-0.038164 0.18268,-0.0569926 0.282418,-0.0569926 0.100754,0 0.195403,0.0188286 0.283435,0.0569926 0.0880335,0.0381656 0.164872,0.0900689 0.230514,0.155712 0.0656426,0.0656426 0.117548,0.142991 0.155712,0.231531 0.038164,0.088542 0.0569926,0.18319 0.0569926,0.283945 0,0.100754 -0.0188286,0.194894 -0.0569926,0.282928 -0.038164,0.088032 -0.0900689,0.165379 -0.155712,0.231531 -0.0656426,0.0661526 -0.142481,0.118056 -0.230514,0.15622 -0.088032,0.038164 -0.18268,0.0575011 -0.283435,0.0575011 -0.0997374,0 -0.193877,-0.019337 -0.282418,-0.0575011 -0.088542,-0.038164 -0.16589,-0.0900674 -0.232041,-0.15622 -0.0661526,-0.0661526 -0.118056,-0.143499 -0.15622,-0.231531 -0.0381656,-0.0880335 -0.0575011,-0.182173 -0.0575011,-0.282928z"/>
  <path id="123" class="fil1" d="M12.3978 1.9011l-0.450342 0c-0.0376556,0 -0.069205,-0.0122124 -0.0951566,-0.0366371 -0.0259517,-0.0244263 -0.0391825,-0.0549572 -0.0391825,-0.0915959 0,-0.0386725 0.0132308,-0.0712404 0.0391825,-0.097192 0.0259517,-0.0259517 0.0575011,-0.038674 0.0951566,-0.038674l1.1541 0c0.0376556,0 0.0697134,0.0132308 0.0956651,0.039691 0.0259517,0.0264617 0.038674,0.0585195 0.038674,0.0961751 0,0.038674 -0.0127224,0.069715 -0.038674,0.0931212 -0.0259517,0.0234078 -0.0580095,0.0351117 -0.0956651,0.0351117l-0.439656 0 0 1.0396c0,0.0376556 -0.0132308,0.069205 -0.039691,0.0951566 -0.0264617,0.0259517 -0.0585195,0.0391825 -0.0961751,0.0391825 -0.0376556,0 -0.0681865,-0.0132308 -0.0921043,-0.0391825 -0.0239163,-0.0259517 -0.0361286,-0.0575011 -0.0361286,-0.0951566l0 -1.0396z"/>
  <path id="1234" class="fil1" d="M13.6097 1.7744c0,-0.038674 0.0132308,-0.0712404 0.0396925,-0.097192 0.0264601,-0.0259517 0.058518,-0.038674 0.0961736,-0.038674l0 -0.00152693 0.43355 0c0.0753111,0 0.146043,0.0142493 0.211686,0.0427448 0.0656442,0.0284955 0.122635,0.0671696 0.171486,0.116529 0.048851,0.0493595 0.0875251,0.106861 0.116021,0.172503 0.0284955,0.0656442 0.0427448,0.136376 0.0427448,0.211687 0,0.0549572 -0.00763312,0.105842 -0.0228994,0.153166 -0.0152662,0.0473241 -0.0366387,0.0905774 -0.0641157,0.12976 -0.0274786,0.0391825 -0.0600465,0.0737842 -0.0982105,0.103298 -0.0381656,0.029514 -0.0809089,0.0534303 -0.127724,0.0717504l0.196929 0.215248c0.0132308,0.0132308 0.0234078,0.0279871 0.0300225,0.0442702 0.00661464,0.0162847 0.00966851,0.0325679 0.00966851,0.0493595 0,0.0167932 -0.00305387,0.0335848 -0.00916005,0.0498695 -0.00610618,0.0162832 -0.0157747,0.0305309 -0.029004,0.0427433 -0.0132308,0.0132308 -0.0279886,0.0228994 -0.0442718,0.029514 -0.0162832,0.00661619 -0.0330763,0.010177 -0.0503764,0.010177 -0.0356202,0 -0.0666611,-0.0132293 -0.0931228,-0.039691l-0.328215 -0.358747 -0.216775 0 0 0.261047c0,0.0376556 -0.0117039,0.0697134 -0.0356202,0.0961736 -0.0239163,0.0264617 -0.0549572,0.0396925 -0.0926128,0.0396925 -0.0376556,0 -0.0697134,-0.0132308 -0.0961736,-0.0396925 -0.0264617,-0.0264601 -0.0396925,-0.058518 -0.0396925,-0.0961736l0 -1.16784zm0.264099 0.1206l0 0.528198 0.299211 0c0.0417264,0 0.0798904,-0.00661619 0.114494,-0.019337 0.0346017,-0.0127224 0.0646257,-0.0300225 0.0900689,-0.0524133 0.0254417,-0.0223893 0.0452887,-0.0488495 0.0595365,-0.0793819 0.0142478,-0.0305309 0.0213724,-0.0636072 0.0213724,-0.0992274 0,-0.0356202 -0.00712466,-0.0702234 -0.0213724,-0.103298 -0.0142478,-0.0330763 -0.0340948,-0.0625903 -0.0595365,-0.088542 -0.0254432,-0.0259532 -0.0554672,-0.0468156 -0.0900689,-0.0625903 -0.0346033,-0.0157747 -0.0722588,-0.0234078 -0.112967,-0.0234078l-0.300738 0z"/>
  <path id="12345" class="fil1" d="M7.79732 3.93889c0,-0.038674 0.0132308,-0.0712404 0.0396925,-0.097192 0.0264601,-0.0259517 0.058518,-0.038674 0.0961736,-0.038674l0 -0.00152693 0.43355 0c0.0753111,0 0.146043,0.0142493 0.211686,0.0427448 0.0656442,0.0284955 0.122635,0.0671696 0.171486,0.116529 0.048851,0.0493595 0.0875251,0.106861 0.116021,0.172503 0.0284955,0.0656442 0.0427448,0.136376 0.0427448,0.211687 0,0.0549572 -0.00763312,0.105842 -0.0228994,0.153166 -0.0152662,0.0473241 -0.0366387,0.0905774 -0.0641157,0.12976 -0.0274786,0.0391825 -0.0600465,0.0737842 -0.0982105,0.103298 -0.0381656,0.029514 -0.0809089,0.0534303 -0.127724,0.0717504l0.196929 0.215248c0.0132308,0.0132308 0.0234078,0.0279871 0.0300225,0.0442702 0.00661464,0.0162847 0.00966851,0.0325679 0.00966851,0.0493595 0,0.0167932 -0.00305387,0.0335848 -0.00916005,0.0498695 -0.00610618,0.0162832 -0.0157747,0.0305309 -0.029004,0.0427433 -0.0132308,0.0132308 -0.0279886,0.0228994 -0.0442718,0.029514 -0.0162832,0.00661619 -0.0330763,0.010177 -0.0503764,0.010177 -0.0356202,0 -0.0666611,-0.0132293 -0.0931228,-0.039691l-0.328215 -0.358747 -0.216775 0 0 0.261047c0,0.0376556 -0.0117039,0.0697134 -0.0356202,0.0961736 -0.0239163,0.0264617 -0.0549572,0.0396925 -0.0926128,0.0396925 -0.0376556,0 -0.0697134,-0.0132308 -0.0961736,-0.0396925 -0.0264617,-0.0264601 -0.0396925,-0.058518 -0.0396925,-0.0961736l0 -1.16784zm0.264099 0.1206l0 0.528198 0.299211 0c0.0417264,0 0.0798904,-0.00661619 0.114494,-0.019337 0.0346017,-0.0127224 0.0646257,-0.0300225 0.0900689,-0.0524133 0.0254417,-0.0223893 0.0452887,-0.0488495 0.0595365,-0.0793819 0.0142478,-0.0305309 0.0213724,-0.0636072 0.0213724,-0.0992274 0,-0.0356202 -0.00712466,-0.0702234 -0.0213724,-0.103298 -0.0142478,-0.0330763 -0.0340948,-0.0625903 -0.0595365,-0.088542 -0.0254432,-0.0259532 -0.0554672,-0.0468156 -0.0900689,-0.0625903 -0.0346033,-0.0157747 -0.0722588,-0.0234078 -0.112967,-0.0234078l-0.300738 0z"/>
  <path id="123456" class="fil1" d="M9.52519 4.52968c0,0.0630988 0.0122139,0.122635 0.0361302,0.178611 0.0239163,0.0559741 0.0569926,0.104825 0.0992274,0.14706 0.0422348,0.0422364 0.0915943,0.0758212 0.148078,0.100246 0.0564841,0.0244263 0.116529,0.0366387 0.180646,0.0366387 0.0651342,0 0.125688,-0.0122124 0.181663,-0.0366387 0.0559741,-0.0244247 0.104825,-0.0580095 0.146552,-0.100246 0.0417264,-0.0422348 0.0748027,-0.0910858 0.098719,-0.14706 0.0239163,-0.0559757 0.0356202,-0.115512 0.0356202,-0.178611 0,-0.0641157 -0.0117039,-0.124162 -0.0356202,-0.180136 -0.0239163,-0.0559741 -0.0569926,-0.105334 -0.098719,-0.14757 -0.0417264,-0.0422348 -0.0905774,-0.0753111 -0.146552,-0.0992274 -0.0559757,-0.0239163 -0.116529,-0.0356202 -0.181663,-0.0356202 -0.0641173,0 -0.124162,0.0117039 -0.180646,0.0356202 -0.0564841,0.0239163 -0.105844,0.0569926 -0.14757,0.0992274 -0.0417264,0.0422364 -0.0748027,0.0915959 -0.0992274,0.14757 -0.0244247,0.0559741 -0.0366387,0.116021 -0.0366387,0.180136zm-0.264097 0c0,-0.100754 0.0193355,-0.195403 0.0575011,-0.283945 0.038164,-0.0885404 0.0900674,-0.165889 0.15622,-0.231531 0.0661511,-0.0656426 0.143499,-0.117546 0.232041,-0.155712 0.0885404,-0.038164 0.18268,-0.0569926 0.282418,-0.0569926 0.100754,0 0.195403,0.0188286 0.283435,0.0569926 0.0880335,0.0381656 0.164872,0.0900689 0.230514,0.155712 0.0656426,0.0656426 0.117548,0.142991 0.155712,0.231531 0.038164,0.088542 0.0569926,0.18319 0.0569926,0.283945 0,0.100754 -0.0188286,0.194894 -0.0569926,0.282928 -0.038164,0.088032 -0.0900689,0.165379 -0.155712,0.231531 -0.0656426,0.0661526 -0.142481,0.118056 -0.230514,0.15622 -0.088032,0.038164 -0.18268,0.0575011 -0.283435,0.0575011 -0.0997374,0 -0.193877,-0.019337 -0.282418,-0.0575011 -0.088542,-0.038164 -0.16589,-0.0900674 -0.232041,-0.15622 -0.0661526,-0.0661526 -0.118056,-0.143499 -0.15622,-0.231531 -0.0381656,-0.0880335 -0.0575011,-0.182173 -0.0575011,-0.282928z"/>
  <path id="1234567" class="fil1" d="M11.0745 5.00139c-0.0142478,-0.0264601 -0.0208624,-0.0513949 -0.0203539,-0.0742927 0.000508461,-0.0228994 0.00610618,-0.0427448 0.0167932,-0.0595365 0.0106854,-0.0167932 0.0254432,-0.030024 0.0442702,-0.040201 0.0188286,-0.010177 0.038674,-0.0152662 0.0600465,-0.0152662 0.0203539,0 0.0412164,0.0045808 0.0620803,0.0142493 0.020864,0.00966851 0.039691,0.0254432 0.0569926,0.0468141 0.0346017,0.0519049 0.0748027,0.0900689 0.120091,0.114494 0.0452887,0.0244263 0.10279,0.0366387 0.173012,0.0366387 0.0325679,0 0.0641173,-0.00407079 0.0941397,-0.0122124 0.0300225,-0.00814158 0.0564841,-0.0203555 0.0798919,-0.0361302 0.0234063,-0.0157747 0.0422348,-0.0351102 0.0564826,-0.0580095 0.0142478,-0.0228994 0.0213724,-0.048341 0.0213724,-0.0768381 0,-0.0325663 -0.00865004,-0.0605549 -0.0259517,-0.0834527 -0.0173016,-0.0228994 -0.039691,-0.0422364 -0.0671696,-0.0585195 -0.0274786,-0.0162832 -0.0580111,-0.0300225 -0.0921043,-0.0412179 -0.0340932,-0.0111939 -0.067678,-0.0213724 -0.100246,-0.0305309 -0.059028,-0.0203539 -0.116529,-0.0427448 -0.172503,-0.0666611 -0.0559741,-0.0239163 -0.105334,-0.0519033 -0.148587,-0.0844712 -0.0432533,-0.0325663 -0.078365,-0.0707319 -0.104825,-0.114494 -0.0264617,-0.0437618 -0.0396925,-0.0956651 -0.0396925,-0.155712 0,-0.0641157 0.0142493,-0.121617 0.0422364,-0.171995 0.0279871,-0.0503764 0.0646257,-0.0931212 0.110423,-0.128233 0.0457972,-0.0351117 0.0982105,-0.0615718 0.157237,-0.0798904 0.059028,-0.0183201 0.119583,-0.0274786 0.181665,-0.0274786 0.0437618,0 0.088032,0.00407079 0.132304,0.0127208 0.0442702,0.00865159 0.0859966,0.0213724 0.125179,0.0381656 0.0391825,0.0167916 0.0742942,0.038164 0.105844,0.0641157 0.0315494,0.0259517 0.0564826,0.0564841 0.0748027,0.0910858 0.0132293,0.0264617 0.0183186,0.0508864 0.0147562,0.0732758 -0.00356233,0.0223909 -0.0132308,0.0417264 -0.0284955,0.0580111 -0.0244263,0.0264601 -0.0539403,0.039691 -0.088542,0.039691 -0.0142493,0 -0.0284971,-0.00305387 -0.0427448,-0.00916005 -0.0213724,-0.0183186 -0.0422348,-0.0361286 -0.0625903,-0.0529218 -0.0203539,-0.0167916 -0.0412179,-0.0310394 -0.0625888,-0.0432533 -0.0213724,-0.0122124 -0.0442718,-0.0218809 -0.0686965,-0.029004 -0.0244263,-0.00712466 -0.0513949,-0.010687 -0.0809089,-0.010687 -0.0325679,0 -0.0636072,0.00305387 -0.0931212,0.00916005 -0.029514,0.00610618 -0.0554672,0.0157747 -0.0778566,0.029514 -0.0223893,0.0137393 -0.0401994,0.0315494 -0.0534303,0.0529218 -0.0132308,0.0213724 -0.0198455,0.0468156 -0.0198455,0.0763281 0,0.0284971 0.00712466,0.0529218 0.0213724,0.0737858 0.0142478,0.0208624 0.0335848,0.0391825 0.0580095,0.0549572 0.0244263,0.0157747 0.0534303,0.0300225 0.0865066,0.0422348 0.0330763,0.0122124 0.0686965,0.0244247 0.107369,0.0366387 0.0620819,0.0193355 0.121618,0.0401994 0.178102,0.0625888 0.0564826,0.0223909 0.106352,0.0493595 0.149605,0.0814189 0.0432517,0.0320579 0.0773465,0.0707303 0.10279,0.116019 0.0254432,0.0452887 0.038164,0.100246 0.038164,0.164363 0,0.0600449 -0.0127208,0.116019 -0.038674,0.167924 -0.0259517,0.0519033 -0.0615718,0.0966836 -0.106861,0.134848 -0.0452887,0.038164 -0.0992274,0.068188 -0.161309,0.0900689 -0.0620803,0.0218809 -0.12925,0.0330763 -0.201509,0.0330763 -0.0488495,0 -0.098719,-0.00508926 -0.149604,-0.0152662 -0.0508864,-0.010177 -0.099229,-0.0254432 -0.145535,-0.0457972 -0.0463072,-0.0203555 -0.088542,-0.0468156 -0.126198,-0.0793835 -0.0376556,-0.0325663 -0.068188,-0.0707303 -0.0915959,-0.114494z"/>
  <path id="12345678" class="fil1" d="M12.5459 3.93584c0,-0.0386725 0.0122139,-0.0707303 0.0366387,-0.0961736 0.0244247,-0.0254432 0.0554657,-0.0381656 0.0931212,-0.0381656 0.0376556,0 0.069715,0.0127224 0.0956666,0.0381656 0.0259517,0.0254432 0.0386725,0.0575011 0.0386725,0.0961736l0 1.16936c0,0.0376556 -0.0132293,0.069205 -0.039691,0.0951566 -0.0264601,0.0259517 -0.058518,0.0391825 -0.0961751,0.0391825 -0.0376556,0 -0.0681865,-0.0132308 -0.0921028,-0.0391825 -0.0239163,-0.0259517 -0.0361302,-0.0575011 -0.0361302,-0.0951566l0 -1.16936z"/>
  <path id="123456789" class="fil1" d="M13.7349 3.88241c0.0122124,-0.0284955 0.0320579,-0.0498679 0.0595365,-0.0641157 0.00305232,-0.00305387 0.00661464,-0.00508926 0.0106854,-0.00610618 0.0122124,-0.00508926 0.0264617,-0.00865159 0.0427448,-0.010687 0.0223893,0 0.0437618,0.00356233 0.0641157,0.010687l0.0045808 0.00305232c0.029514,0.0142493 0.0508849,0.0366387 0.0641157,0.0671696l0.520565 1.17547c0.00814158,0.0173016 0.0122124,0.0346017 0.0117039,0.0524133 -0.000508461,0.0178101 -0.00407079,0.0346017 -0.010687,0.0503764 -0.00661464,0.0157747 -0.0162832,0.0300225 -0.0284955,0.0427448 -0.0122124,0.0127208 -0.0264601,0.0228978 -0.0427448,0.0300225 -0.0152647,0.00712466 -0.0325663,0.0106854 -0.0519033,0.0106854 -0.0254432,0 -0.0493595,-0.00712311 -0.0717488,-0.0213724 -0.0223909,-0.0142478 -0.0391825,-0.0346017 -0.050378,-0.0610618l-0.0839612 -0.209142 -0.630479 0 -0.0839612 0.209142c-0.0111954,0.0264601 -0.0274786,0.0468141 -0.0493595,0.0610618 -0.0218809,0.0142493 -0.0457987,0.0213724 -0.0712404,0.0213724 -0.0203555,0 -0.0381656,-0.00356078 -0.0534318,-0.0106854 -0.0173001,-0.00712466 -0.0320579,-0.0173016 -0.0442702,-0.0300225 -0.0122124,-0.0127224 -0.0213724,-0.0269701 -0.0279871,-0.0427448 -0.00661619,-0.0157747 -0.010177,-0.0325663 -0.010177,-0.0503764 0,-0.0178116 0.00356078,-0.0351117 0.0106854,-0.0524133l0.522092 -1.17547zm-0.0931228 0.821301l0.430498 0 -0.213723 -0.53583 -0.216775 0.53583z"/>
  <path id="12345678910" class="fil1" d="M14.9071 3.93431c0,-0.0366387 0.0132308,-0.068188 0.0396925,-0.0941397 0.0264601,-0.0259517 0.0580095,-0.038674 0.0946482,-0.038674 0.0366371,0 0.067678,0.0127224 0.0926112,0.038674 0.0249347,0.0259517 0.0371471,0.0575011 0.0371471,0.0941397l0 0.444235 0.596895 -0.546517c0.0264601,-0.0244263 0.0569926,-0.0366387 0.0915943,-0.0366387 0.0376556,0 0.0702234,0.0137393 0.097702,0.0412179 0.0244247,0.0284971 0.0356202,0.0605549 0.0335848,0.0966836 -0.00203539,0.0361286 -0.0162847,0.0666611 -0.0427448,0.0910858l-0.46866 0.428971 0.529723 0.563308c0.0122124,0.0132308 0.0213724,0.0279871 0.0274786,0.0442702 0.00610618,0.0162847 0.00916005,0.0325679 0.00916005,0.049361 0,0.0167916 -0.00305387,0.0335848 -0.00966851,0.0498679 -0.00661619,0.0162832 -0.0167932,0.0305309 -0.030024,0.0427433 -0.0132293,0.0122139 -0.0274786,0.0213724 -0.0432517,0.0274786 -0.0157747,0.00610618 -0.0325679,0.00916005 -0.0498695,0.00916005 -0.0173016,0 -0.0340932,-0.00356233 -0.0503764,-0.010177 -0.0162847,-0.00661619 -0.0315494,-0.0167932 -0.0457972,-0.0310409l-0.532777 -0.566362 -0.112968 0.105335 0 0.369433c0,0.0183186 -0.00305232,0.0356202 -0.00966851,0.0519033 -0.00661464,0.0162832 -0.0157747,0.0300225 -0.0274786,0.0417264 -0.0117024,0.0117039 -0.0254417,0.0213724 -0.0412164,0.0284971 -0.0157747,0.00712311 -0.0330763,0.0106854 -0.0513949,0.0106854 -0.0376571,0 -0.0692065,-0.0132308 -0.0951582,-0.0391825 -0.0259517,-0.0259517 -0.0391825,-0.0569926 -0.0391825,-0.0936297l0 -1.17242z"/>
 </g>
</svg>
