<?xml version="1.0" encoding="UTF-8"?>
<!DOCTYPE svg PUBLIC "-//W3C//DTD SVG 1.1//EN" "http://www.w3.org/Graphics/SVG/1.1/DTD/svg11.dtd">
<!-- Creator: CorelDRAW -->
<svg xmlns="http://www.w3.org/2000/svg" xml:space="preserve" width="138px" height="60px" style="shape-rendering:geometricPrecision; text-rendering:geometricPrecision; image-rendering:optimizeQuality; fill-rule:evenodd; clip-rule:evenodd"
viewBox="0 0 24.9921 10.8529"
 xmlns:xlink="http://www.w3.org/1999/xlink">
 <defs>
  <style type="text/css">
   <![CDATA[
    .fil2 {fill:#727271}
    .fil0 {fill:#898989}
    .fil1 {fill:#9D9E9E}
    .fil3 {fill:black;fill-rule:nonzero}
   ]]>
  </style>
 </defs>
 <g id="Warstwa_x0020_1">
  <metadata id="CorelCorpID_0Corel-Layer"/>
  <rect class="fil0" transform="matrix(2.0263E-014 1 -0.765087 2.64845E-014 5.38555 2.35146)" width="0.955059" height="5.39698"/>
  <path class="fil1" d="M5.51985 3.30644c0.673139,0 1.21883,0.545686 1.21883,1.21883 0,0.673139 -0.390061,1.21883 -1.21883,1.21883 -0.828764,0 -1.2326,-0.000513226 -1.25226,-0.00145574l0 0.959927c0.0197136,0.000525217 -0.0951986,0.000829795 1.25226,0.000829795 1.34746,0 2.17813,-0.97518 2.17813,-2.17813 0,-1.20295 -0.97518,-2.17813 -2.17813,-2.17813 -0.740971,0 -1.3954,0.370084 -1.78886,0.9354l1.65456 0.0239825 0.0749766 0.0013742c0.0196609,-0.000942513 0.0394321,-0.00145574 0.0593256,-0.00145574z"/>
  <polygon class="fil0" points="3.13088,5.75043 4.48829,5.74315 8.61995,9.66836 7.87425,10.2705 "/>
  <path class="fil2" d="M5.42645 0c2.99694,0 5.42645,2.4295 5.42645,5.42645 0,2.11379 -1.20876,3.94503 -2.97262,4.84091l-0.745909 -0.708638 0.133451 -0.0611267c1.54853,-0.701503 2.62578,-2.26051 2.62578,-4.07114 0,-2.46714 -2.00001,-4.46715 -4.46715,-4.46715 -0.688658,0 -1.34086,0.155954 -1.92337,0.43429l-1.7071 0c0.961498,-0.866263 2.23438,-1.39359 3.63047,-1.39359zm-3.2376 2.34865c-0.761906,0.801208 -1.22955,1.88487 -1.22955,3.0778 0,2.46714 2.00001,4.46715 4.46715,4.46715 0.216428,0 0.42921,-0.0155407 0.637384,-0.0453701l0.840297 0.800733c-0.469782,0.132738 -0.965402,0.203938 -1.47768,0.203938 -2.99694,0 -5.42645,-2.4295 -5.42645,-5.42645 0,-1.14297 0.353675,-2.20318 0.957128,-3.0778l1.23172 0z"/>
  <path class="fil3" d="M12.2309 2.91064c0,-0.0598292 0.0204691,-0.110214 0.0614073,-0.150363 0.0409358,-0.0401491 0.0905316,-0.0598316 0.148788,-0.0598316l0.701436 0c0.116512,0 0.225939,0.0220447 0.327493,0.0661294 0.101556,0.0440847 0.189726,0.103916 0.265302,0.180279 0.0755761,0.0763628 0.135408,0.165321 0.179492,0.266875 0.0440847,0.101556 0.0661294,0.210984 0.0661294,0.327496 0,0.114936 -0.0212557,0.220428 -0.0645538,0.31726 -0.0433005,0.0968294 -0.10313,0.180279 -0.178706,0.250344 -0.0755761,0.0700649 -0.164535,0.124383 -0.266875,0.162959 -0.102343,0.0385759 -0.212557,0.058256 -0.330645,0.058256l-0.500688 0 0 0.389687c0,0.058256 -0.0181068,0.107852 -0.055107,0.148788 -0.0370002,0.0409382 -0.0850229,0.0614073 -0.143279,0.0614073 -0.058256,0 -0.107852,-0.0204691 -0.148788,-0.0614073 -0.0409382,-0.0409358 -0.0614073,-0.0905316 -0.0614073,-0.148788l0 -1.80909zm0.408581 0.186577l0 0.833693 0.493604 0c0.0645538,0 0.123596,-0.0102333 0.17713,-0.0307024 0.0535338,-0.0204667 0.0999808,-0.0488092 0.139343,-0.0850229 0.0393625,-0.0362112 0.0700649,-0.0787226 0.0921073,-0.127532 0.0220423,-0.0488092 0.0330647,-0.102343 0.0330647,-0.160599 0,-0.0566803 -0.0110224,-0.111001 -0.0330647,-0.162172 -0.0220423,-0.0511715 -0.0527448,-0.0968318 -0.0921073,-0.136981 -0.0393625,-0.0401491 -0.0858095,-0.0716382 -0.139343,-0.0952562 -0.0535338,-0.023618 -0.11179,-0.035427 -0.174768,-0.035427l-0.495966 0z"/>
  <path id="1" class="fil3" d="M14.6372 2.90828c0,-0.0598292 0.0188958,-0.109425 0.0566827,-0.148788 0.0377869,-0.0393625 0.0858095,-0.059045 0.144065,-0.059045 0.058256,0 0.107854,0.0196825 0.148003,0.059045 0.0401491,0.0393625 0.0598292,0.0889584 0.0598292,0.148788l0 1.80909c0,0.058256 -0.0204667,0.107065 -0.0614049,0.147214 -0.0409358,0.0401491 -0.0905316,0.0606182 -0.14879,0.0606182 -0.058256,0 -0.10549,-0.0204691 -0.14249,-0.0606182 -0.0370002,-0.0401491 -0.0558961,-0.0889584 -0.0558961,-0.147214l0 -1.80909z"/>
  <path id="12" class="fil3" d="M16.1861 3.82699c0,0.0976185 0.0188958,0.189726 0.0558961,0.276324 0.0370002,0.0865961 0.0881718,0.162172 0.153512,0.227513 0.0653404,0.0653428 0.141703,0.117301 0.229088,0.155088 0.0873851,0.0377893 0.180279,0.0566827 0.279473,0.0566827 0.100767,0 0.194448,-0.0188934 0.281046,-0.0566827 0.0865961,-0.0377869 0.162172,-0.089745 0.226726,-0.155088 0.0645538,-0.0653404 0.115725,-0.140917 0.152726,-0.227513 0.0370002,-0.0865985 0.055107,-0.178706 0.055107,-0.276324 0,-0.0991917 -0.0181068,-0.192088 -0.055107,-0.278684 -0.0370002,-0.0865961 -0.0881718,-0.162959 -0.152726,-0.228302 -0.0645538,-0.0653404 -0.14013,-0.116512 -0.226726,-0.153512 -0.0865985,-0.0370002 -0.180279,-0.055107 -0.281046,-0.055107 -0.0991941,0 -0.192088,0.0181068 -0.279473,0.055107 -0.0873851,0.0370002 -0.163748,0.0881718 -0.228302,0.153512 -0.0645538,0.0653428 -0.115725,0.141706 -0.153512,0.228302 -0.0377869,0.0865961 -0.0566827,0.179492 -0.0566827,0.278684zm-0.408578 0c0,-0.155874 0.0299134,-0.302302 0.0889584,-0.439283 0.0590426,-0.136979 0.139341,-0.256642 0.241684,-0.358196 0.102341,-0.101554 0.222004,-0.181852 0.358985,-0.240897 0.136979,-0.0590426 0.28262,-0.0881718 0.436921,-0.0881718 0.155874,0 0.302302,0.0291292 0.438494,0.0881718 0.136194,0.059045 0.255069,0.139343 0.356623,0.240897 0.101554,0.101554 0.181855,0.221217 0.240897,0.358196 0.0590426,0.136981 0.0881718,0.283409 0.0881718,0.439283 0,0.155874 -0.0291292,0.301516 -0.0881718,0.43771 -0.0590426,0.136192 -0.139343,0.255853 -0.240897,0.358196 -0.101554,0.102343 -0.220428,0.182641 -0.356623,0.241684 -0.136192,0.0590426 -0.28262,0.0889584 -0.438494,0.0889584 -0.154301,0 -0.299942,-0.0299158 -0.436921,-0.0889584 -0.136981,-0.0590426 -0.256644,-0.139341 -0.358985,-0.241684 -0.102343,-0.102343 -0.182641,-0.222004 -0.241684,-0.358196 -0.059045,-0.136194 -0.0889584,-0.281835 -0.0889584,-0.43771z"/>
  <path id="123" class="fil3" d="M19.3482 3.10903l-0.696712 0c-0.058256,0 -0.107065,-0.0188934 -0.147214,-0.0566803 -0.0401491,-0.0377893 -0.0606182,-0.0850229 -0.0606182,-0.141706 0,-0.0598292 0.0204691,-0.110214 0.0606182,-0.150363 0.0401491,-0.0401491 0.0889584,-0.0598316 0.147214,-0.0598316l1.78547 0c0.058256,0 0.107852,0.0204691 0.148001,0.0614049 0.0401491,0.0409382 0.0598316,0.090534 0.0598316,0.14879 0,0.0598316 -0.0196825,0.107854 -0.0598316,0.144065 -0.0401491,0.0362136 -0.089745,0.0543204 -0.148001,0.0543204l-0.68018 0 0 1.60834c0,0.058256 -0.0204691,0.107065 -0.0614049,0.147214 -0.0409382,0.0401491 -0.090534,0.0606182 -0.14879,0.0606182 -0.058256,0 -0.10549,-0.0204691 -0.142492,-0.0606182 -0.0370002,-0.0401491 -0.0558937,-0.0889584 -0.0558937,-0.147214l0 -1.60834z"/>
  <path id="1234" class="fil3" d="M21.2231 2.913c0,-0.0598316 0.0204691,-0.110214 0.0614073,-0.150363 0.0409358,-0.0401491 0.0905316,-0.0598316 0.148788,-0.0598316l0 -0.00236228 0.670734 0c0.116512,0 0.225939,0.0220447 0.327493,0.0661294 0.101556,0.0440847 0.189726,0.103916 0.265302,0.180279 0.0755761,0.0763628 0.135408,0.165321 0.179492,0.266875 0.0440847,0.101556 0.0661294,0.210984 0.0661294,0.327496 0,0.0850229 -0.011809,0.163745 -0.035427,0.236959 -0.023618,0.0732139 -0.0566827,0.14013 -0.0991917,0.200748 -0.0425114,0.0606182 -0.0928963,0.11415 -0.151939,0.15981 -0.059045,0.0456603 -0.125172,0.0826606 -0.197599,0.111003l0.304664 0.333005c0.0204691,0.0204691 0.0362136,0.0432981 0.046447,0.0684893 0.0102333,0.0251936 0.0149579,0.0503849 0.0149579,0.0763628 0,0.0259803 -0.00472456,0.0519581 -0.0141713,0.0771518 -0.00944672,0.0251912 -0.0244046,0.0472336 -0.0448713,0.066127 -0.0204691,0.0204691 -0.0433005,0.035427 -0.0684917,0.0456603 -0.0251912,0.0102357 -0.0511715,0.0157445 -0.077936,0.0157445 -0.055107,0 -0.10313,-0.0204667 -0.144068,-0.0614049l-0.507772 -0.555008 -0.335367 0 0 0.403859c0,0.058256 -0.0181068,0.107852 -0.055107,0.148788 -0.0370002,0.0409382 -0.0850229,0.0614073 -0.143279,0.0614073 -0.058256,0 -0.107852,-0.0204691 -0.148788,-0.0614073 -0.0409382,-0.0409358 -0.0614073,-0.0905316 -0.0614073,-0.148788l0 -1.80673zm0.408581 0.186577l0 0.817161 0.462901 0c0.0645538,0 0.123596,-0.0102357 0.17713,-0.0299158 0.0535314,-0.0196825 0.0999808,-0.046447 0.139343,-0.0810873 0.0393601,-0.034638 0.0700649,-0.0755737 0.0921073,-0.12281 0.0220423,-0.0472336 0.0330647,-0.0984051 0.0330647,-0.153512 0,-0.055107 -0.0110224,-0.108641 -0.0330647,-0.15981 -0.0220423,-0.0511715 -0.0527472,-0.0968318 -0.0921073,-0.136981 -0.0393625,-0.0401515 -0.0858119,-0.0724272 -0.139343,-0.0968318 -0.0535338,-0.0244046 -0.11179,-0.0362136 -0.174768,-0.0362136l-0.465263 0z"/>
  <path id="12345" class="fil3" d="M12.2309 6.26164c0,-0.0598316 0.0204691,-0.110214 0.0614073,-0.150363 0.0409358,-0.0401491 0.0905316,-0.0598316 0.148788,-0.0598316l0 -0.00236228 0.670734 0c0.116512,0 0.225939,0.0220447 0.327493,0.0661294 0.101556,0.0440847 0.189726,0.103916 0.265302,0.180279 0.0755761,0.0763628 0.135408,0.165321 0.179492,0.266875 0.0440847,0.101556 0.0661294,0.210984 0.0661294,0.327496 0,0.0850229 -0.011809,0.163745 -0.035427,0.236959 -0.023618,0.0732139 -0.0566827,0.14013 -0.0991917,0.200748 -0.0425114,0.0606182 -0.0928963,0.11415 -0.151939,0.15981 -0.059045,0.0456603 -0.125172,0.0826606 -0.197599,0.111003l0.304664 0.333005c0.0204691,0.0204691 0.0362136,0.0432981 0.046447,0.0684893 0.0102333,0.0251936 0.0149579,0.0503849 0.0149579,0.0763628 0,0.0259803 -0.00472456,0.0519581 -0.0141713,0.0771518 -0.00944672,0.0251912 -0.0244046,0.0472336 -0.0448713,0.066127 -0.0204691,0.0204691 -0.0433005,0.035427 -0.0684917,0.0456603 -0.0251912,0.0102357 -0.0511715,0.0157445 -0.077936,0.0157445 -0.055107,0 -0.10313,-0.0204667 -0.144068,-0.0614049l-0.507772 -0.555008 -0.335367 0 0 0.403859c0,0.058256 -0.0181068,0.107852 -0.055107,0.148788 -0.0370002,0.0409382 -0.0850229,0.0614073 -0.143279,0.0614073 -0.058256,0 -0.107852,-0.0204691 -0.148788,-0.0614073 -0.0409382,-0.0409358 -0.0614073,-0.0905316 -0.0614073,-0.148788l0 -1.80673zm0.408581 0.186577l0 0.817161 0.462901 0c0.0645538,0 0.123596,-0.0102357 0.17713,-0.0299158 0.0535314,-0.0196825 0.0999808,-0.046447 0.139343,-0.0810873 0.0393601,-0.034638 0.0700649,-0.0755737 0.0921073,-0.12281 0.0220423,-0.0472336 0.0330647,-0.0984051 0.0330647,-0.153512 0,-0.055107 -0.0110224,-0.108641 -0.0330647,-0.15981 -0.0220423,-0.0511715 -0.0527472,-0.0968318 -0.0921073,-0.136981 -0.0393625,-0.0401515 -0.0858119,-0.0724272 -0.139343,-0.0968318 -0.0535338,-0.0244046 -0.11179,-0.0362136 -0.174768,-0.0362136l-0.465263 0z"/>
  <path id="123456" class="fil3" d="M14.9041 7.17563c0,0.0976185 0.0188958,0.189726 0.0558961,0.276324 0.0370002,0.0865961 0.0881718,0.162172 0.153512,0.227513 0.0653404,0.0653428 0.141703,0.117301 0.229088,0.155088 0.0873851,0.0377893 0.180279,0.0566827 0.279473,0.0566827 0.100767,0 0.194448,-0.0188934 0.281046,-0.0566827 0.0865961,-0.0377869 0.162172,-0.089745 0.226726,-0.155088 0.0645538,-0.0653404 0.115725,-0.140917 0.152726,-0.227513 0.0370002,-0.0865985 0.055107,-0.178706 0.055107,-0.276324 0,-0.0991917 -0.0181068,-0.192088 -0.055107,-0.278684 -0.0370002,-0.0865961 -0.0881718,-0.162959 -0.152726,-0.228302 -0.0645538,-0.0653404 -0.14013,-0.116512 -0.226726,-0.153512 -0.0865985,-0.0370002 -0.180279,-0.055107 -0.281046,-0.055107 -0.0991941,0 -0.192088,0.0181068 -0.279473,0.055107 -0.0873851,0.0370002 -0.163748,0.0881718 -0.228302,0.153512 -0.0645538,0.0653428 -0.115725,0.141706 -0.153512,0.228302 -0.0377869,0.0865961 -0.0566827,0.179492 -0.0566827,0.278684zm-0.408578 0c0,-0.155874 0.0299134,-0.302302 0.0889584,-0.439283 0.0590426,-0.136979 0.139341,-0.256642 0.241684,-0.358196 0.102341,-0.101554 0.222004,-0.181852 0.358985,-0.240897 0.136979,-0.0590426 0.28262,-0.0881718 0.436921,-0.0881718 0.155874,0 0.302302,0.0291292 0.438494,0.0881718 0.136194,0.059045 0.255069,0.139343 0.356623,0.240897 0.101554,0.101554 0.181855,0.221217 0.240897,0.358196 0.0590426,0.136981 0.0881718,0.283409 0.0881718,0.439283 0,0.155874 -0.0291292,0.301516 -0.0881718,0.43771 -0.0590426,0.136192 -0.139343,0.255853 -0.240897,0.358196 -0.101554,0.102343 -0.220428,0.182641 -0.356623,0.241684 -0.136192,0.0590426 -0.28262,0.0889584 -0.438494,0.0889584 -0.154301,0 -0.299942,-0.0299158 -0.436921,-0.0889584 -0.136981,-0.0590426 -0.256644,-0.139341 -0.358985,-0.241684 -0.102343,-0.102343 -0.182641,-0.222004 -0.241684,-0.358196 -0.059045,-0.136194 -0.0889584,-0.281835 -0.0889584,-0.43771z"/>
  <path id="1234567" class="fil3" d="M17.3009 7.9054c-0.0220423,-0.0409358 -0.0322757,-0.0795117 -0.0314891,-0.114936 0.000786627,-0.035427 0.00944672,-0.0661294 0.0259803,-0.0921073 0.0165312,-0.0259803 0.0393625,-0.0464494 0.0684893,-0.0621939 0.0291292,-0.0157445 0.0598316,-0.023618 0.0928963,-0.023618 0.0314891,0 0.0637647,0.00708684 0.0960428,0.0220447 0.0322781,0.0149579 0.0614049,0.0393625 0.0881718,0.0724248 0.0535314,0.0803007 0.115725,0.139343 0.18579,0.17713 0.0700649,0.0377893 0.159023,0.0566827 0.267662,0.0566827 0.0503849,0 0.0991941,-0.00629781 0.145641,-0.0188934 0.046447,-0.0125956 0.0873851,-0.0314915 0.123599,-0.0558961 0.0362112,-0.0244046 0.0653404,-0.054318 0.0873827,-0.089745 0.0220423,-0.035427 0.0330647,-0.0747871 0.0330647,-0.118874 0,-0.0503825 -0.0133822,-0.0936829 -0.0401491,-0.129108 -0.0267669,-0.035427 -0.0614049,-0.0653428 -0.103916,-0.090534 -0.0425114,-0.0251912 -0.0897474,-0.046447 -0.142492,-0.0637671 -0.0527448,-0.0173178 -0.104703,-0.0330647 -0.155088,-0.0472336 -0.0913207,-0.0314891 -0.180279,-0.0661294 -0.266875,-0.10313 -0.0865961,-0.0370002 -0.162959,-0.0802983 -0.229875,-0.130683 -0.066916,-0.0503825 -0.121236,-0.109427 -0.162172,-0.17713 -0.0409382,-0.0677027 -0.0614073,-0.148001 -0.0614073,-0.240897 0,-0.0991917 0.0220447,-0.18815 0.0653428,-0.266089 0.0432981,-0.077936 0.0999808,-0.144065 0.170832,-0.198386 0.0708516,-0.0543204 0.151939,-0.0952562 0.243257,-0.123596 0.0913207,-0.0283425 0.185004,-0.0425114 0.281049,-0.0425114 0.0677027,0 0.136192,0.00629781 0.204684,0.0196801 0.0684893,0.0133846 0.133043,0.0330647 0.193661,0.059045 0.0606182,0.0259779 0.114939,0.0590426 0.163748,0.0991917 0.0488092,0.0401491 0.0873827,0.0873851 0.115725,0.140917 0.0204667,0.0409382 0.0283402,0.078725 0.022829,0.113363 -0.00551118,0.0346404 -0.0204691,0.0645538 -0.0440847,0.0897474 -0.0377893,0.0409358 -0.0834496,0.0614049 -0.136981,0.0614049 -0.0220447,0 -0.0440871,-0.00472456 -0.0661294,-0.0141713 -0.0330647,-0.0283402 -0.0653404,-0.0558937 -0.0968318,-0.0818739 -0.0314891,-0.0259779 -0.0637671,-0.0480202 -0.0968294,-0.066916 -0.0330647,-0.0188934 -0.0684917,-0.0338513 -0.106279,-0.0448713 -0.0377893,-0.0110224 -0.0795117,-0.0165336 -0.125172,-0.0165336 -0.0503849,0 -0.0984051,0.00472456 -0.144065,0.0141713 -0.0456603,0.00944672 -0.0858119,0.0244046 -0.12045,0.0456603 -0.034638,0.0212557 -0.0621915,0.0488092 -0.0826606,0.0818739 -0.0204691,0.0330647 -0.0307024,0.0724272 -0.0307024,0.118085 0,0.0440871 0.0110224,0.0818739 0.0330647,0.114152 0.0220423,0.0322757 0.0519581,0.0606182 0.089745,0.0850229 0.0377893,0.0244046 0.0826606,0.046447 0.133832,0.0653404 0.0511715,0.0188934 0.106279,0.0377869 0.166108,0.0566827 0.0960452,0.0299134 0.188153,0.0621915 0.275538,0.0968294 0.0873827,0.0346404 0.164535,0.0763628 0.231451,0.125961 0.0669136,0.0495959 0.119661,0.109425 0.159023,0.17949 0.0393625,0.0700649 0.0590426,0.155088 0.0590426,0.254282 0,0.0928939 -0.0196801,0.17949 -0.0598316,0.259791 -0.0401491,0.0802983 -0.0952562,0.149577 -0.165321,0.208619 -0.0700649,0.0590426 -0.153512,0.105492 -0.249557,0.139343 -0.0960428,0.0338513 -0.199959,0.0511715 -0.311749,0.0511715 -0.0755737,0 -0.152726,-0.00787346 -0.231448,-0.023618 -0.078725,-0.0157445 -0.153515,-0.0393625 -0.225153,-0.0708516 -0.0716406,-0.0314915 -0.136981,-0.0724272 -0.195237,-0.122812 -0.058256,-0.0503825 -0.105492,-0.109425 -0.141706,-0.17713z"/>
  <path id="12345678" class="fil3" d="M19.5773 6.25691c0,-0.0598292 0.0188958,-0.109425 0.0566827,-0.148788 0.0377869,-0.0393625 0.0858095,-0.059045 0.144065,-0.059045 0.058256,0 0.107854,0.0196825 0.148003,0.059045 0.0401491,0.0393625 0.0598292,0.0889584 0.0598292,0.148788l0 1.80909c0,0.058256 -0.0204667,0.107065 -0.0614049,0.147214 -0.0409358,0.0401491 -0.0905316,0.0606182 -0.14879,0.0606182 -0.058256,0 -0.10549,-0.0204691 -0.14249,-0.0606182 -0.0370002,-0.0401491 -0.0558961,-0.0889584 -0.0558961,-0.147214l0 -1.80909z"/>
  <path id="123456789" class="fil3" d="M21.4167 6.17425c0.0188934,-0.0440847 0.0495959,-0.0771494 0.0921073,-0.0991917 0.00472216,-0.00472456 0.0102333,-0.00787346 0.0165312,-0.00944672 0.0188934,-0.00787346 0.0409382,-0.0133846 0.0661294,-0.0165336 0.034638,0 0.0677027,0.00551118 0.0991917,0.0165336l0.00708684 0.00472216c0.0456603,0.0220447 0.0787226,0.0566827 0.0991917,0.103916l0.805352 1.81854c0.0125956,0.0267669 0.0188934,0.0535314 0.0181068,0.0810873 -0.000786627,0.0275535 -0.00629781,0.0535314 -0.0165336,0.077936 -0.0102333,0.0244046 -0.0251912,0.046447 -0.0440847,0.0661294 -0.0188934,0.0196801 -0.0409358,0.0354246 -0.0661294,0.046447 -0.0236156,0.0110224 -0.0503825,0.0165312 -0.0802983,0.0165312 -0.0393625,0 -0.0763628,-0.01102 -0.111001,-0.0330647 -0.0346404,-0.0220423 -0.0606182,-0.0535314 -0.0779384,-0.0944672l-0.129894 -0.323558 -0.975398 0 -0.129894 0.323558c-0.0173202,0.0409358 -0.0425114,0.0724248 -0.0763628,0.0944672 -0.0338513,0.0220447 -0.070854,0.0330647 -0.110214,0.0330647 -0.0314915,0 -0.059045,-0.00550879 -0.082663,-0.0165312 -0.0267645,-0.0110224 -0.0495959,-0.0267669 -0.0684893,-0.046447 -0.0188934,-0.0196825 -0.0330647,-0.0417248 -0.0432981,-0.0661294 -0.0102357,-0.0244046 -0.0157445,-0.0503825 -0.0157445,-0.077936 0,-0.0275559 0.00550879,-0.0543204 0.0165312,-0.0810873l0.807715 -1.81854zm-0.144068 1.27061l0.666012 0 -0.330645 -0.828968 -0.335367 0.828968z"/>
  <path id="12345678910" class="fil3" d="M23.2302 6.25455c0,-0.0566827 0.0204691,-0.105492 0.0614073,-0.145641 0.0409358,-0.0401491 0.089745,-0.0598316 0.146428,-0.0598316 0.0566803,0 0.104703,0.0196825 0.143276,0.0598316 0.0385759,0.0401491 0.0574693,0.0889584 0.0574693,0.145641l0 0.687265 0.92344 -0.845502c0.0409358,-0.0377893 0.0881718,-0.0566827 0.141703,-0.0566827 0.058256,0 0.108641,0.0212557 0.151152,0.0637671 0.0377869,0.0440871 0.055107,0.0936829 0.0519581,0.149577 -0.00314891,0.0558937 -0.0251936,0.10313 -0.0661294,0.140917l-0.725052 0.663649 0.819521 0.871479c0.0188934,0.0204691 0.0330647,0.0432981 0.0425114,0.0684893 0.00944672,0.0251936 0.0141713,0.0503849 0.0141713,0.0763652 0,0.0259779 -0.00472456,0.0519581 -0.0149579,0.0771494 -0.0102357,0.0251912 -0.0259803,0.0472336 -0.0464494,0.066127 -0.0204667,0.0188958 -0.0425114,0.0330647 -0.0669136,0.0425114 -0.0244046,0.00944672 -0.0503849,0.0141713 -0.0771518,0.0141713 -0.0267669,0 -0.0527448,-0.00551118 -0.077936,-0.0157445 -0.0251936,-0.0102357 -0.0488092,-0.0259803 -0.0708516,-0.0480226l-0.824246 -0.876204 -0.17477 0.162961 0 0.57154c0,0.0283402 -0.00472216,0.055107 -0.0149579,0.0802983 -0.0102333,0.0251912 -0.0244046,0.046447 -0.0425114,0.0645538 -0.0181044,0.0181068 -0.0393601,0.0330647 -0.0637647,0.0440871 -0.0244046,0.01102 -0.0511715,0.0165312 -0.0795117,0.0165312 -0.0582584,0 -0.107068,-0.0204691 -0.147217,-0.0606182 -0.0401491,-0.0401491 -0.0606182,-0.0881718 -0.0606182,-0.144852l0 -1.81381z"/>
 </g>
</svg>
