<?xml version="1.0" encoding="UTF-8" standalone="no"?>
<svg
   xmlns:dc="http://purl.org/dc/elements/1.1/"
   xmlns:cc="http://creativecommons.org/ns#"
   xmlns:rdf="http://www.w3.org/1999/02/22-rdf-syntax-ns#"
   xmlns:svg="http://www.w3.org/2000/svg"
   xmlns="http://www.w3.org/2000/svg"
   xmlns:sodipodi="http://sodipodi.sourceforge.net/DTD/sodipodi-0.dtd"
   xmlns:inkscape="http://www.inkscape.org/namespaces/inkscape"
   xml:space="preserve"
   width="92"
   height="40"
   style="clip-rule:evenodd;fill-rule:evenodd;image-rendering:optimizeQuality;shape-rendering:geometricPrecision;text-rendering:geometricPrecision"
   viewBox="0 0 3.4329718 1.4890057"
   version="1.1"
   id="svg24"
   sodipodi:docname="logo3min.svg"
   inkscape:version="1.0 (4035a4fb49, 2020-05-01)"><metadata
   id="metadata28"><rdf:RDF><cc:Work
       rdf:about=""><dc:format>image/svg+xml</dc:format><dc:type
         rdf:resource="http://purl.org/dc/dcmitype/StillImage" /><dc:title></dc:title></cc:Work></rdf:RDF></metadata><sodipodi:namedview
   inkscape:document-rotation="0"
   pagecolor="#ffffff"
   bordercolor="#666666"
   borderopacity="1"
   objecttolerance="10"
   gridtolerance="10"
   guidetolerance="10"
   inkscape:pageopacity="0"
   inkscape:pageshadow="2"
   inkscape:window-width="1920"
   inkscape:window-height="986"
   id="namedview26"
   showgrid="false"
   inkscape:zoom="7.1920903"
   inkscape:cx="54.523733"
   inkscape:cy="-3.0287712"
   inkscape:window-x="-11"
   inkscape:window-y="-11"
   inkscape:window-maximized="1"
   inkscape:current-layer="svg24" />
 <defs
   id="defs4">
  <style
   type="text/css"
   id="style2">
   <![CDATA[
    .fil1 {fill:#5B5B5B}
    .fil0 {fill:black;fill-rule:nonzero}
    .fil2 {fill:#FEFEFE;fill-rule:nonzero}
   ]]>
  </style>
 </defs>
 
<g
   transform="translate(-3.2424187,0.80195161)"
   id="g891"><path
     id="path926"
     d="m 6.3890669,0.41985774 c 0.010233,0.0131127 0.018506,0.0279932 0.024621,0.044808 0.00757,0.0201833 0.011364,0.0413038 0.011364,0.0633781 V 0.6841329 H 6.5953224 V 0.52804381 c 0,-0.0381268 -0.00524,-0.0741727 -0.015521,-0.10818607 z"
     style="font-style:normal;font-variant:normal;font-weight:bold;font-stretch:normal;font-size:1.4926px;line-height:1.25;font-family:VomZom;-inkscape-font-specification:'VomZom Bold';letter-spacing:0px;word-spacing:0px;clip-rule:evenodd;fill:#00222b;fill-opacity:1;fill-rule:evenodd;stroke:none;stroke-width:0.0236513;stroke-miterlimit:4;stroke-dasharray:none;stroke-opacity:1;image-rendering:optimizeQuality;shape-rendering:geometricPrecision;text-rendering:geometricPrecision" /><path
     id="path924"
     d="M 6.1014638,0.41985774 V 0.6841329 H 6.2708106 V 0.41985774 Z"
     style="font-style:normal;font-variant:normal;font-weight:bold;font-stretch:normal;font-size:1.4926px;line-height:1.25;font-family:VomZom;-inkscape-font-specification:'VomZom Bold';letter-spacing:0px;word-spacing:0px;clip-rule:evenodd;fill:#00222b;fill-opacity:1;fill-rule:evenodd;stroke:none;stroke-width:0.0236513;stroke-miterlimit:4;stroke-dasharray:none;stroke-opacity:1;image-rendering:optimizeQuality;shape-rendering:geometricPrecision;text-rendering:geometricPrecision" /><path
     id="path922"
     d="m 5.3824101,0.41985774 c 0.00406,0.0234344 0.010329,0.0459662 0.019355,0.0674893 0.017029,0.0391043 0.040047,0.0735088 0.06906,0.10315072 0.029643,0.0290125 0.064002,0.0520311 0.1031046,0.06906 0.039104,0.0163991 0.081392,0.0245751 0.1268022,0.0245751 0.034057,0 0.063987,-0.003161 0.089847,-0.00947 0.025859,-0.006938 0.05204,-0.0163794 0.078529,-0.0283631 v 0.0378328 h 0.170317 V 0.41985774 H 5.8577912 c -6.693e-4,0.001686 -0.00121,0.003413 -0.00194,0.005081 -0.00883,0.0201854 -0.021097,0.0378486 -0.036863,0.0529845 -0.01514,0.0151359 -0.033144,0.0271074 -0.053955,0.0359388 -0.020184,0.008831 -0.041598,0.0132577 -0.064302,0.0132577 -0.022704,0 -0.043532,-0.004426 -0.062454,-0.0132577 -0.018918,-0.008831 -0.03532,-0.0208029 -0.049196,-0.0359388 -0.013877,-0.0151401 -0.024923,-0.0328034 -0.033121,-0.0529845 -6.244e-4,-0.001665 -0.00104,-0.003399 -0.00162,-0.005081 z"
     style="font-style:normal;font-variant:normal;font-weight:bold;font-stretch:normal;font-size:1.4926px;line-height:1.25;font-family:VomZom;-inkscape-font-specification:'VomZom Bold';letter-spacing:0px;word-spacing:0px;clip-rule:evenodd;fill:#00222b;fill-opacity:1;fill-rule:evenodd;stroke:none;stroke-width:0.0236513;stroke-miterlimit:4;stroke-dasharray:none;stroke-opacity:1;image-rendering:optimizeQuality;shape-rendering:geometricPrecision;text-rendering:geometricPrecision" /><path
     id="path920"
     d="M 5.1591089,0.41985774 V 0.6841329 H 5.3152441 V 0.41985774 Z"
     style="font-style:normal;font-variant:normal;font-weight:bold;font-stretch:normal;font-size:1.4926px;line-height:1.25;font-family:VomZom;-inkscape-font-specification:'VomZom Bold';letter-spacing:0px;word-spacing:0px;clip-rule:evenodd;fill:#00222b;fill-opacity:1;fill-rule:evenodd;stroke:none;stroke-width:0.0236513;stroke-miterlimit:4;stroke-dasharray:none;stroke-opacity:1;image-rendering:optimizeQuality;shape-rendering:geometricPrecision;text-rendering:geometricPrecision" /><path
     id="path918"
     d="m 4.7590239,0.41985774 c -6.527e-4,0.001684 -0.00114,0.003409 -0.00185,0.005081 -0.00883,0.0201854 -0.020849,0.0381429 -0.035985,0.0539083 -0.015136,0.0151359 -0.033093,0.0271074 -0.053908,0.0359388 -0.020184,0.008831 -0.041644,0.0132577 -0.064348,0.0132577 V 0.6841329 c 0.045409,0 0.08833,-0.008176 0.1286959,-0.0245751 0.040995,-0.0170289 0.076911,-0.0400475 0.1078167,-0.06906 0.030906,-0.0296433 0.05519,-0.0640017 0.072847,-0.1031046 0.00996,-0.021634 0.01699,-0.0442189 0.021526,-0.0675355 z"
     style="font-style:normal;font-variant:normal;font-weight:bold;font-stretch:normal;font-size:1.4926px;line-height:1.25;font-family:VomZom;-inkscape-font-specification:'VomZom Bold';letter-spacing:0px;word-spacing:0px;clip-rule:evenodd;fill:#00222b;fill-opacity:1;fill-rule:evenodd;stroke:none;stroke-width:0.0236513;stroke-miterlimit:4;stroke-dasharray:none;stroke-opacity:1;image-rendering:optimizeQuality;shape-rendering:geometricPrecision;text-rendering:geometricPrecision" /><path
     id="path916"
     d="m 3.8843892,0.41985774 c 0.00438,0.0233157 0.011127,0.0458572 0.020741,0.0674893 0.018289,0.0391043 0.042866,0.0735088 0.073772,0.10315072 0.030904,0.0290125 0.066867,0.0520311 0.1078628,0.06906 0.040996,0.0163991 0.08421,0.0245751 0.12962,0.0245751 0.045411,0 0.087653,-0.008176 0.1267558,-0.0245751 0.039734,-0.0170289 0.074092,-0.0400475 0.1031049,-0.06906 0.029642,-0.0296433 0.05266,-0.0640478 0.06906,-0.10315072 0.00927,-0.0216326 0.015778,-0.0441744 0.020002,-0.0674893 H 4.3617566 c -5.582e-4,0.001684 -9.626e-4,0.003409 -0.00157,0.005081 -0.00757,0.0201854 -0.018321,0.0378486 -0.032197,0.0529845 -0.013877,0.0151359 -0.030275,0.0274016 -0.049197,0.0368626 -0.018922,0.008831 -0.039704,0.0132577 -0.062408,0.0132577 -0.022704,0 -0.044457,-0.004426 -0.065272,-0.0132577 -0.020185,-0.009461 -0.038189,-0.0217268 -0.053954,-0.0368626 -0.015136,-0.0151401 -0.027402,-0.0328034 -0.036863,-0.0529845 -7.119e-4,-0.001677 -0.00124,-0.003393 -0.00189,-0.005081 z"
     style="font-style:normal;font-variant:normal;font-weight:bold;font-stretch:normal;font-size:1.4926px;line-height:1.25;font-family:VomZom;-inkscape-font-specification:'VomZom Bold';letter-spacing:0px;word-spacing:0px;clip-rule:evenodd;fill:#00222b;fill-opacity:1;fill-rule:evenodd;stroke:none;stroke-width:0.0236513;stroke-miterlimit:4;stroke-dasharray:none;stroke-opacity:1;image-rendering:optimizeQuality;shape-rendering:geometricPrecision;text-rendering:geometricPrecision" /><path
     id="path914"
     d="M 3.244835,0.41985774 V 0.6841329 H 3.4141818 V 0.41985774 Z"
     style="font-style:normal;font-variant:normal;font-weight:bold;font-stretch:normal;font-size:1.4926px;line-height:1.25;font-family:VomZom;-inkscape-font-specification:'VomZom Bold';letter-spacing:0px;word-spacing:0px;clip-rule:evenodd;fill:#00222b;fill-opacity:1;fill-rule:evenodd;stroke:none;stroke-width:0.0236513;stroke-miterlimit:4;stroke-dasharray:none;stroke-opacity:1;image-rendering:optimizeQuality;shape-rendering:geometricPrecision;text-rendering:geometricPrecision" /><path
     id="path912"
     d="m 6.101556,-0.40107029 v 0.26427516 h 0.1693468 v -0.26427516 z"
     style="font-style:normal;font-variant:normal;font-weight:bold;font-stretch:normal;font-size:1.4926px;line-height:1.25;font-family:VomZom;-inkscape-font-specification:'VomZom Bold';letter-spacing:0px;word-spacing:0px;clip-rule:evenodd;fill:#00222b;fill-opacity:1;fill-rule:evenodd;stroke:none;stroke-width:0.0236513;stroke-miterlimit:4;stroke-dasharray:none;stroke-opacity:1;image-rendering:optimizeQuality;shape-rendering:geometricPrecision;text-rendering:geometricPrecision" /><path
     id="path910"
     d="m 5.4883325,-0.40107029 c 0.00438,0.0233157 0.011127,0.0458572 0.020741,0.0674893 0.018289,0.0391043 0.042866,0.0735088 0.073772,0.10315072 0.030903,0.0290125 0.066526,0.0520311 0.1068926,0.06906 0.040365,0.0163991 0.083286,0.0245751 0.1286962,0.0245751 0.039736,0 0.078183,-0.006911 0.1153921,-0.0207873 0.037841,-0.0145041 0.07317,-0.0381552 0.1059688,-0.0709538 L 5.9234325,-0.34397473 c -0.013243,0.0126175 -0.02901,0.0242948 -0.047302,0.035015 -0.018292,0.0100906 -0.037515,0.0151517 -0.057696,0.0151517 -0.025857,0 -0.049215,-0.004426 -0.07003,-0.0132577 -0.020815,-0.009461 -0.038478,-0.0217731 -0.052984,-0.036909 -0.014506,-0.0151399 -0.025848,-0.0328031 -0.034045,-0.0529843 -5.061e-4,-0.00135 -8.68e-4,-0.002751 -0.00134,-0.004111 z"
     style="font-style:normal;font-variant:normal;font-weight:bold;font-stretch:normal;font-size:1.4926px;line-height:1.25;font-family:VomZom;-inkscape-font-specification:'VomZom Bold';letter-spacing:0px;word-spacing:0px;clip-rule:evenodd;fill:#00222b;fill-opacity:1;fill-rule:evenodd;stroke:none;stroke-width:0.0236513;stroke-miterlimit:4;stroke-dasharray:none;stroke-opacity:1;image-rendering:optimizeQuality;shape-rendering:geometricPrecision;text-rendering:geometricPrecision" /><path
     id="path908"
     d="m 4.7640127,-0.40107029 c 0.00438,0.0233157 0.011127,0.0458572 0.020741,0.0674893 0.018289,0.0391043 0.042866,0.0735088 0.073772,0.10315072 0.030904,0.0290125 0.066867,0.0520311 0.1078627,0.06906 0.040996,0.0163991 0.084209,0.0245751 0.12962,0.0245751 0.045411,0 0.087653,-0.008176 0.1267559,-0.0245751 0.039734,-0.0170289 0.074092,-0.0400475 0.1031048,-0.06906 0.029642,-0.0296433 0.05266,-0.0640478 0.06906,-0.10315072 0.00927,-0.0216326 0.015778,-0.0441744 0.020002,-0.0674893 H 5.24138 c -5.605e-4,0.001686 -0.00101,0.003406 -0.00162,0.005081 -0.00757,0.0201854 -0.018274,0.0378486 -0.032151,0.0529845 -0.013872,0.0151359 -0.030275,0.0274016 -0.049197,0.0368626 -0.018922,0.008831 -0.039704,0.0132577 -0.062408,0.0132577 -0.022704,0 -0.044503,-0.004426 -0.065318,-0.0132577 -0.020185,-0.009461 -0.038143,-0.0217268 -0.053908,-0.0368626 -0.015136,-0.0151401 -0.027448,-0.0328034 -0.036909,-0.0529845 -7.096e-4,-0.001672 -0.00119,-0.003396 -0.00185,-0.005081 z"
     style="font-style:normal;font-variant:normal;font-weight:bold;font-stretch:normal;font-size:1.4926px;line-height:1.25;font-family:VomZom;-inkscape-font-specification:'VomZom Bold';letter-spacing:0px;word-spacing:0px;clip-rule:evenodd;fill:#00222b;fill-opacity:1;fill-rule:evenodd;stroke:none;stroke-width:0.0236513;stroke-miterlimit:4;stroke-dasharray:none;stroke-opacity:1;image-rendering:optimizeQuality;shape-rendering:geometricPrecision;text-rendering:geometricPrecision" /><path
     id="path906"
     d="m 4.5402034,-0.40107029 v 0.26427516 h 0.1560891 v -0.26427516 z"
     style="font-style:normal;font-variant:normal;font-weight:bold;font-stretch:normal;font-size:1.4926px;line-height:1.25;font-family:VomZom;-inkscape-font-specification:'VomZom Bold';letter-spacing:0px;word-spacing:0px;clip-rule:evenodd;fill:#00222b;fill-opacity:1;fill-rule:evenodd;stroke:none;stroke-width:0.0236513;stroke-miterlimit:4;stroke-dasharray:none;stroke-opacity:1;image-rendering:optimizeQuality;shape-rendering:geometricPrecision;text-rendering:geometricPrecision" /><path
     id="path904"
     d="m 3.8158836,-0.40107029 v 0.2731905 h 0.1674528 v -0.047672 c 0.027119,0.0126132 0.053934,0.0223486 0.080424,0.0292869 0.027122,0.006309 0.057099,0.00947 0.089893,0.00947 0.045411,0 0.087653,-0.008176 0.1267559,-0.0245751 0.039734,-0.0170289 0.074092,-0.0400475 0.1031048,-0.06906 0.029642,-0.0296445 0.05266,-0.0643421 0.06906,-0.10407477 0.00915,-0.0213517 0.015676,-0.0435744 0.01991,-0.0665653 H 4.2987018 c -4.612e-4,0.001365 -7.994e-4,0.002754 -0.00129,0.004111 -0.00757,0.0201811 -0.018274,0.0381847 -0.032151,0.0539544 -0.013872,0.0151359 -0.030275,0.0274016 -0.049197,0.0368626 -0.018922,0.008831 -0.039704,0.0132577 -0.062408,0.0132577 -0.022703,0 -0.044503,-0.004426 -0.065318,-0.0132577 -0.020815,-0.009461 -0.039067,-0.0217268 -0.054832,-0.0368626 -0.015136,-0.0157697 -0.027448,-0.0337733 -0.036909,-0.0539544 -5.77e-4,-0.00136 -9.862e-4,-0.002744 -0.00152,-0.004111 z"
     style="font-style:normal;font-variant:normal;font-weight:bold;font-stretch:normal;font-size:1.4926px;line-height:1.25;font-family:VomZom;-inkscape-font-specification:'VomZom Bold';letter-spacing:0px;word-spacing:0px;clip-rule:evenodd;fill:#00222b;fill-opacity:1;fill-rule:evenodd;stroke:none;stroke-width:0.0236513;stroke-miterlimit:4;stroke-dasharray:none;stroke-opacity:1;image-rendering:optimizeQuality;shape-rendering:geometricPrecision;text-rendering:geometricPrecision" /><path
     id="path902"
     d="m 5.7007316,0.02189761 c -0.045411,0 -0.087699,0.0091511 -0.1268022,0.02743901 -0.039104,0.01828952 -0.073462,0.04291237 -0.1031046,0.07381794 -0.029013,0.0309037 -0.052031,0.0668205 -0.06906,0.1078164 -0.014541,0.0363501 -0.022281,0.0745549 -0.023929,0.11437608 h 0.1674528 c 0.00133,-0.017102 0.00482,-0.0334637 0.010671,-0.0490579 0.0082,-0.020815 0.019244,-0.0388186 0.033121,-0.0539544 0.013872,-0.0157654 0.030274,-0.0280776 0.049196,-0.036909 0.018922,-0.008831 0.03975,-0.0132114 0.062454,-0.0132114 0.022707,0 0.044121,0.00438 0.064302,0.0132114 0.020815,0.008827 0.038819,0.0211393 0.053954,0.036909 0.015765,0.0151359 0.028031,0.0331394 0.036863,0.0539544 0.00682,0.0155968 0.010968,0.0319564 0.012518,0.0490579 H 6.0386401 C 6.0368024,0.30552637 6.0282057,0.2673213 6.0119863,0.23097097 5.9936971,0.18997672 5.969074,0.15405991 5.9381684,0.12315457 5.9072652,0.09225207 5.8713018,0.06762898 5.8303059,0.04933663 5.7893102,0.03104876 5.7461424,0.02189762 5.7007316,0.02189761 Z"
     style="font-style:normal;font-variant:normal;font-weight:bold;font-stretch:normal;font-size:1.4926px;line-height:1.25;font-family:VomZom;-inkscape-font-specification:'VomZom Bold';letter-spacing:0px;word-spacing:0px;clip-rule:evenodd;fill:#25717a;fill-opacity:1;fill-rule:evenodd;stroke:none;stroke-width:0.0236513;stroke-miterlimit:4;stroke-dasharray:none;stroke-opacity:1;image-rendering:optimizeQuality;shape-rendering:geometricPrecision;text-rendering:geometricPrecision" /><path
     id="path900"
     d="M 5.1591085,0.02189761 V 0.34534705 H 5.3152441 V 0.02189762 Z"
     style="font-style:normal;font-variant:normal;font-weight:bold;font-stretch:normal;font-size:1.4926px;line-height:1.25;font-family:VomZom;-inkscape-font-specification:'VomZom Bold';letter-spacing:0px;word-spacing:0px;clip-rule:evenodd;fill:#25717a;fill-opacity:1;fill-rule:evenodd;stroke:none;stroke-width:0.0236513;stroke-miterlimit:4;stroke-dasharray:none;stroke-opacity:1;image-rendering:optimizeQuality;shape-rendering:geometricPrecision;text-rendering:geometricPrecision" /><path
     id="path898"
     d="m 5.0967935,0.02189761 c -0.045412,0 -0.087994,0.0091511 -0.127726,0.02743901 -0.039735,0.01828952 -0.074433,0.04291237 -0.104075,0.07381794 -0.029012,0.0309037 -0.052031,0.0668205 -0.06906,0.1078164 -0.015213,0.036062 -0.02323,0.074287 -0.024852,0.11437608 H 4.940381 c 0.00127,-0.0174487 0.00476,-0.0341444 0.010717,-0.0500279 0.0082,-0.0201854 0.019244,-0.0381429 0.033121,-0.0539083 0.013872,-0.0157654 0.030275,-0.0280776 0.049197,-0.036909 0.019554,-0.009461 0.040674,-0.0141815 0.063378,-0.0141815 z"
     style="font-style:normal;font-variant:normal;font-weight:bold;font-stretch:normal;font-size:1.4926px;line-height:1.25;font-family:VomZom;-inkscape-font-specification:'VomZom Bold';letter-spacing:0px;word-spacing:0px;clip-rule:evenodd;fill:#25717a;fill-opacity:1;fill-rule:evenodd;stroke:none;stroke-width:0.0236513;stroke-miterlimit:4;stroke-dasharray:none;stroke-opacity:1;image-rendering:optimizeQuality;shape-rendering:geometricPrecision;text-rendering:geometricPrecision" /><path
     id="path896"
     d="m 4.2163846,0.02189761 c -0.04541,0 -0.088624,0.0091511 -0.12962,0.02743901 -0.040995,0.0176585 -0.076957,0.04194243 -0.1078628,0.07284777 -0.030902,0.0309044 -0.055479,0.0668666 -0.073772,0.10786275 -0.015781,0.0366375 -0.024145,0.0751363 -0.025822,0.1152999 h 0.1684229 c 0.00148,-0.0174492 0.00561,-0.0341439 0.012565,-0.0500279 0.00946,-0.020815 0.021727,-0.0387725 0.036863,-0.0539083 0.01577,-0.0157654 0.033773,-0.0280776 0.053954,-0.036909 0.020815,-0.009461 0.042568,-0.0141815 0.065272,-0.0141815 0.022704,0 0.043486,0.004721 0.062408,0.0141815 0.018922,0.008831 0.03532,0.0211435 0.049197,0.036909 0.013876,0.0151359 0.024629,0.0330933 0.032197,0.0539083 0.00596,0.0158858 0.00945,0.0325806 0.010717,0.0500279 H 4.5402034 C 4.5385857,0.30518366 4.5305237,0.26668508 4.515305,0.23004715 4.4989062,0.18905242 4.4758871,0.15308997 4.4462453,0.1221844 4.4172311,0.09127906 4.3828731,0.06699513 4.3431404,0.04933663 4.3040371,0.03104876 4.261795,0.02189762 4.2163846,0.02189761 Z"
     style="font-style:normal;font-variant:normal;font-weight:bold;font-stretch:normal;font-size:1.4926px;line-height:1.25;font-family:VomZom;-inkscape-font-specification:'VomZom Bold';letter-spacing:0px;word-spacing:0px;clip-rule:evenodd;fill:#25717a;fill-opacity:1;fill-rule:evenodd;stroke:none;stroke-width:0.0236513;stroke-miterlimit:4;stroke-dasharray:none;stroke-opacity:1;image-rendering:optimizeQuality;shape-rendering:geometricPrecision;text-rendering:geometricPrecision" /><path
     id="path894"
     d="m 3.5693471,0.02189761 c -0.045412,0 -0.087994,0.0091511 -0.1277262,0.02743901 -0.039734,0.0176585 -0.074092,0.04194243 -0.1031046,0.07284777 -0.029012,0.0309044 -0.052031,0.0668666 -0.06906,0.10786275 -0.014656,0.0366377 -0.022417,0.075136 -0.023975,0.1152999 h 0.1693466 c 0.00127,-0.0174487 0.00476,-0.0341444 0.010717,-0.0500279 0.00757,-0.0201854 0.018274,-0.0378486 0.032151,-0.0529845 0.013877,-0.0157654 0.030274,-0.0280776 0.049196,-0.036909 0.018922,-0.009461 0.03975,-0.0141815 0.062454,-0.0141815 0.025856,0 0.049215,0.00409 0.07003,0.0122878 0.020811,0.007568 0.040668,0.0205104 0.05959,0.0388027 L 3.8162533,0.12597239 C 3.7840878,0.09380856 3.7462737,0.06859916 3.7027549,0.0503068 3.6598676,0.03138485 3.6153878,0.02189762 3.5693471,0.02189761 Z"
     style="font-style:normal;font-variant:normal;font-weight:bold;font-stretch:normal;font-size:1.4926px;line-height:1.25;font-family:VomZom;-inkscape-font-specification:'VomZom Bold';letter-spacing:0px;word-spacing:0px;clip-rule:evenodd;fill:#25717a;fill-opacity:1;fill-rule:evenodd;stroke:none;stroke-width:0.0236513;stroke-miterlimit:4;stroke-dasharray:none;stroke-opacity:1;image-rendering:optimizeQuality;shape-rendering:geometricPrecision;text-rendering:geometricPrecision" /><path
     id="path892"
     d="m 6.4260679,-0.79903042 c -0.045412,0 -0.087993,0.009151 -0.1277261,0.027439 -0.039734,0.0176585 -0.074092,0.0419424 -0.1031045,0.0728478 -0.029013,0.0309044 -0.052031,0.0668666 -0.06906,0.10786275 -0.014656,0.0366377 -0.022417,0.075136 -0.023975,0.1152999 h 0.1693466 c 0.00127,-0.0174487 0.00476,-0.0341444 0.010717,-0.0500279 0.00757,-0.0201854 0.018274,-0.0378486 0.032151,-0.0529845 0.013872,-0.0157654 0.030274,-0.0280776 0.049196,-0.036909 0.018922,-0.009461 0.039751,-0.0141815 0.062454,-0.0141815 0.025857,0 0.049215,0.00409 0.07003,0.0122878 0.020811,0.007568 0.040668,0.0205104 0.05959,0.0388027 l 0.1172874,-0.11636225 c -0.032165,-0.0321638 -0.06998,-0.0573732 -0.1134984,-0.0756656 -0.042888,-0.018922 -0.087367,-0.0284092 -0.133408,-0.0284092 z"
     style="font-style:normal;font-variant:normal;font-weight:bold;font-stretch:normal;font-size:1.4926px;line-height:1.25;font-family:VomZom;-inkscape-font-specification:'VomZom Bold';letter-spacing:0px;word-spacing:0px;clip-rule:evenodd;fill:#25717a;fill-opacity:1;fill-rule:evenodd;stroke:none;stroke-width:0.0236513;stroke-miterlimit:4;stroke-dasharray:none;stroke-opacity:1;image-rendering:optimizeQuality;shape-rendering:geometricPrecision;text-rendering:geometricPrecision" /><path
     id="path890"
     d="m 5.4825583,-0.79903042 v 0.32344944 h 0.3358756 v -0.15313269 h -0.168423 v -0.17031674 z"
     style="font-style:normal;font-variant:normal;font-weight:bold;font-stretch:normal;font-size:1.4926px;line-height:1.25;font-family:VomZom;-inkscape-font-specification:'VomZom Bold';letter-spacing:0px;word-spacing:0px;clip-rule:evenodd;fill:#25717a;fill-opacity:1;fill-rule:evenodd;stroke:none;stroke-width:0.0236513;stroke-miterlimit:4;stroke-dasharray:none;stroke-opacity:1;image-rendering:optimizeQuality;shape-rendering:geometricPrecision;text-rendering:geometricPrecision" /><path
     id="path888"
     d="m 5.096008,-0.79903042 c -0.04541,0 -0.088624,0.009151 -0.12962,0.027439 -0.040995,0.0176585 -0.076957,0.0419424 -0.1078627,0.0728478 -0.030903,0.0309044 -0.055479,0.0668666 -0.073772,0.10786275 -0.015781,0.0366375 -0.024145,0.0751363 -0.025822,0.1152999 h 0.1684229 c 0.00148,-0.0174492 0.00557,-0.0341439 0.012518,-0.0500279 0.00946,-0.020815 0.021773,-0.0387725 0.036909,-0.0539083 0.01577,-0.0157654 0.033727,-0.0280776 0.053908,-0.036909 0.020815,-0.009461 0.042614,-0.0141815 0.065318,-0.0141815 0.022704,0 0.043486,0.004721 0.062408,0.0141815 0.018918,0.008831 0.03532,0.0211435 0.049196,0.036909 0.013877,0.0151359 0.024583,0.0330933 0.032151,0.0539083 0.00596,0.0158858 0.0095,0.0325803 0.010763,0.0500279 h 0.1693017 c -0.00162,-0.0401634 -0.00968,-0.078662 -0.024898,-0.1152999 -0.0164,-0.0409947 -0.039418,-0.0769572 -0.06906,-0.10786274 -0.029014,-0.0309053 -0.063372,-0.0551893 -0.1031048,-0.0728478 -0.039103,-0.0182879 -0.081345,-0.027439 -0.1267561,-0.027439 z"
     style="font-style:normal;font-variant:normal;font-weight:bold;font-stretch:normal;font-size:1.4926px;line-height:1.25;font-family:VomZom;-inkscape-font-specification:'VomZom Bold';letter-spacing:0px;word-spacing:0px;clip-rule:evenodd;fill:#25717a;fill-opacity:1;fill-rule:evenodd;stroke:none;stroke-width:0.0236513;stroke-miterlimit:4;stroke-dasharray:none;stroke-opacity:1;image-rendering:optimizeQuality;shape-rendering:geometricPrecision;text-rendering:geometricPrecision" /><path
     id="path886"
     d="m 4.5402034,-0.79903042 v 0.32344944 h 0.1560891 v -0.32344943 z"
     style="font-style:normal;font-variant:normal;font-weight:bold;font-stretch:normal;font-size:1.4926px;line-height:1.25;font-family:VomZom;-inkscape-font-specification:'VomZom Bold';letter-spacing:0px;word-spacing:0px;clip-rule:evenodd;fill:#25717a;fill-opacity:1;fill-rule:evenodd;stroke:none;stroke-width:0.0236513;stroke-miterlimit:4;stroke-dasharray:none;stroke-opacity:1;image-rendering:optimizeQuality;shape-rendering:geometricPrecision;text-rendering:geometricPrecision" /><path
     id="path884"
     d="m 4.1536532,-0.79903042 c -0.04541,0 -0.088624,0.009151 -0.1296201,0.027439 -0.040995,0.0182895 -0.076957,0.0429124 -0.1078627,0.073818 -0.030272,0.0309037 -0.054555,0.0668205 -0.072848,0.1078164 -0.016452,0.0363033 -0.025091,0.0745022 -0.026746,0.11437608 h 0.1674067 c 0.00141,-0.0177848 0.00554,-0.0347872 0.012611,-0.0509519 0.00946,-0.0208148 0.021773,-0.0388186 0.036909,-0.0539544 0.015766,-0.0151359 0.034017,-0.0271074 0.054832,-0.0359388 0.020815,-0.009461 0.042614,-0.0141815 0.065318,-0.0141815 0.022703,0 0.043486,0.004721 0.062408,0.0141815 0.018918,0.008831 0.03532,0.0208029 0.049196,0.0359388 0.013876,0.0151401 0.024583,0.0331437 0.032151,0.0539544 0.00606,0.0161668 0.0096,0.0331688 0.010809,0.0509519 H 4.477472 c -0.00154,-0.0398729 -0.00958,-0.0780719 -0.024898,-0.11437608 -0.016399,-0.0409943 -0.039418,-0.0769111 -0.06906,-0.1078164 -0.029014,-0.0309025 -0.063372,-0.0555256 -0.1031048,-0.0738179 -0.039103,-0.0182879 -0.081345,-0.027439 -0.126756,-0.0274391 z"
     style="font-style:normal;font-variant:normal;font-weight:bold;font-stretch:normal;font-size:1.4926px;line-height:1.25;font-family:VomZom;-inkscape-font-specification:'VomZom Bold';letter-spacing:0px;word-spacing:0px;clip-rule:evenodd;fill:#25717a;fill-opacity:1;fill-rule:evenodd;stroke:none;stroke-width:0.0236513;stroke-miterlimit:4;stroke-dasharray:none;stroke-opacity:1;image-rendering:optimizeQuality;shape-rendering:geometricPrecision;text-rendering:geometricPrecision" /><path
     id="path954"
     d="m 6.1014638,0.01422941 v 0.33111764 h 0.4449857 c -0.017572,-0.0284908 -0.039841,-0.0541614 -0.067489,-0.0765433 0.039733,-0.0258584 0.069077,-0.0605099 0.087999,-0.10402864 0.018922,-0.0435181 0.028363,-0.09208571 0.028363,-0.14569531 H 6.4250518 c 0,0.02333409 -0.0038,0.04538085 -0.011364,0.06619585 -0.00757,0.02081477 -0.018274,0.0391128 -0.032151,0.05487826 -0.013872,0.0151359 -0.030275,0.027448 -0.049196,0.036909 -0.018292,0.008831 -0.038826,0.0132575 -0.06153,0.0132575 v -0.176091 z"
     style="font-style:normal;font-variant:normal;font-weight:bold;font-stretch:normal;font-size:1.4926px;line-height:1.25;font-family:VomZom;-inkscape-font-specification:'VomZom Bold';letter-spacing:0px;word-spacing:0px;clip-rule:evenodd;fill:#25717a;fill-opacity:1;fill-rule:evenodd;stroke:none;stroke-width:0.0236513;stroke-miterlimit:4;stroke-dasharray:none;stroke-opacity:1;image-rendering:optimizeQuality;shape-rendering:geometricPrecision;text-rendering:geometricPrecision" /></g></svg>
