<?xml version="1.0" encoding="UTF-8" standalone="no"?>
<svg
   xmlns:dc="http://purl.org/dc/elements/1.1/"
   xmlns:cc="http://creativecommons.org/ns#"
   xmlns:rdf="http://www.w3.org/1999/02/22-rdf-syntax-ns#"
   xmlns:svg="http://www.w3.org/2000/svg"
   xmlns="http://www.w3.org/2000/svg"
   xmlns:sodipodi="http://sodipodi.sourceforge.net/DTD/sodipodi-0.dtd"
   xmlns:inkscape="http://www.inkscape.org/namespaces/inkscape"
   xml:space="preserve"
   width="177"
   height="33"
   style="clip-rule:evenodd;fill-rule:evenodd;image-rendering:optimizeQuality;shape-rendering:geometricPrecision;text-rendering:geometricPrecision"
   viewBox="0 0 6.6047392 1.2284297"
   version="1.1"
   id="svg24"
   sodipodi:docname="logo_rozne.svg"
   inkscape:version="1.0 (4035a4fb49, 2020-05-01)"><metadata
   id="metadata28"><rdf:RDF><cc:Work
       rdf:about=""><dc:format>image/svg+xml</dc:format><dc:type
         rdf:resource="http://purl.org/dc/dcmitype/StillImage" /><dc:title /></cc:Work></rdf:RDF></metadata><sodipodi:namedview
   inkscape:document-rotation="0"
   pagecolor="#ffffff"
   bordercolor="#666666"
   borderopacity="1"
   objecttolerance="10"
   gridtolerance="10"
   guidetolerance="10"
   inkscape:pageopacity="0"
   inkscape:pageshadow="2"
   inkscape:window-width="1920"
   inkscape:window-height="986"
   id="namedview26"
   showgrid="false"
   inkscape:zoom="2.5427879"
   inkscape:cx="121.4308"
   inkscape:cy="-0.45167964"
   inkscape:window-x="-11"
   inkscape:window-y="-11"
   inkscape:window-maximized="1"
   inkscape:current-layer="svg24"
   showguides="true"
   inkscape:guide-bbox="true"><sodipodi:guide
     position="1.6291344,2.1212629"
     orientation="0,-1"
     id="guide931" /><sodipodi:guide
     position="1.8989274,3.8267037"
     orientation="1,0"
     id="guide1051" /><sodipodi:guide
     position="0.46176104,3.6830741"
     orientation="0,-1"
     id="guide1139" /></sodipodi:namedview>
 <defs
   id="defs4">
  <style
   type="text/css"
   id="style2">
   <![CDATA[
    .fil1 {fill:#5B5B5B}
    .fil0 {fill:black;fill-rule:nonzero}
    .fil2 {fill:#FEFEFE;fill-rule:nonzero}
   ]]>
  </style>
 </defs>
 
<g
   transform="translate(-4.4914295,2.0251228)"
   id="g1015"><g
     style="font-style:normal;font-variant:normal;font-weight:bold;font-stretch:normal;font-size:1.4926px;line-height:1.25;font-family:VomZom;-inkscape-font-specification:'VomZom Bold';letter-spacing:0px;word-spacing:0px;clip-rule:evenodd;fill:#00222b;fill-opacity:1;fill-rule:evenodd;stroke:none;stroke-width:0.0373149;stroke-miterlimit:4;stroke-dasharray:none;stroke-opacity:1;image-rendering:optimizeQuality;shape-rendering:geometricPrecision;text-rendering:geometricPrecision"
     id="text895"
     aria-label="piotr rosiak"
     transform="matrix(0.63382868,0,0,0.63382868,0.41219989,-6.3182938)"><path
       transform="matrix(0.03731491,0,0,0.03731491,0,-0.00314187)"
       d="m 527.91992,280.16211 v 14 h 18.81446 c -0.74295,-1.20462 -1.68453,-2.29 -2.85352,-3.23633 1.67997,-1.09332 2.92066,-2.55842 3.7207,-4.39844 0.80004,-1.83999 1.19922,-3.89348 1.19922,-6.16015 h -7.19922 c 0,0.98659 -0.16049,1.91875 -0.48047,2.79883 -0.31998,0.88007 -0.77265,1.65373 -1.35937,2.32031 -0.58654,0.63996 -1.28004,1.16053 -2.08008,1.56055 -0.77342,0.37337 -1.64162,0.56054 -2.60156,0.56054 v -7.44531 z m -243.29687,0.32422 c -1.91999,0 -3.74712,0.38692 -5.48047,1.16015 -1.73329,0.7733 -3.25383,1.81438 -4.56055,3.1211 -1.27993,1.30664 -2.30666,2.82524 -3.08008,4.55859 -0.69559,1.53494 -1.06086,3.15003 -1.13086,4.83594 h 7.07813 c 0.0595,-0.75196 0.23412,-1.47084 0.5332,-2.1543 0.40002,-0.88007 0.92059,-1.64129 1.56055,-2.28125 0.66658,-0.63996 1.43828,-1.14613 2.31836,-1.51953 0.88006,-0.40002 1.80178,-0.59961 2.76172,-0.59961 0.95993,0 1.83863,0.19959 2.63867,0.59961 0.79986,0.3734 1.49336,0.87957 2.08008,1.51953 0.58671,0.64014 1.03939,1.40135 1.35937,2.28125 0.25629,0.68355 0.40602,1.40241 0.45703,2.1543 h 7.15625 c -0.0652,-1.68587 -0.40519,-3.30096 -1.05273,-4.83594 -0.69338,-1.73328 -1.66663,-3.25188 -2.91992,-4.55859 -1.22675,-1.30659 -2.67944,-2.34768 -4.35938,-3.1211 -1.65333,-0.77323 -3.43937,-1.16015 -5.35937,-1.16015 z m 16.34375,0 v 13.67578 h 6.59961 v -13.67578 z m 23.5,0 c -1.92,0 -3.74712,0.38692 -5.48047,1.16015 -1.73329,0.74662 -3.25383,1.77337 -4.56055,3.08008 -1.30659,1.30667 -2.34572,2.82719 -3.11914,4.56055 -0.66725,1.54907 -1.02086,3.17684 -1.0918,4.875 h 7.1211 c 0.0626,-0.73777 0.23539,-1.44364 0.52929,-2.11523 0.40002,-0.88008 0.92059,-1.63934 1.56055,-2.2793 0.66676,-0.66658 1.42602,-1.18715 2.2793,-1.56055 0.88008,-0.40002 1.80178,-0.59961 2.76172,-0.59961 0.95993,0 1.83863,0.19959 2.63867,0.59961 0.79986,0.3734 1.49336,0.89397 2.08008,1.56055 0.58671,0.63996 1.03939,1.39922 1.35937,2.2793 0.25185,0.67167 0.40146,1.37753 0.45508,2.11523 h 7.1582 c -0.0684,-1.69815 -0.40927,-3.32591 -1.05273,-4.875 -0.69338,-1.7333 -1.66663,-3.25383 -2.91992,-4.56055 -1.22673,-1.30671 -2.67944,-2.33346 -4.35938,-3.08008 -1.65333,-0.77323 -3.43937,-1.16015 -5.35937,-1.16015 z m 16.34375,0 v 13.67578 h 14.20117 v -6.47461 h -7.1211 v -7.20117 z m 39.89257,0 c -1.92005,0 -3.72045,0.38692 -5.40039,1.16015 -1.68,0.74662 -3.13269,1.77337 -4.35937,3.08008 -1.22668,1.30667 -2.19992,2.82719 -2.91992,4.56055 -0.61967,1.54908 -0.9478,3.17683 -1.01367,4.875 h 7.16015 c 0.0536,-0.73775 0.20128,-1.44366 0.45313,-2.11523 0.31998,-0.85346 0.77265,-1.60028 1.35937,-2.24024 0.58654,-0.66658 1.28004,-1.18715 2.08008,-1.56055 0.80004,-0.40002 1.68071,-0.59961 2.64062,-0.59961 1.09326,0 2.08087,0.17294 2.96094,0.51954 0.8799,0.31997 1.7195,0.8672 2.51953,1.64062 l 4.95899,-4.91992 c -1.35999,-1.35992 -2.95881,-2.4258 -4.79883,-3.19922 -1.81334,-0.80004 -3.69397,-1.20117 -5.64063,-1.20117 z m 40.15626,0 c -1.92008,0 -3.72046,0.38692 -5.4004,1.16015 -1.68,0.74662 -3.13269,1.77337 -4.35937,3.08008 -1.22666,1.30667 -2.19992,2.82719 -2.91992,4.56055 -0.61967,1.54908 -0.9478,3.17683 -1.01367,4.875 h 7.16015 c 0.0536,-0.73775 0.20128,-1.44366 0.45313,-2.11523 0.31998,-0.85346 0.77265,-1.60028 1.35937,-2.24024 0.58672,-0.66658 1.28004,-1.18715 2.08008,-1.56055 0.80004,-0.40002 1.68069,-0.59961 2.64063,-0.59961 1.09323,0 2.08086,0.17294 2.96093,0.51954 0.8799,0.31997 1.7195,0.8672 2.51953,1.64062 l 4.95899,-4.91992 c -1.35999,-1.35992 -2.95881,-2.4258 -4.79883,-3.19922 -1.81332,-0.80004 -3.69397,-1.20117 -5.64062,-1.20117 z m 27.35742,0 c -1.91999,0 -3.74712,0.38692 -5.48047,1.16015 -1.7333,0.74662 -3.25383,1.77337 -4.56055,3.08008 -1.30659,1.30667 -2.34572,2.82719 -3.11914,4.56055 -0.66725,1.54907 -1.02086,3.17684 -1.0918,4.875 h 7.1211 c 0.0626,-0.73777 0.23735,-1.44364 0.53125,-2.11523 0.40002,-0.88008 0.91863,-1.63934 1.55859,-2.2793 0.66676,-0.66658 1.42797,-1.18715 2.28125,-1.56055 0.88008,-0.40002 1.79983,-0.59961 2.75977,-0.59961 0.95993,0 1.83863,0.19959 2.63867,0.59961 0.80004,0.3734 1.49336,0.89397 2.08008,1.56055 0.58671,0.63996 1.04135,1.39922 1.36133,2.2793 0.25182,0.67167 0.3995,1.37754 0.45312,2.11523 h 7.1582 c -0.0684,-1.69815 -0.40927,-3.32591 -1.05273,-4.875 -0.69336,-1.7333 -1.66663,-3.25383 -2.91992,-4.56055 -1.22675,-1.30671 -2.67944,-2.33346 -4.35938,-3.08008 -1.65333,-0.77323 -3.43937,-1.16015 -5.35937,-1.16015 z m 37.22461,0 c -1.92008,0 -3.72046,0.38692 -5.40039,1.16015 -1.68005,0.7733 -3.1471,1.81438 -4.4004,3.1211 -1.22665,1.30664 -2.19992,2.82524 -2.91992,4.55859 -0.64324,1.52474 -0.98221,3.14093 -1.05078,4.83594 h 7.1582 c 0.0536,-0.73775 0.20128,-1.44366 0.45313,-2.11523 0.3466,-0.85346 0.81367,-1.61272 1.40039,-2.2793 0.58654,-0.66658 1.28004,-1.18715 2.08008,-1.56055 0.82675,-0.40002 1.71975,-0.59961 2.67969,-0.59961 z m 2.63476,0 v 13.67578 h 6.60156 v -13.67578 z m 22.90039,0 c -1.92003,0 -3.70801,0.38692 -5.36133,1.16015 -1.65337,0.7733 -3.10607,1.81438 -4.35937,3.1211 -1.22668,1.30664 -2.19992,2.82524 -2.91992,4.55859 -0.61481,1.53692 -0.94205,3.15226 -1.01172,4.83594 h 7.08008 c 0.0562,-0.72309 0.20392,-1.41488 0.45117,-2.07422 0.3466,-0.88008 0.81367,-1.64129 1.40039,-2.28125 0.58654,-0.66658 1.28004,-1.18715 2.08008,-1.56055 0.80004,-0.37339 1.68068,-0.55859 2.64062,-0.55859 0.96007,0 1.86547,0.1852 2.71875,0.55859 0.88008,0.37322 1.64129,0.89379 2.28125,1.56055 0.66658,0.63996 1.1852,1.40117 1.5586,2.28125 0.28854,0.65945 0.46372,1.35115 0.52929,2.07422 h 7.19922 c -0.0777,-1.68366 -0.44118,-3.29901 -1.12695,-4.83594 -0.77329,-1.73328 -1.81438,-3.25188 -3.1211,-4.55859 -1.30662,-1.30659 -2.82719,-2.34768 -4.56054,-3.1211 -1.73334,-0.77323 -3.55852,-1.16015 -5.47852,-1.16015 z M 270.3418,297.3125 v 11.55078 h 7.08008 v -2.01562 c 1.14663,0.5333 2.28037,0.94492 3.40039,1.23828 1.14676,0.26674 2.4142,0.40039 3.80078,0.40039 1.92002,0 3.70606,-0.34569 5.35937,-1.03906 1.68001,-0.72 3.1327,-1.69325 4.35938,-2.91993 1.25329,-1.2534 2.22654,-2.72045 2.91992,-4.40039 0.3869,-0.90277 0.6628,-1.84237 0.8418,-2.81445 h -7.34766 c -0.0195,0.0577 -0.0338,0.11644 -0.0547,0.17383 -0.31998,0.85328 -0.77266,1.61449 -1.35937,2.28125 -0.58654,0.63996 -1.28004,1.15857 -2.08008,1.55859 -0.80004,0.3734 -1.67874,0.56055 -2.63867,0.56055 -0.95992,0 -1.88164,-0.18715 -2.76172,-0.56055 -0.88008,-0.40002 -1.65178,-0.91863 -2.31836,-1.55859 -0.63996,-0.66676 -1.16053,-1.42797 -1.56055,-2.28125 -0.0244,-0.0575 -0.0417,-0.11604 -0.0644,-0.17383 z m 30.625,0 v 11.17383 h 6.59961 V 297.3125 Z m 9.46289,0 c 0.18518,0.98581 0.47046,1.93889 0.87695,2.85352 0.77329,1.65337 1.81243,3.10803 3.11914,4.36132 1.30665,1.22668 2.82719,2.19993 4.56055,2.91993 1.73334,0.69337 3.56045,1.03906 5.48047,1.03906 1.92002,0 3.70606,-0.34569 5.35937,-1.03906 1.67999,-0.72 3.1327,-1.69325 4.35938,-2.91993 1.25329,-1.25335 2.22654,-2.70801 2.91992,-4.36132 0.39199,-0.91465 0.66712,-1.86774 0.8457,-2.85352 h -7.33789 c -0.0237,0.0713 -0.0426,0.14403 -0.0684,0.21484 -0.31998,0.85346 -0.77266,1.60028 -1.35937,2.24024 -0.58654,0.63996 -1.28004,1.15857 -2.08008,1.55859 -0.80004,0.3734 -1.67874,0.56055 -2.63867,0.56055 -0.95994,0 -1.88164,-0.18715 -2.76172,-0.56055 -0.85346,-0.40002 -1.61272,-0.91863 -2.2793,-1.55859 -0.63996,-0.64014 -1.16053,-1.38696 -1.56055,-2.24024 -0.03,-0.0707 -0.0505,-0.1436 -0.0781,-0.21484 z m 30.625,0 c 0.18518,0.98581 0.47046,1.93889 0.87695,2.85352 0.77329,1.65337 1.81243,3.10803 3.11914,4.36132 1.30661,1.22668 2.8128,2.19993 4.51953,2.91993 1.70667,0.69337 3.52141,1.03906 5.44141,1.03906 1.68006,0 3.30565,-0.29219 4.8789,-0.87891 1.59994,-0.61325 3.09372,-1.61324 4.48047,-3 l -4.91992,-4.88086 c -0.55992,0.53348 -1.22658,1.02721 -2,1.48047 -0.77342,0.42664 -1.58617,0.64063 -2.43945,0.64063 -1.09326,0 -2.08086,-0.18715 -2.96094,-0.56055 -0.88008,-0.40002 -1.62689,-0.92059 -2.24023,-1.56055 -0.61334,-0.64013 -1.09286,-1.38695 -1.43946,-2.24023 -0.0214,-0.0571 -0.0367,-0.11631 -0.0566,-0.17383 z m 25.92773,0 v 11.17383 h 7.16016 V 297.3125 Z m 40.15625,0 v 11.17383 h 7.16016 V 297.3125 Z m 27.04102,0 c 0.18518,0.98581 0.47046,1.93889 0.87695,2.85352 0.77329,1.65337 1.81243,3.10803 3.11914,4.36132 1.30666,1.22668 2.82719,2.19993 4.56055,2.91993 1.73334,0.69337 3.56047,1.03906 5.48047,1.03906 1.92002,0 3.70606,-0.34569 5.35937,-1.03906 1.68001,-0.72 3.1327,-1.69325 4.35938,-2.91993 1.25328,-1.25335 2.22654,-2.70801 2.91992,-4.36132 0.39199,-0.91465 0.66712,-1.86774 0.8457,-2.85352 h -7.33789 c -0.0236,0.0712 -0.0407,0.14415 -0.0664,0.21484 -0.31998,0.85346 -0.77462,1.60028 -1.36133,2.24024 -0.58672,0.63996 -1.28004,1.15857 -2.08008,1.55859 -0.80004,0.3734 -1.67874,0.56055 -2.63867,0.56055 -0.95994,0 -1.87969,-0.18715 -2.75977,-0.56055 -0.85346,-0.40002 -1.61467,-0.91863 -2.28125,-1.55859 -0.63996,-0.64014 -1.15857,-1.38696 -1.55859,-2.24024 -0.0301,-0.0709 -0.0524,-0.14346 -0.0801,-0.21484 z m 36.98047,0 c -0.0276,0.0712 -0.0481,0.14412 -0.0781,0.21484 -0.3734,0.85346 -0.88152,1.61272 -1.52148,2.2793 -0.63996,0.63996 -1.39922,1.14613 -2.2793,1.51953 -0.8534,0.3734 -1.76077,0.56055 -2.7207,0.56055 v 6.59961 c 1.91994,0 3.73467,-0.34569 5.4414,-1.03906 1.73329,-0.72 3.25188,-1.69325 4.5586,-2.91993 1.30673,-1.25335 2.33348,-2.70606 3.08007,-4.35937 0.42111,-0.91471 0.71834,-1.86962 0.91016,-2.85547 z m 16.91601,0 v 11.17383 h 6.60156 V 297.3125 Z m 9.44141,0 c 0.17158,0.99083 0.43671,1.9435 0.81836,2.85352 0.72,1.65337 1.69324,3.10803 2.91992,4.36132 1.25335,1.22668 2.70606,2.19993 4.35937,2.91993 1.65336,0.69337 3.44133,1.03906 5.36133,1.03906 1.43995,0 2.70543,-0.13365 3.79883,-0.40039 1.09333,-0.29336 2.2003,-0.69254 3.32031,-1.19922 v 1.59961 h 7.20118 V 297.3125 h -7.67969 c -0.0283,0.0713 -0.0512,0.1443 -0.082,0.21484 -0.3734,0.85346 -0.89202,1.60028 -1.5586,2.24024 -0.64013,0.63996 -1.40135,1.14613 -2.28125,1.51953 -0.8534,0.3734 -1.75881,0.56055 -2.71875,0.56055 -0.95994,0 -1.84058,-0.18715 -2.64062,-0.56055 -0.79986,-0.3734 -1.49336,-0.87957 -2.08008,-1.51953 -0.58672,-0.64014 -1.05379,-1.38696 -1.40039,-2.24024 -0.0264,-0.0704 -0.0441,-0.1437 -0.0684,-0.21484 z m 30.40234,0 v 11.17383 h 7.16016 V 297.3125 Z m 12.16016,0 c 0.43268,0.55442 0.78247,1.18358 1.04101,1.89453 0.31998,0.85337 0.48047,1.74637 0.48047,2.67969 v 6.59961 h 7.19922 v -6.59961 c 0,-1.61204 -0.22145,-3.1361 -0.65625,-4.57422 z"
       style="font-style:normal;font-variant:normal;font-weight:bold;font-stretch:normal;font-family:VomZom;-inkscape-font-specification:'VomZom Bold';fill:#00222b;stroke:none;stroke-width:1;stroke-miterlimit:4;stroke-dasharray:none;stroke-opacity:1"
       id="path954" /></g><g
     aria-label="DESIGNER"
     transform="matrix(0.43394307,0,0,0.40879723,5.388802,-0.53433)"
     id="text905-0"
     style="font-style:normal;font-variant:normal;font-weight:bold;font-stretch:normal;font-size:0.896348px;line-height:1.35;font-family:Rubik;-inkscape-font-specification:'Rubik Bold';letter-spacing:0.504995px;word-spacing:0px;white-space:pre;inline-size:7.75819;clip-rule:evenodd;fill:#00222b;fill-opacity:1;fill-rule:evenodd;stroke-width:0.0224086;image-rendering:optimizeQuality;shape-rendering:geometricPrecision;text-rendering:geometricPrecision"><path
       d="m 10.750461,4.9914322 q -0.009,0 -0.01434,-0.00538 -0.0054,-0.00538 -0.0054,-0.014342 V 4.3846046 q 0,-0.00896 0.0054,-0.014342 0.0054,-0.00627 0.01434,-0.00627 h 0.190922 q 0.09322,0 0.147001,0.027787 0.05468,0.02689 0.07709,0.079775 0.02331,0.052885 0.0251,0.1344522 8.96e-4,0.02689 8.96e-4,0.070811 0,0.044817 -8.96e-4,0.071708 -0.0018,0.086049 -0.0251,0.1389339 -0.02241,0.051988 -0.07529,0.077982 -0.05288,0.025994 -0.144312,0.025994 z m 0.190922,-0.053781 q 0.07171,0 0.11294,-0.018823 0.04123,-0.01972 0.05916,-0.060952 0.01882,-0.042128 0.02062,-0.1138362 8.96e-4,-0.02689 8.96e-4,-0.067226 0,-0.039439 -8.96e-4,-0.06633 -0.0018,-0.100391 -0.04751,-0.1461047 -0.04482,-0.04661 -0.14969,-0.04661 h -0.14969 v 0.5198818 z"
       style="font-style:normal;font-variant:normal;font-weight:300;font-stretch:normal;font-family:Rubik;-inkscape-font-specification:'Rubik Light';fill:#00222b;fill-opacity:1;stroke-width:0.0224086"
       id="path933" /><path
       d="m 11.862942,4.9914322 q -0.009,0 -0.01434,-0.00538 -0.0054,-0.00538 -0.0054,-0.014342 V 4.3846046 q 0,-0.00896 0.0054,-0.014342 0.0054,-0.00627 0.01434,-0.00627 h 0.349575 q 0.0099,0 0.01524,0.00538 0.0054,0.00538 0.0054,0.015238 v 0.013445 q 0,0.00896 -0.0063,0.014342 -0.0054,0.00538 -0.01434,0.00538 h -0.312825 v 0.2285687 h 0.293106 q 0.0099,0 0.01524,0.00538 0.0054,0.00538 0.0054,0.015238 v 0.013445 q 0,0.00896 -0.0063,0.014342 -0.0054,0.00538 -0.01434,0.00538 h -0.293106 v 0.2375322 h 0.319996 q 0.0099,0 0.01524,0.00538 0.0054,0.00538 0.0054,0.015238 v 0.013445 q 0,0.00896 -0.0063,0.014342 -0.0054,0.00538 -0.01434,0.00538 z"
       style="font-style:normal;font-variant:normal;font-weight:300;font-stretch:normal;font-family:Rubik;-inkscape-font-specification:'Rubik Light';fill:#00222b;fill-opacity:1;stroke-width:0.0224086"
       id="path935" /><path
       d="m 13.066906,5.0003957 q -0.06991,0 -0.121903,-0.022409 -0.05109,-0.023305 -0.07888,-0.060055 -0.02689,-0.03675 -0.02868,-0.078879 0,-0.00717 0.0054,-0.012549 0.0054,-0.00538 0.01344,-0.00538 h 0.01793 q 0.01613,0 0.01972,0.017927 0.0063,0.043025 0.0493,0.075293 0.04303,0.032268 0.123696,0.032268 0.08515,0 0.126385,-0.030476 0.04213,-0.031372 0.04213,-0.086946 0,-0.034061 -0.02062,-0.055574 -0.01972,-0.022409 -0.05826,-0.038543 -0.03854,-0.017031 -0.116525,-0.042128 -0.06902,-0.022409 -0.108459,-0.043921 -0.03854,-0.021512 -0.05737,-0.052885 -0.01882,-0.031372 -0.01882,-0.079775 0,-0.045714 0.0242,-0.082464 0.0251,-0.03675 0.07171,-0.057366 0.04661,-0.021512 0.111147,-0.021512 0.06633,0 0.113836,0.024201 0.04751,0.023305 0.07171,0.060055 0.0242,0.035854 0.02599,0.072604 0,0.00717 -0.0054,0.012549 -0.0045,0.00538 -0.01345,0.00538 h -0.01793 q -0.0063,0 -0.01255,-0.00359 -0.0063,-0.00448 -0.0072,-0.014342 -0.0054,-0.044817 -0.0484,-0.0735 -0.04213,-0.029579 -0.106666,-0.029579 -0.06902,0 -0.110251,0.02689 -0.04034,0.02689 -0.04034,0.080671 0,0.034957 0.01793,0.058263 0.01882,0.022409 0.05557,0.039439 0.03675,0.016134 0.108458,0.039439 0.0735,0.023305 0.114733,0.044817 0.04123,0.021512 0.06185,0.051988 0.02151,0.030476 0.02151,0.078879 0,0.080671 -0.06006,0.1263851 -0.06005,0.044817 -0.164928,0.044817 z"
       style="font-style:normal;font-variant:normal;font-weight:300;font-stretch:normal;font-family:Rubik;-inkscape-font-specification:'Rubik Light';fill:#00222b;fill-opacity:1;stroke-width:0.0224086"
       id="path937" /><path
       d="m 13.946098,4.9914322 q -0.009,0 -0.01434,-0.00538 -0.0054,-0.00538 -0.0054,-0.014342 v -0.588002 q 0,-0.00896 0.0054,-0.014342 0.0054,-0.00538 0.01434,-0.00538 h 0.01703 q 0.009,0 0.01434,0.00538 0.0054,0.00538 0.0054,0.014342 v 0.5880043 q 0,0.00896 -0.0054,0.014342 -0.0054,0.00538 -0.01434,0.00538 z"
       style="font-style:normal;font-variant:normal;font-weight:300;font-stretch:normal;font-family:Rubik;-inkscape-font-specification:'Rubik Light';fill:#00222b;fill-opacity:1;stroke-width:0.0224086"
       id="path939" /><path
       d="m 14.872335,5.0003957 q -0.112044,0 -0.173892,-0.064537 -0.06185,-0.064537 -0.06543,-0.1729951 -8.97e-4,-0.02689 -8.97e-4,-0.085153 0,-0.058263 8.97e-4,-0.085153 0.0036,-0.1084581 0.06543,-0.1729951 0.06185,-0.064537 0.173892,-0.064537 0.07619,0 0.128177,0.028683 0.05199,0.028683 0.07709,0.068123 0.02599,0.038543 0.02779,0.069019 v 0.00179 q 0,0.00717 -0.0054,0.011653 -0.0054,0.00448 -0.01344,0.00448 h -0.01972 q -0.0081,0 -0.01165,-0.00359 -0.0036,-0.00359 -0.0072,-0.014342 -0.01524,-0.047506 -0.05916,-0.079775 -0.04303,-0.032268 -0.116525,-0.032268 -0.08336,0 -0.131764,0.045714 -0.04751,0.045714 -0.05109,0.1425194 -8.97e-4,0.02689 -8.97e-4,0.080671 0,0.053781 8.97e-4,0.080671 0.0036,0.096806 0.05109,0.1425193 0.0484,0.045714 0.131764,0.045714 0.08336,0 0.134452,-0.047506 0.05109,-0.047506 0.05109,-0.1407266 V 4.712668 h -0.155965 q -0.009,0 -0.01434,-0.00538 -0.0054,-0.00627 -0.0054,-0.015238 V 4.679501 q 0,-0.00896 0.0054,-0.014342 0.0054,-0.00627 0.01434,-0.00627 h 0.191819 q 0.0099,0 0.01524,0.00538 0.0054,0.00538 0.0054,0.015238 v 0.078879 q 0,0.071708 -0.02868,0.1263851 -0.02868,0.054677 -0.08336,0.085153 -0.05468,0.030476 -0.12997,0.030476 z"
       style="font-style:normal;font-variant:normal;font-weight:300;font-stretch:normal;font-family:Rubik;-inkscape-font-specification:'Rubik Light';fill:#00222b;fill-opacity:1;stroke-width:0.0224086"
       id="path941" /><path
       d="m 15.777157,4.9914322 q -0.009,0 -0.01434,-0.00538 -0.0054,-0.00538 -0.0054,-0.014342 V 4.3846046 q 0,-0.00896 0.0054,-0.014342 0.0054,-0.00627 0.01434,-0.00627 h 0.01882 q 0.01165,0 0.01882,0.010756 L 16.145556,4.880285 V 4.3846046 q 0,-0.00896 0.0054,-0.014342 0.0054,-0.00627 0.01434,-0.00627 h 0.01613 q 0.0099,0 0.01524,0.00538 0.0054,0.00538 0.0054,0.015238 v 0.5862116 q 0,0.00896 -0.0054,0.015238 -0.0054,0.00538 -0.01434,0.00538 h -0.01972 q -0.01165,0 -0.01882,-0.010756 L 15.813907,4.4769284 v 0.4947841 q 0,0.00896 -0.0063,0.014342 -0.0054,0.00538 -0.01434,0.00538 z"
       style="font-style:normal;font-variant:normal;font-weight:300;font-stretch:normal;font-family:Rubik;-inkscape-font-specification:'Rubik Light';fill:#00222b;fill-opacity:1;stroke-width:0.0224086"
       id="path943" /><path
       d="m 16.89489,4.9914322 q -0.009,0 -0.01434,-0.00538 -0.0054,-0.00538 -0.0054,-0.014342 V 4.3846046 q 0,-0.00896 0.0054,-0.014342 0.0054,-0.00627 0.01434,-0.00627 h 0.349576 q 0.0099,0 0.01524,0.00538 0.0054,0.00538 0.0054,0.015238 v 0.013445 q 0,0.00896 -0.0063,0.014342 -0.0054,0.00538 -0.01434,0.00538 H 16.93164 v 0.2285687 h 0.293106 q 0.0099,0 0.01524,0.00538 0.0054,0.00538 0.0054,0.015238 v 0.013445 q 0,0.00896 -0.0063,0.014342 -0.0054,0.00538 -0.01434,0.00538 H 16.93164 v 0.2375322 h 0.319996 q 0.0099,0 0.01524,0.00538 0.0054,0.00538 0.0054,0.015238 v 0.013445 q 0,0.00896 -0.0063,0.014342 -0.0054,0.00538 -0.01434,0.00538 z"
       style="font-style:normal;font-variant:normal;font-weight:300;font-stretch:normal;font-family:Rubik;-inkscape-font-specification:'Rubik Light';fill:#00222b;fill-opacity:1;stroke-width:0.0224086"
       id="path945" /><path
       d="m 17.930341,4.9914322 q -0.009,0 -0.01434,-0.00538 -0.0054,-0.00538 -0.0054,-0.014342 V 4.3846046 q 0,-0.00896 0.0054,-0.014342 0.0054,-0.00627 0.01434,-0.00627 h 0.208849 q 0.09681,0 0.151483,0.045714 0.05468,0.045714 0.05468,0.1353486 0,0.070812 -0.03496,0.1147325 -0.03496,0.043025 -0.100391,0.058263 L 18.354314,4.96365 q 0.0027,0.00538 0.0027,0.00986 0,0.00717 -0.0054,0.012549 -0.0054,0.00538 -0.01255,0.00538 h -0.01076 q -0.01345,0 -0.02062,-0.00538 -0.0063,-0.00627 -0.01345,-0.018823 L 18.151739,4.7261132 h -0.184648 v 0.2455993 q 0,0.00896 -0.0063,0.014342 -0.0054,0.00538 -0.01434,0.00538 z m 0.204367,-0.3190999 q 0.07798,0 0.115629,-0.031372 0.03854,-0.032268 0.03854,-0.095909 0,-0.063641 -0.03854,-0.095013 -0.03765,-0.032268 -0.115629,-0.032268 h -0.167617 v 0.2545628 z"
       style="font-style:normal;font-variant:normal;font-weight:300;font-stretch:normal;font-family:Rubik;-inkscape-font-specification:'Rubik Light';fill:#00222b;fill-opacity:1;stroke-width:0.0224086"
       id="path947" /></g></g><path
   id="path858"
   style="font-style:normal;font-variant:normal;font-weight:bold;font-stretch:normal;font-size:1.1579px;line-height:1.25;font-family:Rubik;-inkscape-font-specification:'Rubik Bold';letter-spacing:0px;word-spacing:0px;fill:#000000;fill-opacity:1;stroke:none;stroke-width:0.0289475"
   d="m -7.3761407,0.87780588 c -0.073868,0 -0.1312783,0.024922 -0.1725814,0.07412 v -0.025362 c 0,-0.00849 -0.00308,-0.015437 -0.00926,-0.020844 -1.925e-4,-1.929e-4 -4.595e-4,-2.514e-4 -6.559e-4,-4.373e-4 -0.00131,-0.00283 -0.00282,-0.00552 -0.0051,-0.0078 -0.0054,-0.00541 -0.012353,-0.00809 -0.020844,-0.00809 h -0.1378149 c -0.00849,0 -0.015835,0.00268 -0.02201,0.00809 -0.0054,0.0054 -0.00809,0.012353 -0.00809,0.020844 v 0.00824 0.48669732 0.057503 c 0,0.00772 0.00268,0.014669 0.00809,0.020844 0.00617,0.0054 0.013124,0.00809 0.020844,0.00809 h 0.1447411 c 0.00849,0 0.015437,-0.00269 0.020844,-0.00809 0.00617,-0.0054 0.00926,-0.012353 0.00926,-0.020844 v -0.044457 l 0.00466,2.915e-4 c 0.037053,0.050948 0.09304,0.076452 0.1679171,0.076452 0.074106,0 0.1327786,-0.023928 0.1760069,-0.071787 0.043229,-0.04786 0.066369,-0.113482 0.069455,-0.1968508 7.731e-4,-0.010807 0.00117,-0.025493 0.00117,-0.04402 0,-0.018526 -3.93e-4,-0.032746 -0.00117,-0.042781 -0.00309,-0.086457 -0.026227,-0.15286702 -0.069455,-0.19918302 -0.042456,-0.047092 -0.1011293,-0.070626 -0.1760069,-0.0706257 z m 0.9828689,0 c -0.094176,0 -0.1683236,0.023139 -0.222359,0.069455 -0.053261,0.045544 -0.082167,0.10919542 -0.086801,0.19102032 -7.732e-4,0.010035 -0.00117,0.027408 -0.00117,0.05211 0,0.024702 3.929e-4,0.042074 0.00117,0.05211 0.00463,0.083369 0.03275,0.1478812 0.084469,0.1934254 0.052491,0.044772 0.1274275,0.067123 0.2246911,0.067123 0.097264,0 0.1717329,-0.022351 0.2234522,-0.067123 0.05249,-0.045544 0.081074,-0.1100567 0.085708,-0.1934254 0.00155,-0.020071 0.00226,-0.037443 0.00226,-0.05211 0,-0.014667 -7.126e-4,-0.03204 -0.00226,-0.05211 -0.00463,-0.081825 -0.034004,-0.14547632 -0.08804,-0.19102032 -0.053263,-0.046316 -0.1269441,-0.069455 -0.2211203,-0.069455 z m 2.5419325,0 c -0.094176,0 -0.1683235,0.023139 -0.2223588,0.069455 -0.053262,0.045544 -0.082168,0.10919542 -0.086801,0.19102032 -7.724e-4,0.010035 -0.00117,0.027408 -0.00117,0.05211 0,0.024702 3.937e-4,0.042074 0.00117,0.05211 0.00463,0.083369 0.032822,0.1478812 0.084542,0.1934254 0.052491,0.044772 0.1273546,0.067123 0.2246182,0.067123 0.097264,0 0.1717329,-0.022351 0.2234521,-0.067123 0.05249,-0.045544 0.081074,-0.1100567 0.085708,-0.1934254 0.00154,-0.020071 0.00233,-0.037443 0.00233,-0.05211 0,-0.014667 -7.874e-4,-0.03204 -0.00233,-0.05211 -0.00463,-0.081825 -0.034005,-0.14547632 -0.08804,-0.19102032 -0.053263,-0.046316 -0.1269442,-0.069455 -0.2211205,-0.069455 z m 0.6672954,0 c -0.055579,0 -0.1034343,0.00885 -0.1435747,0.026601 -0.039369,0.017755 -0.06953,0.041288 -0.090372,0.070621 -0.02007,0.028561 -0.0301,0.058723 -0.0301,0.090372 0,0.096491 0.066804,0.1582447 0.200349,0.1852627 0.041685,0.00772 0.072561,0.015384 0.092631,0.023103 0.020842,0.00695 0.034741,0.014291 0.041688,0.02201 0.00772,0.00772 0.011588,0.017749 0.011588,0.0301 0,0.014667 -0.00695,0.026273 -0.020844,0.034764 -0.013123,0.00772 -0.030101,0.011588 -0.050943,0.011588 -0.017755,0 -0.033229,-0.00276 -0.046352,-0.00816 -0.012351,-0.00618 -0.025856,-0.014628 -0.040521,-0.025435 -0.00154,-0.00154 -0.00889,-0.00659 -0.02201,-0.015086 -0.00309,-0.00309 -0.00695,-0.00459 -0.011588,-0.00459 h -0.1400776 c -0.00695,0 -0.013505,0.00268 -0.019678,0.00809 -0.00541,0.00463 -0.00809,0.010792 -0.00809,0.018512 0,0.02007 0.010029,0.042494 0.0301,0.067196 0.020843,0.024702 0.052435,0.045943 0.094891,0.063698 0.042456,0.017754 0.095362,0.026601 0.1586611,0.026601 0.092632,0 0.1644151,-0.016979 0.2153623,-0.050944 0.05172,-0.034737 0.077618,-0.081016 0.077618,-0.1389105 0,-0.044772 -0.017373,-0.08378 -0.05211,-0.1169735 -0.033965,-0.033965 -0.088769,-0.057499 -0.1644188,-0.070621 -0.041685,-0.00772 -0.072955,-0.015063 -0.093797,-0.02201 -0.020071,-0.00695 -0.033575,-0.013896 -0.040522,-0.020844 -0.00617,-0.00772 -0.00926,-0.017354 -0.00926,-0.028934 0,-0.013123 0.00537,-0.023941 0.01618,-0.032432 0.010806,-0.00849 0.025887,-0.012754 0.045186,-0.012754 0.016211,0 0.02932,0.00268 0.039356,0.00809 0.010808,0.00463 0.023129,0.01158 0.037024,0.020844 0.00926,0.00695 0.018504,0.012785 0.027767,0.017418 0.00386,0.00309 0.0093,0.00459 0.016253,0.00459 h 0.1273953 c 0.00695,0 0.012712,-0.00268 0.017345,-0.00809 0.00541,-0.0054 0.00809,-0.011564 0.00809,-0.018512 0,-0.02007 -0.010818,-0.0421 -0.032432,-0.06603 -0.021614,-0.024702 -0.053206,-0.045549 -0.094891,-0.062532 -0.040912,-0.017755 -0.089556,-0.026601 -0.1459073,-0.026601 z m 1.0104908,0 c -0.06021,0 -0.110826,0.00924 -0.151737,0.027767 -0.04091,0.018526 -0.0714,0.04095 -0.09147,0.067196 -0.02007,0.025474 -0.03049,0.048613 -0.03127,0.069455 -7.72e-4,0.00694 0.0012,0.013105 0.0058,0.018512 0.0054,0.00463 0.01196,0.00692 0.01968,0.00692 h 0.134319 c 0.0046,0 0.0085,-0.00268 0.01159,-0.00809 0.0077,-0.00386 0.01657,-0.01002 0.0266,-0.018512 0.01312,-0.010804 0.02473,-0.018935 0.03476,-0.024342 0.01081,-0.00541 0.02392,-0.00809 0.03936,-0.00809 0.02779,0 0.04746,0.00656 0.05903,0.019678 0.01158,0.013123 0.01742,0.03397 0.01742,0.062532 v 0.01392 l -0.143575,0.02201 c -0.07642,0.012351 -0.136671,0.035096 -0.180671,0.068289 -0.04323,0.032421 -0.06486,0.074904 -0.06486,0.1273954 0,0.033193 0.0093,0.063676 0.02784,0.091465 0.0193,0.02779 0.04552,0.049746 0.07871,0.065957 0.03397,0.015439 0.0714,0.023176 0.112309,0.023176 0.04169,0 0.07761,-0.00734 0.107718,-0.02201 0.03011,-0.015439 0.05364,-0.035103 0.07062,-0.059033 v 0.040522 c 0,0.00772 0.0027,0.014668 0.0081,0.020844 0.0062,0.0054 0.01313,0.00809 0.02084,0.00809 h 0.142409 c 0.0085,0 0.01544,-0.00269 0.02084,-0.00809 0.0054,-0.00618 0.0081,-0.013125 0.0081,-0.020844 V 1.1116757 c 0,-0.071789 -0.02314,-0.12849182 -0.06945,-0.17017642 -0.04632,-0.042456 -0.11731,-0.063698 -0.21303,-0.063698 z m 0.437576,0.00153 c -0.0077,0 -0.01467,0.00268 -0.02084,0.00809 -0.0054,0.0054 -0.0081,0.012352 -0.0081,0.020844 V 1.45247 c 0,0.00179 6.59e-4,0.0034 9.47e-4,0.0051 v 0.00496 c 0,0.00849 0.0027,0.01544 0.0081,0.020844 0.0062,0.0054 0.01352,0.00809 0.02201,0.00809 h 0.141243 c 0.0085,0 0.01544,-0.00269 0.02084,-0.00809 0.0048,-0.00552 0.0072,-0.011757 0.0077,-0.018512 0.0018,-0.00372 0.0029,-0.00775 0.0029,-0.01239 V 1.2571517 l 0.173457,0.2146336 c 0.0069,0.00695 0.01279,0.011998 0.01742,0.015086 0.0054,0.00309 0.01314,0.00459 0.02318,0.00459 h 0.167844 c 0.0077,0 0.01395,-0.00229 0.01858,-0.00692 0.0054,-0.0054 0.0081,-0.011958 0.0081,-0.019678 0,-0.00463 -0.0027,-0.010471 -0.0081,-0.017419 l -0.232781,-0.288316 0.203774,-0.22461822 c 0.0054,-0.0054 0.0082,-0.011564 0.0082,-0.018512 0,-0.00772 -0.0028,-0.013878 -0.0082,-0.018512 -0.0046,-0.00541 -0.0104,-0.00809 -0.01735,-0.00809 h -0.163252 c -0.0069,0 -0.01271,0.00111 -0.01735,0.00343 -0.0046,0.00155 -0.0093,0.00423 -0.01392,0.00809 l -0.0081,0.00816 -0.151519,0.17316452 V 0.90827438 c 0,-0.00849 -0.0031,-0.015437 -0.0093,-0.020844 -0.0054,-0.00541 -0.01235,-0.00809 -0.02084,-0.00809 z m -4.1683382,0.00991 v 1.458e-4 h -0.091465 c -0.00772,0 -0.014671,0.00268 -0.020844,0.00809 -0.00541,0.0054 -0.00809,0.012353 -0.00809,0.020844 v 0.099555 c 0,0.00772 0.00268,0.014671 0.00809,0.020844 0.00618,0.00541 0.013124,0.00809 0.020844,0.00809 h 0.091465 v 0.2142692 c 0,0.1536147 0.081885,0.2303758 0.2455351,0.2303758 h 0.1099769 c 0.00849,0 0.015437,-0.00269 0.020844,-0.00809 0.00541,-0.00618 0.00809,-0.013125 0.00809,-0.020844 V 1.3559741 c 0,-0.00849 -0.00268,-0.015437 -0.00809,-0.020844 -0.0054,-0.00617 -0.012353,-0.00926 -0.020844,-0.00926 h -0.091465 c -0.022386,0 -0.038649,-0.00695 -0.048684,-0.020844 -0.010035,-0.013895 -0.015014,-0.034348 -0.015014,-0.061365 V 1.0468104 h 0.1447411 c 0.00849,0 0.015437,-0.00268 0.020844,-0.00809 0.00617,-0.0054 0.00926,-0.012352 0.00926,-0.020844 v -0.099555 c 0,-0.00849 -0.00308,-0.015437 -0.00926,-0.020844 -0.0054,-0.00541 -0.012352,-0.00809 -0.020844,-0.00809 h -0.1447411 v -1.458e-4 z m -1.0842459,1.458e-4 c -0.00772,0 -0.014671,0.00268 -0.020844,0.00809 -0.00541,0.0054 -0.00809,0.012353 -0.00809,0.020844 V 1.4625258 c 0,0.00772 0.00268,0.014668 0.00809,0.020844 0.00618,0.0054 0.013125,0.00809 0.020844,0.00809 h 0.144741 c 0.00849,0 0.015437,-0.00269 0.020844,-0.00809 0.00617,-0.0054 0.00926,-0.012353 0.00926,-0.020844 V 0.91832568 c 0,-0.00849 -0.00308,-0.015437 -0.00926,-0.020844 -0.0054,-0.00541 -0.012352,-0.00809 -0.020844,-0.00809 z m 1.5921514,0 c -0.00849,0 -0.015437,0.00308 -0.020844,0.00926 -0.00541,0.0054 -0.00809,0.012353 -0.00809,0.020844 V 1.4625297 c 0,0.00772 0.00268,0.014668 0.00809,0.020844 0.00618,0.0054 0.013125,0.00809 0.020844,0.00809 h 0.1528308 c 0.00849,0 0.015437,-0.00269 0.020844,-0.00809 0.00617,-0.0054 0.00926,-0.012353 0.00926,-0.020844 V 1.1707154 c 0,-0.030877 0.00813,-0.054805 0.024342,-0.071787 0.016983,-0.016983 0.04091,-0.025435 0.071787,-0.025435 h 0.1169007 c 0.00849,0 0.015437,-0.00268 0.020844,-0.00809 0.00541,-0.00618 0.00816,-0.013124 0.00816,-0.020844 V 0.91832998 c 0,-0.00849 -0.00276,-0.015437 -0.00816,-0.020844 -0.0054,-0.00541 -0.012353,-0.00809 -0.020844,-0.00809 h -0.05211 c -0.035509,0 -0.067889,0.00656 -0.097223,0.019678 -0.028562,0.012351 -0.053672,0.030439 -0.075286,0.054369 v -0.043947 c 0,-0.00849 -0.00308,-0.015437 -0.00926,-0.020844 -0.0054,-0.00617 -0.012353,-0.00926 -0.020844,-0.00926 z m 0.7553354,0 c -0.00849,0 -0.015437,0.00308 -0.020844,0.00926 -0.00541,0.0054 -0.00809,0.012353 -0.00809,0.020844 V 1.4625297 c 0,0.00772 0.00268,0.014668 0.00809,0.020844 0.00618,0.0054 0.013125,0.00809 0.020844,0.00809 h 0.1528308 c 0.00849,0 0.015439,-0.00269 0.020844,-0.00809 0.00617,-0.0054 0.00926,-0.012353 0.00926,-0.020844 V 1.1707154 c 0,-0.030877 0.00813,-0.054805 0.024342,-0.071787 0.016982,-0.016983 0.04091,-0.025435 0.071787,-0.025435 h 0.1169737 c 0.00849,0 0.015437,-0.00268 0.020844,-0.00809 0.00541,-0.00618 0.00809,-0.013124 0.00809,-0.020844 V 0.91832998 c 0,-0.00849 -0.00268,-0.015437 -0.00809,-0.020844 -0.0054,-0.00541 -0.012352,-0.00809 -0.020844,-0.00809 h -0.05211 c -0.035508,0 -0.067962,0.00656 -0.097296,0.019678 -0.028562,0.012351 -0.053672,0.030439 -0.075286,0.054369 v -0.043947 c 4e-7,-0.00849 -0.00308,-0.015437 -0.00926,-0.020844 -0.0054,-0.00617 -0.012353,-0.00926 -0.020844,-0.00926 z m 1.8838198,0 c -0.00772,0 -0.01467,0.00268 -0.020844,0.00809 -0.00541,0.0054 -0.00809,0.012353 -0.00809,0.020844 V 1.4625258 c 0,0.00772 0.00268,0.014668 0.00809,0.020844 0.00618,0.0054 0.013124,0.00809 0.020844,0.00809 h 0.1447415 c 0.0085,0 0.01544,-0.00269 0.02084,-0.00809 0.0062,-0.0054 0.0093,-0.012353 0.0093,-0.020844 V 0.91832568 c 0,-0.00849 -0.0031,-0.015437 -0.0093,-0.020844 -0.0054,-0.00541 -0.01235,-0.00809 -0.02084,-0.00809 z M -6.3932718,1.0237108 c 0.031649,0 0.055183,0.01003 0.070621,0.0301 0.015441,0.02007 0.024288,0.050158 0.026601,0.090299 7.731e-4,0.00772 0.00117,0.023121 0.00117,0.046279 0,0.023158 -3.93e-4,0.038633 -0.00117,0.046352 -0.00232,0.040913 -0.011163,0.071395 -0.026601,0.091465 -0.015439,0.019298 -0.038972,0.028934 -0.070621,0.028934 -0.031649,0 -0.055256,-0.00964 -0.070694,-0.028934 -0.015441,-0.02007 -0.024288,-0.050553 -0.026601,-0.091465 l -0.00117,-0.046352 0.00117,-0.046279 c 0.00232,-0.040141 0.011163,-0.070229 0.026601,-0.090299 0.015439,-0.02007 0.039045,-0.0301 0.070694,-0.0301 z m 2.5419325,0 c 0.031649,0 0.055183,0.01003 0.070621,0.0301 0.015441,0.02007 0.024288,0.050158 0.026601,0.090299 7.724e-4,0.00772 0.00117,0.023121 0.00117,0.046279 0,0.023158 -3.937e-4,0.038633 -0.00117,0.046352 -0.00232,0.040913 -0.011163,0.071395 -0.026601,0.091465 -0.015439,0.019298 -0.038972,0.028934 -0.070621,0.028934 -0.031649,0 -0.055183,-0.00964 -0.070621,-0.028934 -0.015441,-0.02007 -0.024361,-0.050553 -0.026674,-0.091465 l -0.00117,-0.046352 0.00117,-0.046279 c 0.00232,-0.040141 0.011236,-0.070229 0.026674,-0.090299 0.015439,-0.02007 0.038972,-0.0301 0.070621,-0.0301 z m -3.5919974,0.015013 c 0.034737,0 0.059453,0.010424 0.07412,0.031266 0.015439,0.020071 0.024285,0.048261 0.026602,0.084542 7.72e-4,0.00772 0.00117,0.019647 0.00117,0.035857 0,0.016211 -3.94e-4,0.028211 -0.00117,0.03593 -0.00232,0.036281 -0.011163,0.064866 -0.026602,0.085708 -0.014667,0.02007 -0.039383,0.0301 -0.07412,0.0301 -0.032421,-7e-7 -0.057137,-0.00964 -0.07412,-0.028934 -0.016211,-0.020071 -0.025057,-0.04518 -0.026601,-0.075286 -7.72e-4,-0.010035 -0.00117,-0.024327 -0.00117,-0.042854 0,-0.019298 3.941e-4,-0.033985 0.00117,-0.04402 0.00154,-0.032421 0.010391,-0.059035 0.026601,-0.079877 0.016211,-0.021614 0.040926,-0.032432 0.07412,-0.032432 z m 5.3461626,0.1829305 v 0.01392 c 0,0.042457 -0.01082,0.07491 -0.03243,0.097296 -0.02084,0.022386 -0.04824,0.033525 -0.08221,0.033525 -0.02239,0 -0.04126,-0.00537 -0.0567,-0.01618 -0.01467,-0.010807 -0.02201,-0.025099 -0.02201,-0.042854 0,-0.033965 0.03245,-0.057105 0.09729,-0.069455 z" /><path
   style="font-style:normal;font-variant:normal;font-weight:bold;font-stretch:normal;font-size:1.1579px;line-height:1.25;font-family:Rubik;-inkscape-font-specification:'Rubik Bold';letter-spacing:0px;word-spacing:0px;fill:#000000;fill-opacity:1;stroke:none;stroke-width:0.0289475"
   d="m -1.5876878,-1.6553316 c -0.00849,0 -0.015437,0.00308 -0.020844,0.00926 -0.00541,0.0054 -0.00809,0.012353 -0.00809,0.020844 v 0.543034 c 0,0.00772 0.00268,0.014668 0.00809,0.020844 0.00618,0.0054 0.013125,0.00809 0.020844,0.00809 h 0.1528308 c 0.00849,0 0.015439,-0.00269 0.020844,-0.00809 0.00617,-0.0054 0.00926,-0.012353 0.00926,-0.020844 v -0.2918143 c 0,-0.030877 0.00813,-0.054805 0.024342,-0.071787 0.016982,-0.016983 0.04091,-0.025435 0.071787,-0.025435 h 0.1169737 c 0.00849,0 0.015437,-0.00268 0.020844,-0.00809 0.00541,-0.00618 0.00809,-0.013124 0.00809,-0.020844 v -0.1262294 c 0,-0.00849 -0.00268,-0.015437 -0.00809,-0.020844 -0.0054,-0.00541 -0.012352,-0.00809 -0.020844,-0.00809 h -0.05211 c -0.035508,0 -0.067962,0.00656 -0.097296,0.019678 -0.028562,0.012351 -0.053672,0.030439 -0.075286,0.054369 v -0.043947 c 4e-7,-0.00849 -0.00308,-0.015437 -0.00926,-0.020844 -0.0054,-0.00617 -0.012353,-0.00926 -0.020844,-0.00926 z"
   id="path1115" /><path
   style="font-style:normal;font-variant:normal;font-weight:bold;font-stretch:normal;font-size:1.1579px;line-height:1.25;font-family:Rubik;-inkscape-font-specification:'Rubik Bold';letter-spacing:0px;word-spacing:0px;fill:#000000;fill-opacity:1;stroke:none;stroke-width:0.0289475"
   d="m 1.3174095,-1.6653876 c -0.0077,0 -0.01467,0.00268 -0.02084,0.00809 -0.0054,0.0054 -0.0081,0.012352 -0.0081,0.020844 v 0.5442001 c 0,0.00179 6.59e-4,0.0034 9.47e-4,0.0051 v 0.00496 c 0,0.00849 0.0027,0.01544 0.0081,0.020844 0.0062,0.0054 0.01352,0.00809 0.02201,0.00809 h 0.141243 c 0.0085,0 0.01544,-0.00269 0.02084,-0.00809 0.0048,-0.00552 0.0072,-0.011757 0.0077,-0.018512 0.0018,-0.00372 0.0029,-0.00775 0.0029,-0.01239 v -0.1953203 l 0.173457,0.2146336 c 0.0069,0.00695 0.01279,0.011998 0.01742,0.015086 0.0054,0.00309 0.01314,0.00459 0.02318,0.00459 h 0.167844 c 0.0077,0 0.01395,-0.00229 0.01858,-0.00692 0.0054,-0.0054 0.0081,-0.011958 0.0081,-0.019678 0,-0.00463 -0.0027,-0.010471 -0.0081,-0.017419 l -0.232781,-0.288316 0.203774,-0.2246182 c 0.0054,-0.0054 0.0082,-0.011564 0.0082,-0.018512 0,-0.00772 -0.0028,-0.013878 -0.0082,-0.018512 -0.0046,-0.00541 -0.0104,-0.00809 -0.01735,-0.00809 h -0.163252 c -0.0069,0 -0.01271,0.00111 -0.01735,0.00343 -0.0046,0.00155 -0.0093,0.00423 -0.01392,0.00809 l -0.0081,0.00816 -0.151519,0.1731645 v -0.1739662 c 0,-0.00849 -0.0031,-0.015437 -0.0093,-0.020844 -0.0054,-0.00541 -0.01235,-0.00809 -0.02084,-0.00809 z"
   id="path1113" /><path
   id="path1111"
   style="font-style:normal;font-variant:normal;font-weight:bold;font-stretch:normal;font-size:1.1579px;line-height:1.25;font-family:Rubik;-inkscape-font-specification:'Rubik Bold';letter-spacing:0px;word-spacing:0px;fill:#000000;fill-opacity:1;stroke:none;stroke-width:0.0289475"
   d="m 0.87983348,-1.6669176 c -0.06021,0 -0.110826,0.00924 -0.151737,0.027767 -0.04091,0.018526 -0.0714,0.04095 -0.09147,0.067196 -0.02007,0.025474 -0.03049,0.048613 -0.03127,0.069455 -7.72e-4,0.00694 0.0012,0.013105 0.0058,0.018512 0.0054,0.00463 0.01196,0.00692 0.01968,0.00692 h 0.134319 c 0.0046,0 0.0085,-0.00268 0.01159,-0.00809 0.0077,-0.00386 0.01657,-0.01002 0.0266,-0.018512 0.01312,-0.010804 0.02473,-0.018935 0.03476,-0.024342 0.01081,-0.00541 0.02392,-0.00809 0.03936,-0.00809 0.02779,0 0.04746,0.00656 0.05903,0.019678 0.01158,0.013123 0.01742,0.03397 0.01742,0.062532 v 0.01392 l -0.143575,0.02201 c -0.07642,0.012351 -0.136671,0.035096 -0.180671,0.068289 -0.04323,0.032421 -0.06486,0.074904 -0.06486,0.1273954 0,0.033193 0.0093,0.063676 0.02784,0.091465 0.0193,0.02779 0.04552,0.049746 0.07871,0.065957 0.03397,0.015439 0.0714,0.023176 0.112309,0.023176 0.04169,0 0.07761,-0.00734 0.107718,-0.02201 0.03011,-0.015439 0.05364,-0.035103 0.07062,-0.059033 v 0.040522 c 0,0.00772 0.0027,0.014668 0.0081,0.020844 0.0062,0.0054 0.01313,0.00809 0.02084,0.00809 H 1.1333555 c 0.0085,0 0.01544,-0.00269 0.02084,-0.00809 0.0054,-0.00618 0.0081,-0.013125 0.0081,-0.020844 v -0.3508476 c 0,-0.071789 -0.02314,-0.1284918 -0.06945,-0.1701764 -0.04632,-0.042456 -0.11731002,-0.063698 -0.21303002,-0.063698 z m 0.076379,0.3438486 v 0.01392 c 0,0.042457 -0.01082,0.07491 -0.03243,0.097296 -0.02084,0.022386 -0.04824,0.033525 -0.08221,0.033525 -0.02239,0 -0.04126,-0.00537 -0.0567,-0.01618 -0.01467,-0.010807 -0.02201,-0.025099 -0.02201,-0.042854 0,-0.033965 0.03245,-0.057105 0.09729,-0.069455 z" /><path
   style="font-style:normal;font-variant:normal;font-weight:bold;font-stretch:normal;font-size:1.1579px;line-height:1.25;font-family:Rubik;-inkscape-font-specification:'Rubik Bold';letter-spacing:0px;word-spacing:0px;fill:#000000;fill-opacity:1;stroke:none;stroke-width:0.0289475"
   d="m -0.13065732,-1.6669176 c -0.055579,0 -0.1034343,0.00885 -0.1435747,0.026601 -0.039369,0.017755 -0.06953,0.041288 -0.090372,0.070621 -0.02007,0.028561 -0.0301,0.058723 -0.0301,0.090372 0,0.096491 0.066804,0.1582447 0.200349,0.1852627 0.041685,0.00772 0.072561,0.015384 0.092631,0.023103 0.020842,0.00695 0.034741,0.014291 0.041688,0.02201 0.00772,0.00772 0.011588,0.017749 0.011588,0.0301 0,0.014667 -0.00695,0.026273 -0.020844,0.034764 -0.013123,0.00772 -0.030101,0.011588 -0.050943,0.011588 -0.017755,0 -0.033229,-0.00276 -0.046352,-0.00816 -0.012351,-0.00618 -0.025856,-0.014628 -0.040521,-0.025435 -0.00154,-0.00154 -0.00889,-0.00659 -0.02201,-0.015086 -0.00309,-0.00309 -0.00695,-0.00459 -0.011588,-0.00459 h -0.1400776 c -0.00695,0 -0.013505,0.00268 -0.019678,0.00809 -0.00541,0.00463 -0.00809,0.010792 -0.00809,0.018512 0,0.02007 0.010029,0.042494 0.0301,0.067196 0.020843,0.024702 0.052435,0.045943 0.094891,0.063698 0.042456,0.017754 0.095362,0.026601 0.1586611,0.026601 0.092632,0 0.1644151,-0.016979 0.2153623,-0.050944 0.05172,-0.034737 0.077618,-0.081016 0.077618,-0.1389105 0,-0.044772 -0.017373,-0.08378 -0.05211,-0.1169735 -0.033965,-0.033965 -0.088769,-0.057499 -0.1644188,-0.070621 -0.041685,-0.00772 -0.072955,-0.015063 -0.093797,-0.02201 -0.020071,-0.00695 -0.033575,-0.013896 -0.040522,-0.020844 -0.00617,-0.00772 -0.00926,-0.017354 -0.00926,-0.028934 0,-0.013123 0.00537,-0.023941 0.01618,-0.032432 0.010806,-0.00849 0.025887,-0.012754 0.045186,-0.012754 0.016211,0 0.02932,0.00268 0.039356,0.00809 0.010808,0.00463 0.023129,0.01158 0.037024,0.020844 0.00926,0.00695 0.018504,0.012785 0.027767,0.017418 0.00386,0.00309 0.0093,0.00459 0.016253,0.00459 h 0.1273953 c 0.00695,0 0.012712,-0.00268 0.017345,-0.00809 0.00541,-0.0054 0.00809,-0.011564 0.00809,-0.018512 0,-0.02007 -0.010818,-0.0421 -0.032432,-0.06603 -0.021614,-0.024702 -0.053206,-0.045549 -0.094891,-0.062532 -0.040912,-0.017755 -0.089556,-0.026601 -0.1459073,-0.026601 z"
   id="path1109" /><path
   id="path1023"
   style="font-style:normal;font-variant:normal;font-weight:bold;font-stretch:normal;font-size:1.1579px;line-height:1.25;font-family:Rubik;-inkscape-font-specification:'Rubik Bold';letter-spacing:0px;word-spacing:0px;fill:#000000;fill-opacity:1;stroke:none;stroke-width:0.0287523"
   d="m -0.79795272,-1.6585115 c -0.094176,0 -0.1683235,0.022827 -0.22235878,0.068521 -0.053262,0.044932 -0.082168,0.1077273 -0.086801,0.1884522 -7.724e-4,0.0099 -0.00117,0.027039 -0.00117,0.05141 0,0.024369 3.937e-4,0.041508 0.00117,0.05141 0.00463,0.082248 0.032822,0.1458929 0.084542,0.1908248 0.052491,0.04417 0.12735458,0.06622 0.22461818,0.06622 0.097264,0 0.1717329,-0.02205 0.2234521,-0.06622 0.05249,-0.044932 0.081074,-0.1085775 0.085708,-0.1908248 0.00154,-0.019801 0.00233,-0.03694 0.00233,-0.05141 0,-0.01447 -7.874e-4,-0.031609 -0.00233,-0.05141 -0.00463,-0.080724 -0.034005,-0.1435205 -0.08804,-0.1884522 -0.053263,-0.045693 -0.1269442,-0.068521 -0.2211205,-0.068521 z m 0,0.1439435 c 0.031649,0 0.055183,0.0099 0.070621,0.029695 0.015441,0.0198 0.024288,0.049483 0.026601,0.089085 7.724e-4,0.00762 0.00117,0.022811 0.00117,0.045657 0,0.022846 -3.937e-4,0.038113 -0.00117,0.045729 -0.00232,0.040363 -0.011163,0.070435 -0.026601,0.090235 -0.015439,0.019038 -0.038972,0.028545 -0.070621,0.028545 -0.031649,0 -0.055183,-0.00951 -0.070621,-0.028545 -0.015441,-0.0198 -0.024361,-0.049874 -0.026674,-0.090235 l -0.00117,-0.045729 0.00117,-0.045657 c 0.00232,-0.039602 0.011236,-0.069284 0.026674,-0.089085 0.015439,-0.0198 0.038972,-0.029695 0.070621,-0.029695 z" /><path
   style="font-style:normal;font-variant:normal;font-weight:bold;font-stretch:normal;font-size:1.14567px;line-height:1.25;font-family:rubik;-inkscape-font-specification:'rubik Bold';letter-spacing:0px;word-spacing:0px;fill:#000000;fill-opacity:1;stroke:none;stroke-width:0.0286417"
   d="m -3.116207,-1.7918226 q -0.011684,0 -0.02103,-0.00786 -0.00818,-0.00899 -0.00818,-0.020222 v -0.5280218 q 0,-0.012358 0.00818,-0.020222 0.00935,-0.00786 0.02103,-0.00786 h 0.1460411 q 0.012851,0 0.02103,0.00786 0.00935,0.00786 0.00935,0.020222 v 0.5280218 q 0,0.012358 -0.00935,0.020222 -0.00818,0.00786 -0.02103,0.00786 z"
   id="path1137" /><path
   id="path1156"
   d="m 0.29612857,-1.4581888 c -0.00772,0 -0.0146709,0.00268 -0.0208439,0.00809 -0.00541,0.0054 -0.00809,0.012353 -0.00809,0.020844 v 0.3470578 c 0,0.00772 0.00268,0.014668 0.00809,0.020844 0.00618,0.0054 0.0131249,0.00809 0.0208439,0.00809 H 0.4408696 c 0.00849,0 0.0154369,-0.00269 0.0208439,-0.00809 0.00617,-0.0054 0.009256,-0.012353 0.009256,-0.020844 0,0 -0.002594,-0.1602781 0,-0.3470578 1.1791e-4,-0.00849 -0.003076,-0.015437 -0.009256,-0.020844 -0.0054,-0.00541 -0.0123519,-0.00809 -0.0208439,-0.00809 z"
   style="font-style:normal;font-variant:normal;font-weight:bold;font-stretch:normal;font-size:1.1579px;line-height:1.25;font-family:Rubik;-inkscape-font-specification:'Rubik Bold';letter-spacing:0px;word-spacing:0px;fill:#000000;fill-opacity:1;stroke:none;stroke-width:0.0289475" /><path
   id="path1131"
   style="font-style:normal;font-variant:normal;font-weight:bold;font-stretch:normal;font-size:1.14567px;line-height:1.25;font-family:rubik;-inkscape-font-specification:'rubik Bold';letter-spacing:0px;word-spacing:0px;fill:#000000;fill-opacity:1;stroke:none;stroke-width:0.0286417"
   d="m -0.11612719,-2.2989642 q -0.012851,0 -0.02103,-0.00786 -0.00818,-0.00899 -0.00818,-0.021346 v -0.1044809 q 0,-0.012358 0.00818,-0.020222 0.00935,-0.00899 0.02103,-0.00899 h 0.1460411 q 0.012851,0 0.02103,0.00899 0.00935,0.00786 0.00935,0.020222 v 0.1044809 q 0,0.012358 -0.00935,0.021346 -0.00818,0.00786 -0.02103,0.00786 z m -0.38755122,-0.1623129 c -0.073868,0 -0.13127837,0.024922 -0.17258146,0.07412 v -0.025362 c 0,-0.00849 -0.003076,-0.015437 -0.009256,-0.020844 -1.9404e-4,-1.941e-4 -4.5972e-4,-2.5e-4 -6.56e-4,-4.374e-4 -0.00131,-0.00283 -0.002822,-0.00552 -0.005102,-0.0078 -0.0054,-0.00541 -0.0123529,-0.00809 -0.0208438,-0.00809 h -0.1378174 c -0.00849,0 -0.015835,0.00268 -0.02201,0.00809 -0.0054,0.0054 -0.00809,0.012353 -0.00809,0.020844 v 0.00824 0.1284158 c -3.321e-4,0.00192 -0.00102,0.00365 -0.00102,0.00576 v 0.5442 c 0,0.00772 0.00269,0.014668 0.00809,0.020844 0.0062,0.0054 0.0131339,0.00809 0.0208438,0.00809 h 0.14474107 c 0.00849,0 0.0154369,-0.00269 0.0208438,-0.00809 0.00617,-0.0054 0.009256,-0.012353 0.009256,-0.020844 v -0.1290717 c 2.9852e-4,-0.00172 0.00102,-0.00323 0.00102,-0.0051 v -0.044457 l 0.004664,2.91e-4 c 0.037053,0.050948 0.09304,0.076452 0.1679171,0.076452 0.074106,0 0.13277855,-0.023929 0.17600685,-0.071787 0.043229,-0.04786 0.0663693,-0.1134819 0.0694553,-0.1968507 7.7309e-4,-0.010807 0.001166,-0.025493 0.001166,-0.04402 0,-0.018526 -3.8908e-4,-0.032746 -0.001166,-0.042781 -0.00309,-0.086457 -0.0262273,-0.1528669 -0.0694553,-0.1991829 -0.042456,-0.047092 -0.10112926,-0.070622 -0.17600685,-0.070621 z m 0.98286891,0 c -0.094176,0 -0.16832357,0.023139 -0.22235897,0.069455 -0.053261,0.045544 -0.0821669,0.1091953 -0.0868009,0.1910202 -7.732e-4,0.010035 -0.001166,0.027408 -0.001166,0.05211 0,0.024702 3.8901e-4,0.042074 0.001166,0.05211 0.00463,0.083369 0.0327497,0.1478811 0.0844687,0.1934253 0.052491,0.044772 0.12742756,0.067123 0.22469115,0.067123 0.097264,0 0.17173288,-0.022351 0.22345217,-0.067123 0.05249,-0.045544 0.0810737,-0.1100566 0.0857077,-0.1934253 0.00155,-0.020071 0.002259,-0.037443 0.002259,-0.05211 0,-0.014667 -7.1197e-4,-0.03204 -0.002259,-0.05211 -0.00463,-0.081825 -0.0340038,-0.1454762 -0.0880399,-0.1910202 -0.053263,-0.046316 -0.12694379,-0.069455 -0.22111998,-0.069455 z m 0.48895648,0.011442 v 1.456e-4 h -0.0914652 c -0.00772,0 -0.0146709,0.00268 -0.0208439,0.00809 -0.00541,0.0054 -0.00809,0.012353 -0.00809,0.020844 v 0.099555 c 0,0.00772 0.00268,0.014671 0.00809,0.020844 0.00618,0.00541 0.0131239,0.00809 0.0208439,0.00809 h 0.0914652 v 0.2142692 c 0,0.1536147 0.0818849,0.2303759 0.24553502,0.2303759 h 0.109977 c 0.00849,0 0.015437,-0.00269 0.020844,-0.00809 0.00541,-0.00618 0.00809,-0.013125 0.00809,-0.020844 v -0.1065516 c 0,-0.00849 -0.00268,-0.015437 -0.00809,-0.020844 -0.0054,-0.00617 -0.012353,-0.00926 -0.020844,-0.00926 h -0.091465 c -0.022386,0 -0.038649,-0.00695 -0.048684,-0.020844 -0.010035,-0.013895 -0.015013,-0.034348 -0.015013,-0.061365 v -0.1968508 h 0.144741 c 0.00849,0 0.015437,-0.00268 0.020844,-0.00809 0.00617,-0.0054 0.00926,-0.012352 0.00926,-0.020844 v -0.099555 c 0,-0.00849 -0.00308,-0.015437 -0.00926,-0.020844 -0.0054,-0.00541 -0.012352,-0.00809 -0.020844,-0.00809 H 1.168496 v -1.455e-4 z m 0.50790552,1.458e-4 c -0.00849,0 -0.015437,0.00308 -0.020844,0.00926 -0.00541,0.0054 -0.00809,0.012353 -0.00809,0.020844 v 0.543034 c 0,0.00772 0.00268,0.014668 0.00809,0.020844 0.00618,0.0054 0.013125,0.00809 0.020844,0.00809 h 0.1528308 c 0.00849,0 0.015437,-0.00269 0.020844,-0.00809 0.00617,-0.0054 0.00926,-0.012353 0.00926,-0.020844 v -0.2918142 c 0,-0.030877 0.00813,-0.054806 0.024342,-0.071788 0.016983,-0.016983 0.040911,-0.025435 0.071787,-0.025435 h 0.1169006 c 0.00849,0 0.015437,-0.00268 0.020844,-0.00809 0.00541,-0.00618 0.00816,-0.013124 0.00816,-0.020844 v -0.1262294 c 0,-0.00849 -0.00276,-0.015437 -0.00816,-0.020844 -0.0054,-0.00541 -0.012353,-0.00809 -0.020844,-0.00809 h -0.05211 c -0.035509,0 -0.067889,0.00656 -0.097223,0.019678 -0.028562,0.012351 -0.053672,0.030439 -0.075286,0.054369 v -0.043947 c 0,-0.00849 -0.00308,-0.015437 -0.00926,-0.020844 -0.0054,-0.00617 -0.012353,-0.00926 -0.020844,-0.00926 z M 0.4791905,-2.31537 c 0.031649,0 0.0551834,0.01003 0.0706214,0.0301 0.015441,0.02007 0.0242885,0.050158 0.0266015,0.090299 7.7317e-4,0.00772 0.001166,0.023121 0.001166,0.046279 0,0.023158 -3.8919e-4,0.038633 -0.001166,0.046352 -0.00232,0.040913 -0.0111635,0.071395 -0.0266015,0.091465 -0.015439,0.019298 -0.0389724,0.028934 -0.0706214,0.028934 -0.031649,0 -0.0552563,-0.00964 -0.0706943,-0.028934 -0.015441,-0.02007 -0.0242885,-0.050553 -0.0266015,-0.091465 l -0.001166,-0.046352 0.001166,-0.046279 c 0.00232,-0.040141 0.0111635,-0.070229 0.0266015,-0.090299 0.015439,-0.02007 0.0390452,-0.0301 0.0706943,-0.0301 z m -1.05006489,0.015013 c 0.034737,0 0.0594527,0.010424 0.0741196,0.031266 0.015439,0.020071 0.0242844,0.048261 0.0266015,0.084542 7.7205e-4,0.00772 0.001166,0.019647 0.001166,0.035857 0,0.016211 -3.8995e-4,0.028211 -0.001166,0.03593 -0.00232,0.036281 -0.0111624,0.064866 -0.0266015,0.085708 -0.014667,0.02007 -0.0393826,0.0301 -0.0741196,0.0301 -0.032421,-7e-7 -0.0571367,-0.00964 -0.0741197,-0.028934 -0.016211,-0.020071 -0.0250574,-0.04518 -0.0266015,-0.075286 -7.7205e-4,-0.010035 -0.001166,-0.024327 -0.001166,-0.042854 0,-0.019298 3.9031e-4,-0.033985 0.001166,-0.04402 0.00154,-0.032421 0.0103914,-0.059035 0.0266015,-0.079877 0.016211,-0.021614 0.0409257,-0.032432 0.0741197,-0.032432 z m 0.45477546,0.04781 c -0.00772,0 -0.0146709,0.00268 -0.0208439,0.00809 -0.00541,0.0054 -0.00809,0.012353 -0.00809,0.020844 v 0.3470578 c 0,0.00772 0.00268,0.014668 0.00809,0.020844 0.00618,0.0054 0.0131249,0.00809 0.0208439,0.00809 h 0.14474104 c 0.00849,0 0.01543687,-0.00269 0.02084388,-0.00809 0.00617,-0.0054 0.0092558,-0.012353 0.0092558,-0.020844 0,0 -0.0025942,-0.1602781 0,-0.3470578 1.1792e-4,-0.00849 -0.0030758,-0.015437 -0.0092558,-0.020844 -0.0054,-0.00541 -0.01235188,-0.00809 -0.02084388,-0.00809 z" /><path
   id="path1158"
   d="m 0.2961003,-1.5046062 q -0.012851,0 -0.02103,-0.00786 -0.00818,-0.00899 -0.00818,-0.021346 v -0.1044809 q 0,-0.012358 0.00818,-0.020222 0.00935,-0.00899 0.02103,-0.00899 h 0.1460411 q 0.012851,0 0.02103,0.00899 0.00935,0.00786 0.00935,0.020222 v 0.1044809 q 0,0.012358 -0.00935,0.021346 -0.00818,0.00786 -0.02103,0.00786 z"
   style="font-style:normal;font-variant:normal;font-weight:bold;font-stretch:normal;font-size:1.14567px;line-height:1.25;font-family:rubik;-inkscape-font-specification:'rubik Bold';letter-spacing:0px;word-spacing:0px;fill:#000000;fill-opacity:1;stroke:none;stroke-width:0.0286417" /><path
   d="m 6.8379977,-3.0676128 c -0.094176,0 -0.1683235,0.023139 -0.2223586,0.069455 -0.053262,0.045544 -0.082168,0.1091955 -0.086801,0.1910204 -7.724e-4,0.010035 -0.00117,0.027408 -0.00117,0.05211 0,0.024702 3.937e-4,0.042074 0.00117,0.05211 0.00463,0.083369 0.032822,0.1478812 0.084542,0.1934254 0.052491,0.044772 0.1273544,0.067123 0.2246183,0.067123 0.097264,0 0.1717326,-0.022351 0.2234518,-0.067123 0.05249,-0.045544 0.081074,-0.1100567 0.085708,-0.1934254 0.00154,-0.020071 0.00233,-0.037443 0.00233,-0.05211 0,-0.014667 -7.873e-4,-0.03204 -0.00233,-0.05211 -0.00463,-0.081825 -0.034005,-0.1454764 -0.08804,-0.1910204 -0.053263,-0.046316 -0.1269442,-0.069455 -0.2211205,-0.069455 z m 0.6672955,0 c -0.055579,0 -0.1034344,0.00885 -0.1435748,0.026601 -0.039369,0.017755 -0.06953,0.041288 -0.090372,0.070621 -0.02007,0.028561 -0.0301,0.058723 -0.0301,0.090372 0,0.096491 0.066804,0.1582447 0.200349,0.1852627 0.041685,0.00772 0.072561,0.015384 0.092631,0.023103 0.020842,0.00695 0.034741,0.014291 0.041688,0.02201 0.00772,0.00772 0.011588,0.017749 0.011588,0.0301 0,0.014667 -0.00695,0.026273 -0.020844,0.034764 -0.013123,0.00772 -0.030101,0.011588 -0.050943,0.011588 -0.017755,0 -0.033229,-0.00276 -0.046352,-0.00816 -0.012351,-0.00618 -0.025856,-0.014628 -0.040521,-0.025435 -0.00154,-0.00154 -0.00889,-0.00659 -0.02201,-0.015086 -0.00309,-0.00309 -0.00695,-0.00459 -0.011588,-0.00459 H 7.2551668 c -0.00695,0 -0.013505,0.00268 -0.019678,0.00809 -0.00541,0.00463 -0.00809,0.010792 -0.00809,0.018512 0,0.02007 0.010029,0.042494 0.0301,0.067196 0.020843,0.024702 0.052435,0.045943 0.094891,0.063698 0.042456,0.017754 0.095362,0.026601 0.1586611,0.026601 0.092632,0 0.1644151,-0.016979 0.2153623,-0.050944 0.05172,-0.034737 0.077618,-0.081016 0.077618,-0.1389105 0,-0.044772 -0.017373,-0.08378 -0.05211,-0.1169735 -0.033965,-0.033965 -0.088769,-0.057499 -0.1644184,-0.070621 -0.041685,-0.00772 -0.072955,-0.015063 -0.093797,-0.02201 -0.020071,-0.00695 -0.033575,-0.013896 -0.040522,-0.020844 -0.00617,-0.00772 -0.00926,-0.017354 -0.00926,-0.028934 0,-0.013123 0.00537,-0.023941 0.01618,-0.032432 0.010806,-0.00849 0.025887,-0.012754 0.045186,-0.012754 0.016211,0 0.02932,0.00268 0.039356,0.00809 0.010808,0.00463 0.023129,0.01158 0.037024,0.020844 0.00926,0.00695 0.018504,0.012785 0.027767,0.017418 0.00386,0.00309 0.0093,0.00459 0.016253,0.00459 h 0.1273957 c 0.00695,0 0.012712,-0.00268 0.017345,-0.00809 0.00541,-0.0054 0.00809,-0.011564 0.00809,-0.018512 0,-0.02007 -0.010818,-0.0421 -0.032432,-0.06603 -0.021614,-0.024702 -0.053206,-0.045549 -0.094891,-0.062532 -0.040912,-0.017755 -0.089556,-0.026601 -0.1459076,-0.026601 z m 1.0104907,0 c -0.06021,0 -0.1108256,0.00924 -0.151737,0.027767 -0.04091,0.018526 -0.0714,0.04095 -0.09147,0.067196 -0.02007,0.025474 -0.03049,0.048613 -0.03127,0.069455 -7.724e-4,0.00694 0.0012,0.013105 0.0058,0.018512 0.0054,0.00463 0.01196,0.00692 0.01968,0.00692 h 0.1343193 c 0.0046,0 0.0085,-0.00268 0.01159,-0.00809 0.0077,-0.00386 0.01657,-0.01002 0.0266,-0.018512 0.01312,-0.010804 0.02473,-0.018935 0.03476,-0.024342 0.01081,-0.00541 0.02392,-0.00809 0.03936,-0.00809 0.02779,0 0.04746,0.00656 0.05903,0.019678 0.01158,0.013123 0.01742,0.03397 0.01742,0.062532 v 0.01392 l -0.1435747,0.02201 c -0.07642,0.012351 -0.1366711,0.035096 -0.1806713,0.068289 -0.04323,0.032421 -0.06486,0.074904 -0.06486,0.1273953 0,0.033193 0.0093,0.063676 0.02784,0.091465 0.0193,0.02779 0.04552,0.049746 0.07871,0.065957 0.03397,0.015439 0.0714,0.023176 0.1123089,0.023176 0.04169,0 0.07761,-0.00734 0.1077181,-0.02201 0.03011,-0.015439 0.05364,-0.035103 0.07062,-0.059033 v 0.040522 c 0,0.00772 0.0027,0.014668 0.0081,0.020844 0.0062,0.0054 0.01313,0.00809 0.02084,0.00809 h 0.142409 c 0.0085,0 0.01544,-0.00269 0.02084,-0.00809 0.0054,-0.00618 0.0081,-0.013125 0.0081,-0.020844 v -0.3508474 c 0,-0.071789 -0.02314,-0.1284919 -0.06945,-0.1701765 -0.04632,-0.042456 -0.1173099,-0.063698 -0.2130301,-0.063698 z m 0.4375763,0.00153 c -0.0077,0 -0.01467,0.00268 -0.02084,0.00809 -0.0054,0.0054 -0.0081,0.012352 -0.0081,0.020844 v 0.5442002 c 0,0.00179 6.604e-4,0.0034 9.478e-4,0.0051 v 0.00496 c 0,0.00849 0.0027,0.01544 0.0081,0.020844 0.0062,0.0054 0.01352,0.00809 0.02201,0.00809 h 0.1412429 c 0.0085,0 0.01544,-0.00269 0.02084,-0.00809 0.0048,-0.00552 0.0072,-0.011757 0.0077,-0.018512 0.0018,-0.00372 0.0029,-0.00775 0.0029,-0.01239 v -0.1953203 l 0.1734573,0.2146336 c 0.0069,0.00695 0.01279,0.011998 0.01742,0.015086 0.0054,0.00309 0.01314,0.00459 0.02318,0.00459 h 0.167844 c 0.0077,0 0.01395,-0.00229 0.01858,-0.00692 0.0054,-0.0054 0.0081,-0.011958 0.0081,-0.019678 0,-0.00463 -0.0027,-0.010471 -0.0081,-0.017419 l -0.2327826,-0.288316 0.2037741,-0.2246183 c 0.0054,-0.0054 0.0082,-0.011564 0.0082,-0.018512 0,-0.00772 -0.0028,-0.013878 -0.0082,-0.018512 -0.0046,-0.00541 -0.0104,-0.00809 -0.01735,-0.00809 h -0.163252 c -0.0069,0 -0.01271,0.00111 -0.01735,0.00343 -0.0046,0.00155 -0.0093,0.00423 -0.01392,0.00809 l -0.0081,0.00816 -0.1515185,0.1731646 v -0.1739663 c 0,-0.00849 -0.0031,-0.015437 -0.0093,-0.020844 -0.0054,-0.00541 -0.012351,-0.00809 -0.02084,-0.00809 z m -2.9050974,0.010056 c -0.00849,0 -0.015437,0.00308 -0.020844,0.00926 -0.00541,0.0054 -0.00809,0.012353 -0.00809,0.020844 v 0.5430341 c 0,0.00772 0.00268,0.014668 0.00809,0.020844 0.00618,0.0054 0.013125,0.00809 0.020844,0.00809 h 0.1528308 c 0.00849,0 0.015439,-0.00269 0.020844,-0.00809 0.00617,-0.0054 0.00926,-0.012353 0.00926,-0.020844 v -0.2918143 c 0,-0.030877 0.00813,-0.054805 0.024342,-0.071787 0.016982,-0.016983 0.04091,-0.025435 0.071787,-0.025435 h 0.1169737 c 0.00849,0 0.015437,-0.00268 0.020844,-0.00809 0.00541,-0.00618 0.00809,-0.013124 0.00809,-0.020844 v -0.1262295 c 0,-0.00849 -0.00268,-0.015437 -0.00809,-0.020844 -0.0054,-0.00541 -0.012352,-0.00809 -0.020844,-0.00809 h -0.05211 c -0.035508,0 -0.067962,0.00656 -0.097296,0.019678 -0.028562,0.012351 -0.053672,0.030439 -0.075286,0.054369 v -0.043947 c 4e-7,-0.00849 -0.00308,-0.015437 -0.00926,-0.020844 -0.0054,-0.00617 -0.012353,-0.00926 -0.020844,-0.00926 z m 1.8838196,0 c -0.00772,0 -0.01467,0.00268 -0.020844,0.00809 -0.00541,0.0054 -0.00809,0.012353 -0.00809,0.020844 v 0.5442002 c 0,0.00772 0.00268,0.014668 0.00809,0.020844 0.00618,0.0054 0.013124,0.00809 0.020844,0.00809 H 8.076824 c 0.0085,0 0.01544,-0.00269 0.02084,-0.00809 0.0062,-0.0054 0.0093,-0.012353 0.0093,-0.020844 V -3.027093 c 0,-0.00849 -0.0031,-0.015437 -0.0093,-0.020844 -0.0054,-0.00541 -0.01235,-0.00809 -0.02084,-0.00809 z m -1.0940847,0.1343192 c 0.031649,0 0.055183,0.01003 0.070621,0.0301 0.015441,0.02007 0.024288,0.050158 0.026601,0.090299 7.724e-4,0.00772 0.00117,0.023121 0.00117,0.046279 0,0.023158 -3.918e-4,0.038633 -0.00117,0.046352 -0.00232,0.040913 -0.011163,0.071395 -0.026601,0.091465 -0.015439,0.019298 -0.038972,0.028934 -0.070621,0.028934 -0.031649,0 -0.055183,-0.00964 -0.070621,-0.028934 -0.015441,-0.02007 -0.024361,-0.050553 -0.026674,-0.091465 l -0.00117,-0.046352 0.00117,-0.046279 c 0.00232,-0.040141 0.011236,-0.070229 0.026674,-0.090299 0.015439,-0.02007 0.038972,-0.0301 0.070621,-0.0301 z m 1.7541654,0.1979435 v 0.01392 c 0,0.042457 -0.01082,0.07491 -0.03243,0.097296 -0.02084,0.022386 -0.04824,0.033525 -0.08221,0.033525 -0.02239,0 -0.04126,-0.00537 -0.0567,-0.01618 -0.01467,-0.010807 -0.02201,-0.025099 -0.02201,-0.042854 0,-0.033965 0.03245,-0.057105 0.09729,-0.069455 z"
   style="font-style:normal;font-variant:normal;font-weight:bold;font-stretch:normal;font-size:1.1579px;line-height:1.25;font-family:Rubik;-inkscape-font-specification:'Rubik Bold';letter-spacing:0px;word-spacing:0px;clip-rule:evenodd;fill:#25717a;fill-opacity:1;fill-rule:evenodd;stroke:none;stroke-width:0.0289475;image-rendering:optimizeQuality;shape-rendering:geometricPrecision;text-rendering:geometricPrecision"
   id="path835" /><path
   d="m 3.3131964,-3.0676128 c -0.073868,0 -0.1312783,0.024922 -0.1725814,0.07412 v -0.025362 c 0,-0.00849 -0.00308,-0.015437 -0.00926,-0.020844 -1.926e-4,-1.929e-4 -4.595e-4,-2.514e-4 -6.559e-4,-4.373e-4 -0.00131,-0.00283 -0.00282,-0.00552 -0.0051,-0.0078 -0.0054,-0.00541 -0.012353,-0.00809 -0.020844,-0.00809 H 2.9669402 c -0.00849,0 -0.015835,0.00268 -0.02201,0.00809 -0.0054,0.0054 -0.00809,0.012353 -0.00809,0.020844 v 0.00824 0.4866974 0.057503 c 0,0.00772 0.00268,0.014669 0.00809,0.020844 0.00617,0.0054 0.013124,0.00809 0.020844,0.00809 h 0.1447411 c 0.00849,0 0.015437,-0.00269 0.020844,-0.00809 0.00617,-0.0054 0.00926,-0.012353 0.00926,-0.020844 v -0.044457 l 0.00466,2.911e-4 c 0.037053,0.050948 0.09304,0.076452 0.1679171,0.076452 0.074106,0 0.1327785,-0.023928 0.1760069,-0.071787 0.043229,-0.04786 0.066369,-0.1134821 0.069455,-0.1968508 7.731e-4,-0.010807 0.00117,-0.025493 0.00117,-0.04402 0,-0.018526 -3.93e-4,-0.032746 -0.00117,-0.042781 -0.00309,-0.086457 -0.026227,-0.1528667 -0.069455,-0.1991827 -0.042456,-0.047092 -0.1011293,-0.070626 -0.1760069,-0.070626 z m 0.9828689,0 c -0.094176,0 -0.1683236,0.023139 -0.222359,0.069455 -0.053261,0.045544 -0.082167,0.1091955 -0.086801,0.1910204 -7.732e-4,0.010035 -0.00117,0.027408 -0.00117,0.05211 0,0.024702 3.929e-4,0.042074 0.00117,0.05211 0.00463,0.083369 0.03275,0.1478812 0.084469,0.1934254 0.052491,0.044772 0.1274275,0.067123 0.2246911,0.067123 0.097264,0 0.1717329,-0.022351 0.2234522,-0.067123 0.05249,-0.045544 0.081074,-0.1100567 0.085708,-0.1934254 0.00155,-0.020071 0.00226,-0.037443 0.00226,-0.05211 0,-0.014667 -7.127e-4,-0.03204 -0.00226,-0.05211 -0.00463,-0.081825 -0.034004,-0.1454764 -0.08804,-0.1910204 -0.053263,-0.046316 -0.1269441,-0.069455 -0.2211203,-0.069455 z m 0.4889565,0.01144 v 1.458e-4 h -0.091465 c -0.00772,0 -0.014671,0.00268 -0.020844,0.00809 -0.00541,0.0054 -0.00809,0.012353 -0.00809,0.020844 v 0.099555 c 0,0.00772 0.00268,0.014671 0.00809,0.020844 0.00618,0.00541 0.013124,0.00809 0.020844,0.00809 h 0.091465 v 0.2142693 c 0,0.1536147 0.081885,0.2303758 0.2455351,0.2303758 h 0.1099769 c 0.00849,0 0.015437,-0.00269 0.020844,-0.00809 0.00541,-0.00618 0.00809,-0.013125 0.00809,-0.020844 v -0.1065516 c 0,-0.00849 -0.00268,-0.015437 -0.00809,-0.020844 -0.0054,-0.00617 -0.012353,-0.00926 -0.020844,-0.00926 h -0.091465 c -0.022386,0 -0.038649,-0.00695 -0.048684,-0.020844 -0.010035,-0.013895 -0.015014,-0.034348 -0.015014,-0.061365 v -0.1968507 h 0.1447411 c 0.00849,0 0.015437,-0.00268 0.020844,-0.00809 0.00617,-0.0054 0.00926,-0.012352 0.00926,-0.020844 v -0.099555 c 0,-0.00849 -0.00308,-0.015437 -0.00926,-0.020844 -0.0054,-0.00541 -0.012352,-0.00809 -0.020844,-0.00809 H 4.9853708 v -1.458e-4 z m -1.0842459,1.458e-4 c -0.00772,0 -0.014671,0.00268 -0.020844,0.00809 -0.00541,0.0054 -0.00809,0.012353 -0.00809,0.020844 v 0.5442002 c 0,0.00772 0.00268,0.014668 0.00809,0.020844 0.00618,0.0054 0.013125,0.00809 0.020844,0.00809 h 0.144741 c 0.00849,0 0.015437,-0.00269 0.020844,-0.00809 0.00617,-0.0054 0.00926,-0.012353 0.00926,-0.020844 V -3.027093 c 0,-0.00849 -0.00308,-0.015437 -0.00926,-0.020844 -0.0054,-0.00541 -0.012352,-0.00809 -0.020844,-0.00809 z m 1.5921514,0 c -0.00849,0 -0.015437,0.00308 -0.020844,0.00926 -0.00541,0.0054 -0.00809,0.012353 -0.00809,0.020844 v 0.5430341 c 0,0.00772 0.00268,0.014668 0.00809,0.020844 0.00618,0.0054 0.013125,0.00809 0.020844,0.00809 h 0.1528309 c 0.00849,0 0.015437,-0.00269 0.020844,-0.00809 0.00617,-0.0054 0.00926,-0.012353 0.00926,-0.020844 v -0.2918143 c 0,-0.030877 0.00813,-0.054805 0.024342,-0.071787 0.016983,-0.016983 0.04091,-0.025435 0.071787,-0.025435 h 0.1169007 c 0.00849,0 0.015437,-0.00268 0.020844,-0.00809 0.00541,-0.00618 0.00816,-0.013124 0.00816,-0.020844 v -0.1262295 c 0,-0.00849 -0.00276,-0.015437 -0.00816,-0.020844 -0.0054,-0.00541 -0.012353,-0.00809 -0.020844,-0.00809 h -0.05211 c -0.035509,0 -0.067889,0.00656 -0.097223,0.019678 -0.028562,0.012351 -0.053672,0.030439 -0.075286,0.054369 v -0.043947 c 0,-0.00849 -0.00308,-0.015437 -0.00926,-0.020844 -0.0054,-0.00617 -0.012353,-0.00926 -0.020844,-0.00926 z m -0.996862,0.1343192 c 0.031649,0 0.055183,0.01003 0.070621,0.0301 0.015441,0.02007 0.024288,0.050158 0.026601,0.090299 7.732e-4,0.00772 0.00117,0.023121 0.00117,0.046279 0,0.023158 -3.929e-4,0.038633 -0.00117,0.046352 -0.00232,0.040913 -0.011163,0.071395 -0.026601,0.091465 -0.015439,0.019298 -0.038972,0.028934 -0.070621,0.028934 -0.031649,0 -0.055256,-0.00964 -0.070694,-0.028934 -0.015441,-0.02007 -0.024288,-0.050553 -0.026601,-0.091465 l -0.00117,-0.046352 0.00117,-0.046279 c 0.00232,-0.040141 0.011163,-0.070229 0.026601,-0.090299 0.015439,-0.02007 0.039045,-0.0301 0.070694,-0.0301 z m -1.0500649,0.015013 c 0.034737,0 0.059453,0.010424 0.07412,0.031266 0.015439,0.020071 0.024285,0.048261 0.026602,0.084542 7.72e-4,0.00772 0.00117,0.019647 0.00117,0.035857 0,0.016211 -3.941e-4,0.028211 -0.00117,0.03593 -0.00232,0.036281 -0.011163,0.064866 -0.026602,0.085708 -0.014667,0.02007 -0.039383,0.0301 -0.07412,0.0301 -0.032421,-7e-7 -0.057137,-0.00964 -0.07412,-0.028934 -0.016211,-0.020071 -0.025057,-0.04518 -0.026601,-0.075286 -7.72e-4,-0.010035 -0.00117,-0.024327 -0.00117,-0.042854 0,-0.019298 3.941e-4,-0.033985 0.00117,-0.04402 0.00154,-0.032421 0.010391,-0.059035 0.026601,-0.079877 0.016211,-0.021614 0.040926,-0.032432 0.07412,-0.032432 z"
   style="font-style:normal;font-variant:normal;font-weight:bold;font-stretch:normal;font-size:1.1579px;line-height:1.25;font-family:Rubik;-inkscape-font-specification:'Rubik Bold';letter-spacing:0px;word-spacing:0px;clip-rule:evenodd;fill:#000000;fill-opacity:1;fill-rule:evenodd;stroke:none;stroke-width:0.0289475;image-rendering:optimizeQuality;shape-rendering:geometricPrecision;text-rendering:geometricPrecision"
   id="path858-9" /></svg>
