<?xml version="1.0" encoding="UTF-8"?>
<!DOCTYPE svg PUBLIC "-//W3C//DTD SVG 1.1//EN" "http://www.w3.org/Graphics/SVG/1.1/DTD/svg11.dtd">
<!-- Creator: CorelDRAW -->
<svg xmlns="http://www.w3.org/2000/svg" xml:space="preserve" width="112px" height="70px" style="shape-rendering:geometricPrecision; text-rendering:geometricPrecision; image-rendering:optimizeQuality; fill-rule:evenodd; clip-rule:evenodd"
viewBox="0 0 4.17927 2.60576"
 xmlns:xlink="http://www.w3.org/1999/xlink">
 <defs>
  <style type="text/css">
   <![CDATA[
    .fil1 {fill:#5B5B5B}
    .fil0 {fill:black;fill-rule:nonzero}
    .fil2 {fill:#FEFEFE;fill-rule:nonzero}
   ]]>
  </style>
 </defs>
 <g id="Warstwa_x0020_1">
  <metadata id="CorelCorpID_0Corel-Layer"/>
  <path class="fil0" d="M0.415054 2.35762c0,0.0346704 -0.0107316,0.061086 -0.0321938,0.0792466 -0.0211326,0.0181606 -0.0525005,0.0272414 -0.0941056,0.0272414l-0.20604 0 0 0.131747 -0.0579492 0 0 -0.183258 0.26498 0c0.0445761,0 0.0668642,-0.0179949 0.0668642,-0.0539865 0,-0.0383026 -0.0236083,-0.0574538 -0.0708259,-0.0574538l-0.203069 0 0 0.0663689 -0.0579492 0 0 -0.118374 0.274886 0.000495331c0.0353315,0 0.0635626,0.0097409 0.0846952,0.0292218 0.0204716,0.0194818 0.0307078,0.0457316 0.0307078,0.0787512z"/>
  <polygon id="1" class="fil0" points="0.536895,2.24965 0.536895,2.59635 0.479441,2.59635 0.479441,2.24965 "/>
  <path id="12" class="fil0" d="M0.957893 2.42201c0,0.0485388 -0.015684,0.089318 -0.0470528,0.122338 -0.035,0.0373119 -0.0807326,0.0559678 -0.137196,0.0559678 -0.0561327,0 -0.10203,-0.0188217 -0.13769,-0.0564632 -0.0310383,-0.0336798 -0.0465575,-0.0742942 -0.0465575,-0.121842 0,-0.0482083 0.0155192,-0.0888218 0.0465575,-0.121841 0.0359907,-0.037972 0.081888,-0.0569585 0.13769,-0.0569585 0.0561336,0 0.10203,0.0188217 0.137691,0.0564632 0.0310383,0.0330196 0.0465575,0.0737989 0.0465575,0.122337zm-0.0564632 0c0,-0.0386322 -0.0120518,-0.06934 -0.0361564,-0.0921234 -0.023113,-0.0231139 -0.053656,-0.0346704 -0.0916289,-0.0346704 -0.0396228,0 -0.0716518,0.013373 -0.096086,0.0401182 -0.0214622,0.0234435 -0.0321938,0.0523357 -0.0321938,0.0866756 0,0.0373119 0.0122166,0.0678549 0.0366518,0.0916289 0.0234435,0.0234445 0.0539865,0.0351658 0.091628,0.0351658 0.0383026,0 0.0688455,-0.0115565 0.0916289,-0.0346704 0.0241046,-0.0227834 0.0361564,-0.0534912 0.0361564,-0.0921243z"/>
  <path id="123" class="fil0" d="M1.35462 2.24915l0 0.0520052 -0.388803 0 0 -0.0520052 0.388803 0zm-0.165922 0.099058l0 0.247645 -0.0574538 0 0 -0.247645 0.0574538 0z"/>
  <path id="1234" class="fil0" d="M1.75383 2.59585l-0.0668642 0 -0.205051 -0.295194 -0.0203067 0 0 0.295194 -0.0574538 0 0 -0.346703 0.23031 0c0.0359916,0 0.0645533,0.0097409 0.0856859,0.0292218 0.0208021,0.0198114 0.0312031,0.0463927 0.0312031,0.0797419 0,0.0297171 -0.00858544,0.0533264 -0.0257554,0.0708269 -0.0151886,0.0165098 -0.0366518,0.0270757 -0.0643876,0.0316984l0.0926196 0.135214zm-0.12729 -0.183753c0.043916,-0.00032961 0.0658736,-0.0183254 0.0658736,-0.0539865 0,-0.0383026 -0.0239389,-0.0574538 -0.0718166,-0.0574538l-0.0703315 0 0.0762746 0.11144z"/>
  <path id="12345" class="fil0" d="M2.30162 2.59585l-0.0668642 0 -0.205051 -0.295194 -0.0203067 0 0 0.295194 -0.0574538 0 0 -0.346703 0.23031 0c0.0359916,0 0.0645533,0.0097409 0.0856859,0.0292218 0.0208021,0.0198114 0.0312031,0.0463927 0.0312031,0.0797419 0,0.0297171 -0.00858544,0.0533264 -0.0257554,0.0708269 -0.0151886,0.0165098 -0.0366518,0.0270757 -0.0643876,0.0316984l0.0926196 0.135214zm-0.12729 -0.183753c0.043916,-0.00032961 0.0658736,-0.0183254 0.0658736,-0.0539865 0,-0.0383026 -0.0239389,-0.0574538 -0.0718166,-0.0574538l-0.0703315 0 0.0762746 0.11144z"/>
  <path id="123456" class="fil0" d="M2.71964 2.42201c0,0.0485388 -0.015684,0.089318 -0.0470528,0.122338 -0.035,0.0373119 -0.0807326,0.0559678 -0.137196,0.0559678 -0.0561327,0 -0.10203,-0.0188217 -0.13769,-0.0564632 -0.0310383,-0.0336798 -0.0465575,-0.0742942 -0.0465575,-0.121842 0,-0.0482083 0.0155192,-0.0888218 0.0465575,-0.121841 0.0359907,-0.037972 0.081888,-0.0569585 0.13769,-0.0569585 0.0561336,0 0.10203,0.0188217 0.137691,0.0564632 0.0310383,0.0330196 0.0465575,0.0737989 0.0465575,0.122337zm-0.0564632 0c0,-0.0386322 -0.0120518,-0.06934 -0.0361564,-0.0921234 -0.023113,-0.0231139 -0.053656,-0.0346704 -0.0916289,-0.0346704 -0.0396228,0 -0.0716518,0.013373 -0.096086,0.0401182 -0.0214622,0.0234435 -0.0321938,0.0523357 -0.0321938,0.0866756 0,0.0373119 0.0122166,0.0678549 0.0366518,0.0916289 0.0234435,0.0234445 0.0539865,0.0351658 0.091628,0.0351658 0.0383026,0 0.0688455,-0.0115565 0.0916289,-0.0346704 0.0241046,-0.0227834 0.0361564,-0.0534912 0.0361564,-0.0921243z"/>
  <path id="1234567" class="fil0" d="M3.12776 2.49036c0,0.0363212 -0.016345,0.0647181 -0.0490341,0.0851906 -0.0323595,0.0201419 -0.0792466,0.0302125 -0.140663,0.0302125 -0.0828787,0 -0.148422,-0.0170051 -0.19663,-0.0510145l0.0217927 -0.0490341c0.0541513,0.0330196 0.112596,0.0495295 0.175333,0.0495295 0.040944,0 0.0724777,-0.00561345 0.0946009,-0.0168403 0.0214622,-0.0108964 0.0321938,-0.0257554 0.0321938,-0.0445761 0,-0.0217927 -0.0140332,-0.036486 -0.0420995,-0.0440808 -0.014859,-0.00363212 -0.0544819,-0.00759477 -0.11887,-0.011887 -0.0577834,-0.00396265 -0.0979025,-0.0115565 -0.120355,-0.0227834 -0.0270757,-0.0132073 -0.0406135,-0.0358259 -0.0406135,-0.0678549 0,-0.0326891 0.0153534,-0.0584445 0.0460621,-0.0772653 0.0300477,-0.0188208 0.0731378,-0.028232 0.12927,-0.028232 0.0693409,0 0.128281,0.014859 0.176819,0.0445771l-0.0242685 0.0455659c-0.0511803,-0.026085 -0.103516,-0.0391275 -0.157007,-0.0391275 -0.0359916,0 -0.063233,0.00412745 -0.0817232,0.0123824 -0.0188217,0.00825491 -0.028232,0.0198114 -0.028232,0.0346704 0,0.0151886 0.0100714,0.0262498 0.0302134,0.0331844 0.0138674,0.00528292 0.0373119,0.00891505 0.0703306,0.0108964 0.0482083,0.00297199 0.0799076,0.00544773 0.0950963,0.00742905 0.0442456,0.00594397 0.0764394,0.0166746 0.0965813,0.0321938 0.0208021,0.0158497 0.031204,0.0381378 0.031204,0.0668642z"/>
  <polygon id="12345678" class="fil0" points="3.24168,2.24965 3.24168,2.59635 3.18423,2.59635 3.18423,2.24965 "/>
  <polygon id="123456789" class="fil0" points="3.35609,2.46609 3.59631,2.46658 3.50765,2.29868 3.44227,2.42151 3.37987,2.42151 3.4715,2.24915 3.54331,2.24915 3.72707,2.59585 3.66416,2.59585 3.62405,2.51809 3.39076,2.51809 3.35064,2.59585 3.28774,2.59585 "/>
  <path id="12345678910" class="fil0" d="M3.83405 2.59585l-0.0574538 0 0 -0.346703 0.0574538 0 0 0.179791 0.243187 -0.179791 0.0827139 0 -0.325901 0.241701 0 0.105002zm0.345217 0l-0.0742933 0 -0.141654 -0.156017 0.0435855 -0.0326891 0.172362 0.188706z"/>
  <circle class="fil1" transform="matrix(0.60671 -0.794923 0.794923 0.60671 2.02788 1.01631)" r="1.01626"/>
  <path class="fil2" d="M1.11244 0.917291c0,0.082865 0.025814,0.145805 0.0769448,0.189404 0.0506739,0.0432101 0.125481,0.0651081 0.224918,0.0651081l0.388284 0 0 0.314884 0.138501 0 0 -0.437997 -0.529153 0c-0.106539,0 -0.15981,-0.0430105 -0.15981,-0.129031 0,-0.0915447 0.0564266,-0.137318 0.16928,-0.137318l0.381182 0 0 0.158626 0.138501 0 0 -0.282923 -0.552828 0.00118385c-0.0844425,0.00018037 -0.152286,0.0228869 -0.202426,0.0698426 -0.0492996,0.0461693 -0.0733942,0.109302 -0.0733942,0.18822zm1.76005 0.56908l-0.15981 0 -0.490083 -0.70553 -0.0485351 0 0 0.70553 -0.137318 0 0 -0.828643 0.550456 0c0.086021,0 0.154285,0.0232815 0.204793,0.0698435 0.0497181,0.0473504 0.0745771,0.11088 0.0745771,0.190587 0,0.0710265 -0.0205182,0.127454 -0.0615557,0.169281 -0.0363029,0.0394589 -0.0875995,0.0647126 -0.153891,0.0757609l0.221366 0.323171zm-0.30423 -0.439181c0.104962,-0.000789234 0.157442,-0.0437997 0.157442,-0.129031 0,-0.0915447 -0.0572158,-0.137318 -0.171647,-0.137318l-0.168096 0 0.182301 0.266349z"/>
 </g>
</svg>
