<?xml version="1.0" standalone="no"?><!-- Generator: Gravit.io --><svg xmlns="http://www.w3.org/2000/svg" xmlns:xlink="http://www.w3.org/1999/xlink" style="isolation:isolate" viewBox="759.53 4569 126.939 110.79" width="126.939" height="110.79"><path d=" M 837.532 4603.946 C 836.868 4604.285 836.036 4604.292 835.31 4603.897 C 834.773 4603.596 834.38 4603.092 834.22 4602.497 C 834.061 4601.903 834.148 4601.269 834.463 4600.74 L 836.307 4597.531 C 836.963 4596.428 838.361 4596.027 839.464 4596.683 C 840.58 4597.297 840.968 4598.737 840.311 4599.84 L 838.467 4603.049 C 838.249 4603.439 837.918 4603.748 837.532 4603.946 Z  M 847.505 4570.016 L 764.562 4612.442 C 760.031 4614.76 758.223 4620.356 760.54 4624.888 L 786.05 4674.758 C 788.368 4679.289 793.964 4681.098 798.495 4678.78 L 881.438 4636.354 C 885.969 4634.036 887.777 4628.44 885.46 4623.909 L 859.95 4574.038 C 857.632 4569.507 852.064 4567.684 847.505 4570.016 L 847.505 4570.016 Z  M 881.343 4626.015 C 882.502 4628.28 881.598 4631.078 879.332 4632.237 L 796.389 4674.663 C 794.123 4675.822 791.325 4674.918 790.167 4672.652 L 764.657 4622.782 C 764.36 4622.202 764.202 4621.62 764.169 4621.01 L 808.098 4625.659 L 794.546 4665.95 C 794.144 4667.157 794.796 4668.463 796.003 4668.865 C 797.21 4669.268 798.515 4668.616 798.918 4667.409 L 812.808 4626.143 L 823.019 4627.229 C 823.937 4627.323 824.824 4626.87 825.285 4626.071 L 830.38 4617.155 L 871.817 4630.085 C 873.031 4630.452 874.314 4629.78 874.704 4628.574 C 875.096 4627.363 874.39 4626.051 873.193 4625.687 L 832.716 4613.067 L 834.969 4609.091 C 835.598 4608.002 835.21 4606.562 834.122 4605.934 C 833.013 4605.315 831.614 4605.691 830.965 4606.782 L 827.249 4613.284 L 822.004 4622.45 L 766.571 4616.574 L 849.68 4574.063 L 840.103 4590.778 C 839.484 4591.886 839.86 4593.286 840.951 4593.935 C 841.634 4594.332 842.473 4594.351 843.172 4593.984 C 843.559 4593.786 843.89 4593.478 844.136 4593.073 L 854.654 4574.656 C 855.136 4575.046 855.528 4575.534 855.805 4576.089 L 881.343 4626.015 L 881.343 4626.015 Z " fill="rgb(65,64,66)"/></svg>