<?xml version="1.0" standalone="no"?><!-- Generator: Gravit.io --><svg xmlns="http://www.w3.org/2000/svg" xmlns:xlink="http://www.w3.org/1999/xlink" style="isolation:isolate" viewBox="1136.5 52.377 24.273 24.273" width="24.273" height="24.273"><path d=" M 1158.345 52.377 L 1138.927 52.377 C 1137.59 52.377 1136.5 53.467 1136.5 54.805 L 1136.5 74.223 C 1136.5 75.56 1137.59 76.65 1138.927 76.65 L 1158.345 76.65 C 1159.683 76.65 1160.773 75.56 1160.773 74.223 L 1160.773 54.805 C 1160.773 53.467 1159.683 52.377 1158.345 52.377 Z  M 1155.435 60.63 L 1155.435 61.115 C 1155.435 65.727 1151.912 71.065 1145.478 71.065 C 1143.54 71.065 1141.72 70.458 1140.141 69.492 L 1140.99 69.492 C 1142.568 69.492 1144.146 68.885 1145.36 68.031 C 1143.782 68.031 1142.568 66.941 1142.085 65.603 C 1142.327 65.603 1142.568 65.727 1142.692 65.727 C 1143.051 65.727 1143.299 65.727 1143.658 65.603 C 1142.085 65.244 1140.872 63.907 1140.872 62.21 C 1141.355 62.452 1141.838 62.569 1142.444 62.693 C 1141.478 61.844 1140.872 60.873 1140.872 59.659 C 1140.872 59.052 1140.989 58.445 1141.355 57.962 C 1143.051 60.024 1145.602 61.48 1148.513 61.603 C 1148.513 61.356 1148.395 61.114 1148.395 60.749 C 1148.396 58.807 1149.97 57.233 1151.912 57.232 C 1152.884 57.232 1153.856 57.596 1154.463 58.322 C 1155.311 58.204 1156.041 57.839 1156.648 57.473 C 1156.401 58.323 1155.794 58.93 1155.07 59.418 C 1155.794 59.294 1156.401 59.175 1157.132 58.811 C 1156.662 59.5 1156.09 60.114 1155.435 60.631 L 1155.435 60.63 Z " fill="rgb(0,0,0)"/></svg>